<svg width="1280" height="421" viewBox="0 0 1280 421" fill="none" xmlns="http://www.w3.org/2000/svg">
<rect y="0.350098" width="1280" height="420.164" rx="80" fill="#003C4E"/>
<path fill-rule="evenodd" clip-rule="evenodd" d="M862.81 20.2395L863.686 22.5462L1241.62 12.0149C1256.08 20.84 1267.52 34.1254 1274.03 49.9586L762.481 35.689L762.494 36.9373L757.381 36.2736L756.356 38.5669L1280 120.489V162.443L673.973 30.8072L672.948 33.1005L1280 182.324V228.272L695.536 44.9134L694.512 47.2067L1280 250.081V319.383L685.336 46.8163L684.312 49.1097L1279.96 342.982C1279.08 372.242 1262.48 397.551 1238.32 410.758L695.347 63.6085H690.341L1207.95 420.124C1205.33 420.382 1202.68 420.514 1200 420.514H80C78.4218 420.514 76.8542 420.468 75.2985 420.378L593.276 63.6087H588.27L43.664 411.805C18.9255 399.171 1.6323 374.039 0.10938 344.733L599.31 49.1098L598.285 46.8165L0 321.043V251.335L589.105 47.2068L588.081 44.9134L0 229.407V183.213L610.665 33.1007L609.64 30.8073L0 163.228V121.055L527.261 38.5671L526.237 36.2738L521.123 36.9375L521.136 35.6892L5.93287 50.0609C12.4566 34.1249 23.9738 20.7623 38.5389 11.9187L419.931 22.5464L420.807 20.2397L65.6986 1.62476C70.3389 0.787326 75.1184 0.350098 80 0.350098H1200C1205.16 0.350098 1210.21 0.838815 1215.1 1.7725L862.81 20.2395ZM1280 104.106L776.639 38.7732L1278.55 65.0984C1279.5 70.0356 1280 75.1346 1280 80.3501V104.106ZM0 80.35C0 75.202 0.486249 70.1676 1.41533 65.2902L506.978 38.7734L0 104.576V80.35ZM635.002 63.6087H640.008L590.777 420.513H545.719L635.002 63.6087ZM616.643 62.8273H621.649L443.918 420.513H398.859L616.643 62.8273ZM605.794 62.0464H610.8L275.363 420.513H230.305L605.794 62.0464ZM648.619 63.6085H643.613L692.844 420.513H737.902L648.619 63.6085ZM666.978 62.8271H661.972L839.703 420.513H884.762L666.978 62.8271ZM677.824 62.0464H672.817L1008.25 420.513H1053.31L677.824 62.0464Z" fill="url(#paint0_radial_1750_116724)"/>
<defs>
<radialGradient id="paint0_radial_1750_116724" cx="0" cy="0" r="1" gradientUnits="userSpaceOnUse" gradientTransform="translate(640 81.293) rotate(90) scale(339.221 1033.41)">
<stop stop-color="#030711" stop-opacity="0"/>
<stop offset="1" stop-color="#0294C0"/>
</radialGradient>
</defs>
</svg>
