<svg width="64" height="62" viewBox="0 0 64 62" fill="none" xmlns="http://www.w3.org/2000/svg">
<path fill-rule="evenodd" clip-rule="evenodd" d="M32.0027 0.5C33.3834 0.5 34.5027 1.61929 34.5027 3V8.78966C39.2741 8.85517 44.0435 9.10822 48.8 9.54881L49.9053 9.6512C57.4544 10.3505 63.2674 16.6193 63.3959 24.1996L63.4362 26.5779C63.593 35.8273 62.8474 45.07 61.2101 54.1747C60.4649 58.3182 56.8593 61.3333 52.6493 61.3333H51.9124C48.1241 61.3333 44.6917 59.1008 43.1558 55.6378L39.6204 47.6669C36.6904 41.0606 27.3151 41.0606 24.3851 47.6669L20.8497 55.6378C19.3138 59.1008 15.8814 61.3333 12.0931 61.3333H11.3562C7.14622 61.3333 3.54053 58.3182 2.79539 54.1747C1.15807 45.07 0.412498 35.8273 0.569261 26.5779L0.609567 24.1997C0.738041 16.6193 6.55108 10.3505 14.1002 9.6512L15.2055 9.54881C19.9619 9.10822 24.7314 8.85517 29.5027 8.78966V3C29.5027 1.61929 30.622 0.5 32.0027 0.5ZM48.6694 19.6667C48.6694 17.8257 47.177 16.3333 45.3361 16.3333C43.4951 16.3333 42.0027 17.8257 42.0027 19.6667V20.5C42.0027 22.3409 43.4951 23.8333 45.3361 23.8333C47.177 23.8333 48.6694 22.3409 48.6694 20.5V19.6667ZM18.6694 17.1667C20.0501 17.1667 21.1694 18.286 21.1694 19.6667V23.8333H25.3361C26.7168 23.8333 27.8361 24.9526 27.8361 26.3333C27.8361 27.714 26.7168 28.8333 25.3361 28.8333H21.1694V33C21.1694 34.3807 20.0501 35.5 18.6694 35.5C17.2887 35.5 16.1694 34.3807 16.1694 33V28.8333H12.0027C10.622 28.8333 9.50274 27.714 9.50274 26.3333C9.50274 24.9526 10.622 23.8333 12.0027 23.8333H16.1694V19.6667C16.1694 18.286 17.2887 17.1667 18.6694 17.1667ZM45.3361 28.8333C47.177 28.8333 48.6694 30.3257 48.6694 32.1667V33C48.6694 34.8409 47.177 36.3333 45.3361 36.3333C43.4951 36.3333 42.0027 34.8409 42.0027 33V32.1667C42.0027 30.3257 43.4951 28.8333 45.3361 28.8333ZM52.0027 29.6667C53.8437 29.6667 55.3361 28.1743 55.3361 26.3333C55.3361 24.4924 53.8437 23 52.0027 23H51.1694C49.3285 23 47.8361 24.4924 47.8361 26.3333C47.8361 28.1743 49.3285 29.6667 51.1694 29.6667H52.0027ZM42.8361 26.3333C42.8361 28.1743 41.3437 29.6667 39.5027 29.6667H38.6694C36.8285 29.6667 35.3361 28.1743 35.3361 26.3333C35.3361 24.4924 36.8285 23 38.6694 23H39.5027C41.3437 23 42.8361 24.4924 42.8361 26.3333Z" fill="#02BAF1"/>
</svg>
