<svg width="618" height="242" viewBox="0 0 618 242" fill="none" xmlns="http://www.w3.org/2000/svg">
<path d="M0.128906 41.1777H103.086V56.9931H0.128906" stroke="#FFBF31" stroke-width="3" stroke-miterlimit="10"/>
<path d="M0.128906 66.2341H103.086V82.0494H0.128906" stroke="#FFBF31" stroke-width="3" stroke-miterlimit="10"/>
<path d="M103.086 49.0879H152.44V74.1443H103.086" stroke="#FFBF31" stroke-width="3" stroke-miterlimit="10"/>
<path d="M0.128906 91.2905H103.086V107.106H0.128906" stroke="#FFBF31" stroke-width="3" stroke-miterlimit="10"/>
<path d="M0.128906 116.352H103.086V132.162H0.128906" stroke="#FFBF31" stroke-width="3" stroke-miterlimit="10"/>
<path d="M103.086 99.2007H152.44V124.257H103.086" stroke="#FFBF31" stroke-width="3" stroke-miterlimit="10"/>
<path d="M0.128906 149.313H103.086V165.129H0.128906" stroke="#FFBF31" stroke-width="3" stroke-miterlimit="10"/>
<path d="M0.128906 174.37H103.086V190.185H0.128906" stroke="#FFBF31" stroke-width="3" stroke-miterlimit="10"/>
<path d="M103.086 157.219H152.44V182.275H103.086" stroke="#FFBF31" stroke-width="3" stroke-miterlimit="10"/>
<path d="M0.128906 199.426H103.086V215.241H0.128906" stroke="#FFBF31" stroke-width="3" stroke-miterlimit="10"/>
<path d="M0.128906 224.482H103.086V240.298H0.128906" stroke="#FFBF31" stroke-width="3" stroke-miterlimit="10"/>
<path d="M103.086 207.331H152.44V232.388H103.086" stroke="#FFBF31" stroke-width="3" stroke-miterlimit="10"/>
<path d="M152.441 61.6138H201.62V111.727H152.441" stroke="#FFBF31" stroke-width="3" stroke-miterlimit="10"/>
<path d="M152.441 169.749H201.62V219.862H152.441" stroke="#FFBF31" stroke-width="3" stroke-miterlimit="10"/>
<path d="M201.621 86.6702H255.415V194.806H201.621" stroke="#FFBF31" stroke-width="3" stroke-miterlimit="10"/>
<path d="M617.876 41.1777H514.918V56.9931H617.876" stroke="#FF5533" stroke-width="3" stroke-miterlimit="10"/>
<path d="M617.876 66.2341H514.918V82.0494H617.876" stroke="#FF5533" stroke-width="3" stroke-miterlimit="10"/>
<path d="M514.917 49.0879H465.562V74.1443H514.917" stroke="#FF5533" stroke-width="3" stroke-miterlimit="10"/>
<path d="M617.876 91.2905H514.918V107.106H617.876" stroke="#FF5533" stroke-width="3" stroke-miterlimit="10"/>
<path d="M617.876 116.352H514.918V132.162H617.876" stroke="#FF5533" stroke-width="3" stroke-miterlimit="10"/>
<path d="M514.917 99.2007H465.562V124.257H514.917" stroke="#FF5533" stroke-width="3" stroke-miterlimit="10"/>
<path d="M617.876 149.313H514.918V165.129H617.876" stroke="#FF5533" stroke-width="3" stroke-miterlimit="10"/>
<path d="M617.876 174.37H514.918V190.185H617.876" stroke="#FF5533" stroke-width="3" stroke-miterlimit="10"/>
<path d="M514.917 157.219H465.562V182.275H514.917" stroke="#FF5533" stroke-width="3" stroke-miterlimit="10"/>
<path d="M617.876 199.426H514.918V215.241H617.876" stroke="#FF5533" stroke-width="3" stroke-miterlimit="10"/>
<path d="M617.876 224.482H514.918V240.298H617.876" stroke="#FF5533" stroke-width="3" stroke-miterlimit="10"/>
<path d="M514.917 207.331H465.562V232.388H514.917" stroke="#FF5533" stroke-width="3" stroke-miterlimit="10"/>
<path d="M465.561 61.6138H416.383V111.727H465.561" stroke="#FF5533" stroke-width="3" stroke-miterlimit="10"/>
<path d="M465.561 169.749H416.383V219.862H465.561" stroke="#FF5533" stroke-width="3" stroke-miterlimit="10"/>
<path d="M416.384 194.806H362.59V86.6702H416.384" stroke="#FF5533" stroke-width="3" stroke-miterlimit="10"/>
<path d="M281.367 138.445H255.414" stroke="#FFBF31" stroke-width="3" stroke-miterlimit="10"/>
<path d="M362.585 138.445H337.637" stroke="#FF5533" stroke-width="3" stroke-miterlimit="10"/>
<path d="M337.528 132.227H280.473V144.339H337.528V132.227Z" stroke="#02BAF1" stroke-width="3" stroke-miterlimit="10"/>
<path d="M291.669 23.5912C289.996 24.2095 288.468 24.9551 287.226 25.8583L285.965 22.7061C287.214 21.8999 288.723 21.1603 290.445 20.5117L291.669 23.5912Z" fill="#1D5E82"/>
<path d="M313.988 83.2649V109.671C312.594 109.489 310.939 109.374 308.999 109.374C307.053 109.374 305.404 109.489 304.004 109.671V83.2649L306.908 84.4227H311.078L313.988 83.2649Z" fill="#1D5E82"/>
<path d="M332.036 22.7003L330.781 25.8524C329.539 24.9553 328.005 24.2036 326.332 23.5853L327.557 20.5059C329.266 21.1484 330.763 21.8819 332.036 22.7003Z" fill="#1D5E82"/>
<path d="M304.011 83.2648V88.6114L302.356 87.9507L269.391 74.7781L255 59.2353L262.038 17.1413L283.994 0.519531L296.33 12.6858L290.432 20.4572L290.456 20.5118C288.735 21.1604 287.225 21.8999 285.976 22.7062L284.776 19.6934L289.729 13.1647L283.57 7.08461L266.621 19.9177L260.316 57.6653L272.283 70.5954L295.348 79.8216L300.937 82.0524L302.362 82.6223L304.011 83.2648Z" fill="#1D5E82"/>
<path d="M363.001 59.2355L348.616 74.7783L315.651 87.9509L313.996 88.6116V83.265L315.651 82.6043L317.076 82.0345L322.665 79.8037L345.73 70.5774L357.703 57.6473L351.392 19.8997L334.449 7.06661L328.284 13.1467L333.237 19.6754L332.036 22.7003C330.763 21.882 329.272 21.1485 327.557 20.5059L327.581 20.4514L321.689 12.68L334.019 0.513672L355.975 17.1355L363.001 59.2355Z" fill="#1D5E82"/>
<path d="M336.175 35.1758L322.59 74.0995L317.074 82.0345L313.994 83.2651L311.091 84.4229H306.92L304.017 83.2651L300.937 82.0345L295.421 74.0995L281.836 35.1758L285.643 27.6287L286.019 26.8831C286.243 26.6588 286.485 26.4406 286.746 26.2284C286.904 26.1011 287.067 25.9738 287.237 25.8526C288.48 24.9493 290.007 24.2037 291.68 23.5854C294.948 22.373 298.761 21.6517 301.968 21.2152C305.944 20.6818 309.012 20.5908 309.012 20.5908C309.012 20.5908 312.079 20.6818 316.056 21.2152C319.256 21.6517 323.069 22.373 326.337 23.5854C328.01 24.2037 329.543 24.9554 330.786 25.8526C330.956 25.9738 331.119 26.1011 331.271 26.2284C331.532 26.4406 331.774 26.6527 331.998 26.8831L332.374 27.6348L336.175 35.1758Z" fill="#02BAF1"/>
<path d="M316.045 21.2213C312.068 20.6879 309.001 20.5969 309.001 20.5969C309.001 20.5969 305.934 20.6879 301.957 21.2213L302.733 19.4512L302.8 19.3057C303.127 18.5541 303.606 17.8933 304.194 17.3478C304.782 16.8082 305.479 16.3839 306.255 16.1172C307.146 15.8141 308.074 15.6565 309.001 15.6565C309.928 15.6565 310.856 15.8141 311.741 16.1172C313.287 16.6506 314.548 17.8085 315.202 19.3118L315.269 19.4573L316.045 21.2213Z" fill="#1D5E82"/>
<path d="M319.105 127.014C318.856 128.857 319.135 130.736 319.905 132.433L320.887 134.591C321.015 134.87 320.869 135.179 320.578 135.264C319.323 135.604 315.795 136.349 309 136.349C302.198 136.349 298.67 135.604 297.415 135.264C297.131 135.179 296.985 134.864 297.106 134.591L298.094 132.433C298.87 130.736 299.143 128.863 298.889 127.014L296.997 113.193C296.906 112.568 297.191 111.944 297.725 111.611C298.688 110.998 300.592 110.132 303.999 109.671C305.393 109.489 307.048 109.374 308.994 109.374C310.934 109.374 312.582 109.489 313.983 109.671C317.389 110.132 319.299 110.998 320.263 111.611C320.79 111.95 321.075 112.574 320.99 113.193L319.105 127.014Z" fill="#1D5E82"/>
<path d="M332.368 27.6346L332.241 27.671C331.859 27.7923 322.827 30.5444 309 30.5444C295.166 30.5444 286.134 27.7923 285.758 27.671L285.625 27.6286L286.001 26.883C286.225 26.6587 286.468 26.4404 286.728 26.2283C288.777 26.792 297.197 28.8834 309 28.8834C320.796 28.8834 329.216 26.792 331.265 26.2283C331.526 26.4404 331.768 26.6526 331.993 26.883L332.368 27.6346Z" fill="#1D5E82"/>
<path d="M291.669 23.5914C289.996 24.2097 288.468 24.9554 287.226 25.8586L285.965 22.7064C287.214 21.9001 288.723 21.1606 290.445 20.512L291.669 23.5914Z" fill="#001F29"/>
<path d="M332.036 22.7005L330.781 25.8527C329.539 24.9555 328.005 24.2039 326.332 23.5855L327.557 20.5061C329.266 21.1487 330.763 21.8822 332.036 22.7005Z" fill="#001F29"/>
<path d="M316.045 21.2211C312.068 20.6877 309.001 20.5968 309.001 20.5968C309.001 20.5968 305.934 20.6877 301.957 21.2211L302.733 19.451C306.249 19.0206 308.837 18.9419 308.952 18.9358H309.049C309.165 18.9419 311.753 19.0206 315.269 19.451L316.045 21.2211Z" fill="#001F29"/>
<path d="M313.992 108.004V109.671C312.598 109.489 310.943 109.374 309.003 109.374C307.057 109.374 305.408 109.489 304.008 109.671V108.004C305.541 107.81 307.215 107.719 309.003 107.719C310.785 107.719 312.464 107.81 313.992 108.004Z" fill="#001F29"/>
<path d="M302.352 82.6042L304.013 83.265V88.6116L302.352 87.9509V82.6042Z" fill="#001F29"/>
<path d="M315.647 82.604V87.9506L313.992 88.6114V83.2648L315.647 82.604Z" fill="#001F29"/>
</svg>
