<svg width="446" height="281" viewBox="0 0 446 281" fill="none" xmlns="http://www.w3.org/2000/svg">
<g opacity="0.5">
<ellipse cx="1.41417" cy="1.42684" rx="1.41417" ry="1.42684" transform="matrix(-0.721009 0.692926 -0.718806 -0.695211 445.125 144.836)" fill="#02BAF1"/>
<ellipse cx="1.41417" cy="1.42684" rx="1.41417" ry="1.42684" transform="matrix(-0.721009 0.692926 -0.718806 -0.695211 436.918 136.901)" fill="#02BAF1"/>
<ellipse cx="1.41417" cy="1.42684" rx="1.41417" ry="1.42684" transform="matrix(-0.721009 0.692926 -0.718806 -0.695211 428.715 128.965)" fill="#02BAF1"/>
<ellipse cx="1.41417" cy="1.42684" rx="1.41417" ry="1.42684" transform="matrix(-0.721009 0.692926 -0.718806 -0.695211 420.508 121.03)" fill="#02BAF1"/>
<ellipse cx="1.41417" cy="1.42684" rx="1.41417" ry="1.42684" transform="matrix(-0.721009 0.692926 -0.718806 -0.695211 412.305 113.094)" fill="#02BAF1"/>
<ellipse cx="1.41417" cy="1.42684" rx="1.41417" ry="1.42684" transform="matrix(-0.721009 0.692926 -0.718806 -0.695211 404.098 105.158)" fill="#02BAF1"/>
<ellipse cx="2.82833" cy="2.85368" rx="2.82833" ry="2.85368" transform="matrix(-0.721009 0.692925 -0.718806 -0.695211 322.348 115.574)" fill="#02BAF1"/>
<ellipse cx="2.82833" cy="2.85368" rx="2.82833" ry="2.85368" transform="matrix(-0.721009 0.692925 -0.718806 -0.695211 437.086 159.388)" fill="#02BAF1"/>
<ellipse cx="2.82833" cy="2.85368" rx="2.82833" ry="2.85368" transform="matrix(-0.721009 0.692925 -0.718806 -0.695211 420.668 143.516)" fill="#02BAF1"/>
<ellipse cx="2.82833" cy="2.85368" rx="2.82833" ry="2.85368" transform="matrix(-0.721009 0.692925 -0.718806 -0.695211 404.262 127.646)" fill="#02BAF1"/>
<ellipse cx="2.82833" cy="2.85368" rx="2.82833" ry="2.85368" transform="matrix(-0.721009 0.692925 -0.718806 -0.695211 387.852 111.773)" fill="#02BAF1"/>
<ellipse cx="2.82833" cy="2.85368" rx="2.82833" ry="2.85368" transform="matrix(-0.721009 0.692925 -0.718806 -0.695211 371.441 95.9031)" fill="#02BAF1"/>
<ellipse cx="4.24251" cy="4.28052" rx="4.24251" ry="4.28052" transform="matrix(-0.721009 0.692926 -0.718806 -0.695211 404.562 217.419)" fill="#02BAF1"/>
<ellipse cx="4.24251" cy="4.28052" rx="4.24251" ry="4.28052" transform="matrix(-0.721009 0.692926 -0.718806 -0.695211 379.938 193.611)" fill="#02BAF1"/>
<ellipse cx="4.24251" cy="4.28052" rx="4.24251" ry="4.28052" transform="matrix(-0.721009 0.692926 -0.718806 -0.695211 355.328 169.805)" fill="#02BAF1"/>
<ellipse cx="4.24251" cy="4.28052" rx="4.24251" ry="4.28052" transform="matrix(-0.721009 0.692926 -0.718806 -0.695211 330.707 145.997)" fill="#02BAF1"/>
<ellipse cx="4.24251" cy="4.28052" rx="4.24251" ry="4.28052" transform="matrix(-0.721009 0.692926 -0.718806 -0.695211 445.449 189.812)" fill="#02BAF1"/>
<ellipse cx="4.24251" cy="4.28052" rx="4.24251" ry="4.28052" transform="matrix(-0.721009 0.692926 -0.718806 -0.695211 420.82 166.004)" fill="#02BAF1"/>
<ellipse cx="4.24251" cy="4.28052" rx="4.24251" ry="4.28052" transform="matrix(-0.721009 0.692926 -0.718806 -0.695211 396.215 142.197)" fill="#02BAF1"/>
<ellipse cx="4.24251" cy="4.28052" rx="4.24251" ry="4.28052" transform="matrix(-0.721009 0.692926 -0.718806 -0.695211 371.602 118.389)" fill="#02BAF1"/>
<ellipse cx="4.24251" cy="4.28052" rx="4.24251" ry="4.28052" transform="matrix(-0.721009 0.692926 -0.718806 -0.695211 346.984 94.5833)" fill="#02BAF1"/>
<ellipse cx="1.41417" cy="1.42684" rx="1.41417" ry="1.42684" transform="matrix(-0.721009 0.692926 -0.718806 -0.695211 431.27 204.328)" fill="#02BAF1"/>
<ellipse cx="1.41417" cy="1.42684" rx="1.41417" ry="1.42684" transform="matrix(-0.721009 0.692926 -0.718806 -0.695211 423.066 196.392)" fill="#02BAF1"/>
<ellipse cx="1.41417" cy="1.42684" rx="1.41417" ry="1.42684" transform="matrix(-0.721009 0.692926 -0.718806 -0.695211 414.859 188.457)" fill="#02BAF1"/>
<ellipse cx="1.41417" cy="1.42684" rx="1.41417" ry="1.42684" transform="matrix(-0.721009 0.692926 -0.718806 -0.695211 406.656 180.521)" fill="#02BAF1"/>
<ellipse cx="1.41417" cy="1.42684" rx="1.41417" ry="1.42684" transform="matrix(-0.721009 0.692926 -0.718806 -0.695211 398.453 172.585)" fill="#02BAF1"/>
<ellipse cx="1.41417" cy="1.42684" rx="1.41417" ry="1.42684" transform="matrix(-0.721009 0.692926 -0.718806 -0.695211 390.242 164.65)" fill="#02BAF1"/>
<ellipse cx="1.41417" cy="1.42684" rx="1.41417" ry="1.42684" transform="matrix(-0.721009 0.692926 -0.718806 -0.695211 382.039 156.714)" fill="#02BAF1"/>
<ellipse cx="1.41417" cy="1.42684" rx="1.41417" ry="1.42684" transform="matrix(-0.721009 0.692926 -0.718806 -0.695211 373.832 148.778)" fill="#02BAF1"/>
<ellipse cx="1.41417" cy="1.42684" rx="1.41417" ry="1.42684" transform="matrix(-0.721009 0.692926 -0.718806 -0.695211 365.633 140.842)" fill="#02BAF1"/>
<ellipse cx="1.41417" cy="1.42684" rx="1.41417" ry="1.42684" transform="matrix(-0.721009 0.692926 -0.718806 -0.695211 357.426 132.908)" fill="#02BAF1"/>
<ellipse cx="1.41417" cy="1.42684" rx="1.41417" ry="1.42684" transform="matrix(-0.721009 0.692926 -0.718806 -0.695211 349.219 124.971)" fill="#02BAF1"/>
<ellipse cx="1.41417" cy="1.42684" rx="1.41417" ry="1.42684" transform="matrix(-0.721009 0.692926 -0.718806 -0.695211 404.773 202.997)" fill="#02BAF1"/>
<ellipse cx="1.41417" cy="1.42684" rx="1.41417" ry="1.42684" transform="matrix(-0.721009 0.692926 -0.718806 -0.695211 396.57 195.06)" fill="#02BAF1"/>
<ellipse cx="1.41417" cy="1.42684" rx="1.41417" ry="1.42684" transform="matrix(-0.721009 0.692926 -0.718806 -0.695211 388.363 187.126)" fill="#02BAF1"/>
<ellipse cx="1.41417" cy="1.42684" rx="1.41417" ry="1.42684" transform="matrix(-0.721009 0.692926 -0.718806 -0.695211 380.156 179.19)" fill="#02BAF1"/>
<ellipse cx="1.41417" cy="1.42684" rx="1.41417" ry="1.42684" transform="matrix(-0.721009 0.692926 -0.718806 -0.695211 371.953 171.255)" fill="#02BAF1"/>
<ellipse cx="1.41417" cy="1.42684" rx="1.41417" ry="1.42684" transform="matrix(-0.721009 0.692926 -0.718806 -0.695211 363.746 163.319)" fill="#02BAF1"/>
<ellipse cx="1.41417" cy="1.42684" rx="1.41417" ry="1.42684" transform="matrix(-0.721009 0.692926 -0.718806 -0.695211 355.543 155.384)" fill="#02BAF1"/>
<ellipse cx="1.41417" cy="1.42684" rx="1.41417" ry="1.42684" transform="matrix(-0.721009 0.692926 -0.718806 -0.695211 347.34 147.448)" fill="#02BAF1"/>
<ellipse cx="1.41417" cy="1.42684" rx="1.41417" ry="1.42684" transform="matrix(-0.721009 0.692926 -0.718806 -0.695211 339.133 139.511)" fill="#02BAF1"/>
<ellipse cx="1.41417" cy="1.42684" rx="1.41417" ry="1.42684" transform="matrix(-0.721009 0.692926 -0.718806 -0.695211 330.926 131.575)" fill="#02BAF1"/>
</g>
<g opacity="0.5">
<ellipse cx="1.41417" cy="1.42684" rx="1.41417" ry="1.42684" transform="matrix(-0.721009 0.692926 -0.718806 -0.695211 133.477 115.862)" fill="#02BAF1"/>
<ellipse cx="1.41417" cy="1.42684" rx="1.41417" ry="1.42684" transform="matrix(-0.721009 0.692926 -0.718806 -0.695211 125.27 107.927)" fill="#02BAF1"/>
<ellipse cx="1.41417" cy="1.42684" rx="1.41417" ry="1.42684" transform="matrix(-0.721009 0.692926 -0.718806 -0.695211 117.066 99.9907)" fill="#02BAF1"/>
<ellipse cx="1.41417" cy="1.42684" rx="1.41417" ry="1.42684" transform="matrix(-0.721009 0.692926 -0.718806 -0.695211 108.859 92.0544)" fill="#02BAF1"/>
<ellipse cx="1.41417" cy="1.42684" rx="1.41417" ry="1.42684" transform="matrix(-0.721009 0.692926 -0.718806 -0.695211 100.656 84.1191)" fill="#02BAF1"/>
<ellipse cx="1.41417" cy="1.42684" rx="1.41417" ry="1.42684" transform="matrix(-0.721009 0.692926 -0.718806 -0.695211 92.4492 76.1836)" fill="#02BAF1"/>
<ellipse cx="2.82833" cy="2.85368" rx="2.82833" ry="2.85368" transform="matrix(-0.721009 0.692925 -0.718806 -0.695211 10.6992 86.5989)" fill="#02BAF1"/>
<ellipse cx="2.82833" cy="2.85368" rx="2.82833" ry="2.85368" transform="matrix(-0.721009 0.692925 -0.718806 -0.695211 125.438 130.413)" fill="#02BAF1"/>
<ellipse cx="2.82833" cy="2.85368" rx="2.82833" ry="2.85368" transform="matrix(-0.721009 0.692925 -0.718806 -0.695211 109.023 114.542)" fill="#02BAF1"/>
<ellipse cx="2.82833" cy="2.85368" rx="2.82833" ry="2.85368" transform="matrix(-0.721009 0.692925 -0.718806 -0.695211 92.6133 98.6719)" fill="#02BAF1"/>
<ellipse cx="2.82833" cy="2.85368" rx="2.82833" ry="2.85368" transform="matrix(-0.721009 0.692925 -0.718806 -0.695211 76.2031 82.7986)" fill="#02BAF1"/>
<ellipse cx="2.82833" cy="2.85368" rx="2.82833" ry="2.85368" transform="matrix(-0.721009 0.692925 -0.718806 -0.695211 59.793 66.928)" fill="#02BAF1"/>
<ellipse cx="4.24251" cy="4.28052" rx="4.24251" ry="4.28052" transform="matrix(-0.721009 0.692926 -0.718806 -0.695211 92.9141 188.444)" fill="#02BAF1"/>
<ellipse cx="4.24251" cy="4.28052" rx="4.24251" ry="4.28052" transform="matrix(-0.721009 0.692926 -0.718806 -0.695211 68.2891 164.637)" fill="#02BAF1"/>
<ellipse cx="4.24251" cy="4.28052" rx="4.24251" ry="4.28052" transform="matrix(-0.721009 0.692926 -0.718806 -0.695211 43.6797 140.83)" fill="#02BAF1"/>
<ellipse cx="4.24251" cy="4.28052" rx="4.24251" ry="4.28052" transform="matrix(-0.721009 0.692926 -0.718806 -0.695211 19.0547 117.022)" fill="#02BAF1"/>
<ellipse cx="4.24251" cy="4.28052" rx="4.24251" ry="4.28052" transform="matrix(-0.721009 0.692926 -0.718806 -0.695211 133.801 160.838)" fill="#02BAF1"/>
<ellipse cx="4.24251" cy="4.28052" rx="4.24251" ry="4.28052" transform="matrix(-0.721009 0.692926 -0.718806 -0.695211 109.176 137.029)" fill="#02BAF1"/>
<ellipse cx="4.24251" cy="4.28052" rx="4.24251" ry="4.28052" transform="matrix(-0.721009 0.692926 -0.718806 -0.695211 84.5664 113.223)" fill="#02BAF1"/>
<ellipse cx="4.24251" cy="4.28052" rx="4.24251" ry="4.28052" transform="matrix(-0.721009 0.692926 -0.718806 -0.695211 59.9531 89.4146)" fill="#02BAF1"/>
<ellipse cx="4.24251" cy="4.28052" rx="4.24251" ry="4.28052" transform="matrix(-0.721009 0.692926 -0.718806 -0.695211 35.3359 65.6082)" fill="#02BAF1"/>
<ellipse cx="1.41417" cy="1.42684" rx="1.41417" ry="1.42684" transform="matrix(-0.721009 0.692926 -0.718806 -0.695211 119.621 175.354)" fill="#02BAF1"/>
<ellipse cx="1.41417" cy="1.42684" rx="1.41417" ry="1.42684" transform="matrix(-0.721009 0.692926 -0.718806 -0.695211 111.418 167.417)" fill="#02BAF1"/>
<ellipse cx="1.41417" cy="1.42684" rx="1.41417" ry="1.42684" transform="matrix(-0.721009 0.692926 -0.718806 -0.695211 103.211 159.482)" fill="#02BAF1"/>
<ellipse cx="1.41417" cy="1.42684" rx="1.41417" ry="1.42684" transform="matrix(-0.721009 0.692926 -0.718806 -0.695211 95.0039 151.546)" fill="#02BAF1"/>
<ellipse cx="1.41417" cy="1.42684" rx="1.41417" ry="1.42684" transform="matrix(-0.721009 0.692926 -0.718806 -0.695211 86.8047 143.611)" fill="#02BAF1"/>
<ellipse cx="1.41417" cy="1.42684" rx="1.41417" ry="1.42684" transform="matrix(-0.721009 0.692926 -0.718806 -0.695211 78.5938 135.675)" fill="#02BAF1"/>
<ellipse cx="1.41417" cy="1.42684" rx="1.41417" ry="1.42684" transform="matrix(-0.721009 0.692926 -0.718806 -0.695211 70.3945 127.739)" fill="#02BAF1"/>
<ellipse cx="1.41417" cy="1.42684" rx="1.41417" ry="1.42684" transform="matrix(-0.721009 0.692926 -0.718806 -0.695211 62.1875 119.804)" fill="#02BAF1"/>
<ellipse cx="1.41417" cy="1.42684" rx="1.41417" ry="1.42684" transform="matrix(-0.721009 0.692926 -0.718806 -0.695211 53.9844 111.867)" fill="#02BAF1"/>
<ellipse cx="1.41417" cy="1.42684" rx="1.41417" ry="1.42684" transform="matrix(-0.721009 0.692926 -0.718806 -0.695211 45.7773 103.933)" fill="#02BAF1"/>
<ellipse cx="1.41417" cy="1.42684" rx="1.41417" ry="1.42684" transform="matrix(-0.721009 0.692926 -0.718806 -0.695211 37.5703 95.9961)" fill="#02BAF1"/>
<ellipse cx="1.41417" cy="1.42684" rx="1.41417" ry="1.42684" transform="matrix(-0.721009 0.692926 -0.718806 -0.695211 93.125 174.022)" fill="#02BAF1"/>
<ellipse cx="1.41417" cy="1.42684" rx="1.41417" ry="1.42684" transform="matrix(-0.721009 0.692926 -0.718806 -0.695211 84.9219 166.086)" fill="#02BAF1"/>
<ellipse cx="1.41417" cy="1.42684" rx="1.41417" ry="1.42684" transform="matrix(-0.721009 0.692926 -0.718806 -0.695211 76.7148 158.151)" fill="#02BAF1"/>
<ellipse cx="1.41417" cy="1.42684" rx="1.41417" ry="1.42684" transform="matrix(-0.721009 0.692926 -0.718806 -0.695211 68.5078 150.215)" fill="#02BAF1"/>
<ellipse cx="1.41417" cy="1.42684" rx="1.41417" ry="1.42684" transform="matrix(-0.721009 0.692926 -0.718806 -0.695211 60.3047 142.28)" fill="#02BAF1"/>
<ellipse cx="1.41417" cy="1.42684" rx="1.41417" ry="1.42684" transform="matrix(-0.721009 0.692926 -0.718806 -0.695211 52.0977 134.344)" fill="#02BAF1"/>
<ellipse cx="1.41417" cy="1.42684" rx="1.41417" ry="1.42684" transform="matrix(-0.721009 0.692926 -0.718806 -0.695211 43.8945 126.409)" fill="#02BAF1"/>
<ellipse cx="1.41417" cy="1.42684" rx="1.41417" ry="1.42684" transform="matrix(-0.721009 0.692926 -0.718806 -0.695211 35.6914 118.473)" fill="#02BAF1"/>
<ellipse cx="1.41417" cy="1.42684" rx="1.41417" ry="1.42684" transform="matrix(-0.721009 0.692926 -0.718806 -0.695211 27.4844 110.536)" fill="#02BAF1"/>
<ellipse cx="1.41417" cy="1.42684" rx="1.41417" ry="1.42684" transform="matrix(-0.721009 0.692926 -0.718806 -0.695211 19.2773 102.601)" fill="#02BAF1"/>
</g>
<path d="M9.99143 136.988V148.928L0.546875 150.854L9.99143 157.787L7.34695 168.572L15.6582 160.098L32.2806 168.572L21.7027 155.091L34.1695 146.617L17.5471 148.928L9.99143 136.988Z" fill="url(#paint0_linear_1750_116283)"/>
<path d="M261.802 121.214V124.68L259.227 125.24L261.802 127.253L261.081 130.384L263.348 127.923L267.881 130.384L264.996 126.47L268.396 124.01L263.863 124.68L261.802 121.214Z" fill="#5DDAFF"/>
<path d="M24.4039 32.5723V36.0389L21.8281 36.598L24.4039 38.6109L23.6827 41.7421L25.9494 39.2819L30.4828 41.7421L27.5979 37.8281L30.9979 35.3679L26.4645 36.0389L24.4039 32.5723Z" fill="#5DDAFF"/>
<path d="M334.103 15.2517V18.7183L331.527 19.2775L334.103 21.2904L333.382 24.4215L335.649 21.9613L340.182 24.4215L337.297 20.5076L340.697 18.0474L336.164 18.7183L334.103 15.2517Z" fill="#FBC44B"/>
<path d="M367.49 271.275V274.742L364.914 275.301L367.49 277.314L366.769 280.445L369.035 277.985L373.569 280.445L370.684 276.531L374.084 274.071L369.55 274.742L367.49 271.275Z" fill="#54F297"/>
<path d="M11.1344 212.889V216.356L8.55859 216.915L11.1344 218.928L10.4132 222.059L12.6799 219.599L17.2132 222.059L14.3284 218.145L17.7284 215.685L13.195 216.356L11.1344 212.889Z" fill="#8EBEFF"/>
<path d="M190.756 115.101L181.793 137.508L201.399 124.624L190.756 115.101Z" fill="#5DDAFF"/>
<path d="M404.815 30.388L381.023 26.3378L397.743 42.7962L404.815 30.388Z" fill="#5DDAFF"/>
<path d="M46.6673 191.588L58.0071 200.557L43.9775 199.71L46.6673 191.588Z" fill="#02BAF1"/>
<path d="M302.83 253.667L293.867 276.074L313.474 263.19L302.83 253.667Z" fill="#54F297"/>
<path d="M239.657 268.888L227.684 259.195L231.842 273.581L239.657 268.888Z" fill="#EB5757"/>
<path d="M82.1248 18.6486L97.4251 20.0961L84.4196 27.4493L82.1248 18.6486Z" fill="#FBC44B"/>
<path d="M86.7164 262.614L98.3992 253.156L94.3421 267.194L86.7164 262.614Z" fill="#54F297"/>
<path d="M131.252 128.154L139.665 143.19L124.596 135.877L131.252 128.154Z" fill="#54F297"/>
<path d="M14.0971 245.971L23.2743 232.716L8.58615 238.183L14.0971 245.971Z" fill="#EB5757"/>
<path d="M163.982 10.2236L158.754 23.668L159.501 0.513727L163.982 10.2236Z" fill="#02BAF1"/>
<path d="M178.921 6.48902L158.754 23.668L163.982 10.2236L178.921 6.48902Z" fill="#1D5E82"/>
<path d="M159.5 0.514767L163.981 10.2246L178.92 6.49005L159.5 0.514767Z" fill="#001F29"/>
<path d="M175.68 260.855L185.449 249.89L175.15 271.652L175.68 260.855Z" fill="#02BAF1"/>
<path d="M162.307 259.202L185.449 249.89L175.68 260.855L162.307 259.202Z" fill="#1D5E82"/>
<path d="M175.151 271.652L175.681 260.855L162.308 259.202L175.151 271.652Z" fill="#001F29"/>
<path d="M140.848 60.6019V60.6069L142.139 114.963C142.592 114.235 143.001 113.573 143.364 112.975C144.675 110.837 145.407 109.581 145.407 109.581C149.533 106.044 154.71 103.074 159.488 100.767C159.488 100.767 159.488 100.767 159.493 100.767C166.942 97.1796 173.42 95.2065 173.42 95.2065C173.42 95.2065 178.512 96.2728 180.919 101.031C181.048 101.275 181.163 101.529 181.273 101.794L180.176 108.102C179.872 109.846 179.14 111.485 178.039 112.875L163.275 131.58L161.825 133.419C161.825 133.419 161.636 133.942 161.252 134.799L163.938 134.664L170.5 134.335L194.726 133.12L269.725 129.358L293.318 128.172L296.093 109.562C292.75 103.627 286.531 92.4959 285.091 89.3319C283.497 85.8192 283.766 80.8764 286.277 77.8071C286.895 77.0497 287.647 76.4069 288.544 75.9286C290.313 74.9819 292.172 74.5384 293.696 74.3391C295.585 74.095 297.493 74.5633 299.038 75.6695L309.053 82.8246L307.349 54.6526L305.859 54.558C301.649 53.9252 298.534 53.0134 296.247 51.957L142.124 60.592L140.773 60.6667" fill="#FFBF31"/>
<g opacity="0.4">
<mask id="mask0_1750_116283" style="mask-type:luminance" maskUnits="userSpaceOnUse" x="140" y="51" width="170" height="84">
<path d="M140.848 60.601V60.6059L142.139 114.962C142.592 114.234 143.001 113.572 143.364 112.974C144.675 110.836 145.407 109.581 145.407 109.581C149.533 106.043 154.71 103.073 159.488 100.766C159.488 100.766 159.488 100.766 159.493 100.766C166.942 97.1787 173.42 95.2055 173.42 95.2055C173.42 95.2055 178.512 96.2718 180.919 101.03C181.048 101.274 181.163 101.529 181.273 101.793L180.176 108.101C179.872 109.845 179.14 111.484 178.039 112.874L163.275 131.579L161.825 133.418C161.825 133.418 161.636 133.941 161.252 134.798L163.938 134.663L170.5 134.334L194.726 133.119L269.725 129.357L293.318 128.171L296.093 109.561C292.75 103.626 286.531 92.495 285.091 89.331C283.497 85.8182 283.766 80.8754 286.277 77.8061C286.895 77.0487 287.647 76.406 288.544 75.9276C290.313 74.9809 292.172 74.5375 293.696 74.3382C295.585 74.094 297.493 74.5624 299.038 75.6685L309.053 82.8236L307.349 54.6517L305.859 54.557C301.649 53.9242 298.534 53.0124 296.247 51.9561L142.124 60.591L140.773 60.6657" fill="white"/>
</mask>
<g mask="url(#mask0_1750_116283)">
<path fill-rule="evenodd" clip-rule="evenodd" d="M226.393 93.3771L199.387 -4.79629C203.677 -5.97718 208.037 -6.87407 212.431 -7.48195C216.826 -8.08984 221.266 -8.41371 225.715 -8.4436L226.393 93.3771Z" fill="#7A0509"/>
<path fill-rule="evenodd" clip-rule="evenodd" d="M226.396 93.3779L153.918 21.8618C157.042 18.6928 160.371 15.7381 163.873 13.0126C167.376 10.287 171.058 7.79074 174.9 5.53857L226.396 93.3779Z" fill="#7A0509"/>
<path fill-rule="evenodd" clip-rule="evenodd" d="M226.393 93.3778L127.871 67.6822C128.992 63.3772 130.397 59.1569 132.066 55.0412C133.736 50.9305 135.679 46.9244 137.876 43.0579L226.393 93.3778Z" fill="#7A0509"/>
<path fill-rule="evenodd" clip-rule="evenodd" d="M226.395 93.3767L128.222 120.388C127.041 116.098 126.144 111.738 125.536 107.343C124.928 102.943 124.604 98.5088 124.574 94.0593L226.395 93.3767Z" fill="#7A0509"/>
<path fill-rule="evenodd" clip-rule="evenodd" d="M226.394 93.3772L154.878 165.855C151.709 162.731 148.754 159.402 146.029 155.9C143.303 152.397 140.807 148.715 138.555 144.873L226.394 93.3772Z" fill="#7A0509"/>
<path fill-rule="evenodd" clip-rule="evenodd" d="M226.394 93.3774L200.699 191.9C196.393 190.778 192.173 189.373 188.058 187.704C183.947 186.035 179.941 184.092 176.074 181.894L226.394 93.3774Z" fill="#7A0509"/>
<path fill-rule="evenodd" clip-rule="evenodd" d="M226.395 93.3772L253.406 191.551C249.115 192.731 244.761 193.628 240.361 194.236C235.961 194.844 231.527 195.168 227.077 195.198L226.395 93.3772Z" fill="#7A0509"/>
<path fill-rule="evenodd" clip-rule="evenodd" d="M226.395 93.3772L298.872 164.893C295.748 168.062 292.42 171.017 288.917 173.743C285.414 176.468 281.732 178.964 277.89 181.216L226.395 93.3772Z" fill="#7A0509"/>
<path fill-rule="evenodd" clip-rule="evenodd" d="M226.395 93.3772L324.917 119.073C323.796 123.378 322.39 127.598 320.721 131.714C319.052 135.824 317.109 139.831 314.911 143.697L226.395 93.3772Z" fill="#7A0509"/>
<path fill-rule="evenodd" clip-rule="evenodd" d="M226.395 93.3777L324.568 66.3667C325.749 70.6568 326.646 75.0116 327.254 79.4113C327.861 83.811 328.185 88.2455 328.215 92.6951L226.395 93.3777Z" fill="#7A0509"/>
<path fill-rule="evenodd" clip-rule="evenodd" d="M226.395 93.377L297.911 20.8992C301.08 24.0233 304.034 27.3517 306.76 30.8545C309.485 34.3573 311.982 38.0395 314.234 41.8811L226.395 93.377Z" fill="#7A0509"/>
<path fill-rule="evenodd" clip-rule="evenodd" d="M226.395 93.3772L252.09 -5.14502C256.395 -4.02392 260.615 -2.61882 264.731 -0.949628C268.842 0.719563 272.848 2.66282 276.714 4.86017L226.395 93.3772Z" fill="#7A0509"/>
</g>
</g>
<path d="M137.172 94.0557C138.029 94.0557 138.721 94.7532 138.721 95.6103C138.721 96.4673 138.029 97.1599 137.172 97.1599C136.315 97.1599 135.617 96.4673 135.617 95.6103C135.617 94.7532 136.315 94.0557 137.172 94.0557Z" fill="#F3F6FF"/>
<path d="M136.993 233.077C136.744 233.944 136.609 234.417 136.609 234.417C113.29 236.336 85.0039 219.793 85.0039 219.793L85.826 216.804C90.8585 217.108 101.561 218.408 116.788 223.68C123.978 226.171 131.094 229.729 136.993 233.077Z" fill="#02BAF1"/>
<path d="M376.085 213.874L377.002 215.289C375.547 216.425 373.928 217.337 372.199 217.989L328.197 234.572L326.941 232.658C330.36 229.021 334.336 225.937 338.745 223.595C346.249 219.604 358.736 214.746 376.085 213.874Z" fill="#02BAF1"/>
<path d="M317.797 61.5891L326.178 71.968L325.764 91.8588L325.565 101.331C325.565 101.331 325.256 105.671 321.843 107.783C321.15 104.993 320.587 102.452 320.129 100.185V100.175L317.797 61.5891Z" fill="#001F29"/>
<path d="M292.177 130.13L285.431 136.827L267.777 132.298C267.982 131.969 268.191 131.645 268.4 131.321L292.177 130.13Z" fill="#267CAB"/>
<path d="M164.208 136.548C165.623 148.457 162.902 165.348 161.497 172.837C161.049 175.234 160.735 176.669 160.735 176.669C159.947 177.61 159.16 178.677 158.383 179.843C159.997 170.007 161.542 157.286 161.497 148.278C161.467 142.617 160.505 139.787 159.379 138.422C159.728 137.829 160.037 137.266 160.311 136.743L164.208 136.548Z" fill="#267CAB"/>
<path d="M131.971 69.6409L133.012 113.448C129.51 105.954 126.032 102.222 126.032 102.222C127.068 100.817 127.601 99.1033 127.531 97.3594L126.809 78.6146C126.764 77.3889 126.44 76.1881 125.867 75.1018C128.388 73.0639 130.337 71.2702 131.971 69.6409Z" fill="#001F29"/>
<path d="M179.155 159.628C181.467 161.875 183.973 162.368 185.921 162.284C185.174 164.765 183.903 168.447 182.139 171.452C181.108 173.211 179.334 174.402 177.316 174.681C173.17 175.254 165.308 175.204 161.496 172.837C162.901 165.348 165.622 148.457 164.207 136.548L173.484 136.085C179.055 139.927 181.272 145.029 181.272 145.029C177.256 154.74 179.155 159.628 179.155 159.628Z" fill="#001F29"/>
<path d="M198.362 140.34C198.97 141.336 199.084 142.552 198.671 143.643C198.073 145.213 197.086 147.704 195.806 150.469L193.638 148.277L185.641 155.906C185.641 155.906 188.416 158.322 189.368 161.511C189.368 161.511 187.943 162.204 185.925 162.283C183.977 162.368 181.471 161.875 179.159 159.628C179.159 159.628 177.26 154.74 181.276 145.028C181.276 145.028 179.059 139.926 173.488 136.085L195.661 134.973L198.362 140.34Z" fill="#267CAB"/>
<path d="M193.638 148.277L195.805 150.47C194.091 154.172 191.859 158.362 189.368 161.511C188.416 158.322 185.641 155.906 185.641 155.906L193.638 148.277Z" fill="#F3F6FF"/>
<path d="M275.457 145.9L283.185 155.601C282.563 156.364 281.387 157.594 279.707 158.476C279.703 158.476 279.702 158.481 279.698 158.481H279.693C278.392 158.621 277.6 158.362 277.6 158.362C277.515 158.307 277.425 158.247 277.331 158.177V158.172C275.701 156.957 273.13 153.379 270.719 149.692C271.157 148.501 272.747 146.802 275.457 145.9Z" fill="#F3F6FF"/>
<path d="M282.916 140.47L287.34 153.743C284.321 157.291 281.521 158.278 279.707 158.477C281.386 157.595 282.562 156.364 283.185 155.602L275.457 145.901C272.746 146.803 271.157 148.502 270.718 149.693C267.489 144.76 264.555 139.623 264.555 139.623C264.555 137.943 266.03 135.093 267.778 132.298L285.432 136.827L283.255 138.985C282.876 139.378 282.746 139.951 282.916 140.47Z" fill="#267CAB"/>
<path d="M293.034 130.085L291.23 142.173C290.418 147.629 290.294 153.165 290.857 158.656L291.385 163.783C283.717 164.58 280.099 163.384 278.46 162.353C277.638 161.84 277.184 160.908 277.234 159.941L277.329 158.177C277.424 158.247 277.513 158.307 277.598 158.362C277.598 158.362 278.39 158.621 279.691 158.481H279.696C279.701 158.481 279.701 158.476 279.706 158.476C281.519 158.277 284.32 157.291 287.339 153.743L282.914 140.469C282.745 139.951 282.875 139.378 283.253 138.984L285.431 136.827L292.177 130.13L293.034 130.085Z" fill="#001F29"/>
<path d="M309.057 82.8249L310.562 83.9012C310.108 84.2949 309.65 84.6536 309.187 84.9874C304.079 88.6497 298.559 88.9038 298.559 88.9038L286.281 77.8074C286.899 77.0501 287.651 76.4073 288.548 75.929C290.317 74.9823 292.176 74.5388 293.7 74.3395C295.589 74.0953 297.497 74.5637 299.042 75.6699L309.057 82.8249Z" fill="#F3F6FF"/>
<path d="M180.922 101.032L170.787 109.088C166.402 104.245 161.943 101.829 159.496 100.767C166.945 97.1799 173.423 95.2068 173.423 95.2068C173.423 95.2068 178.515 96.2731 180.922 101.032Z" fill="#F3F6FF"/>
<path d="M159.378 138.422C160.504 139.787 161.466 142.617 161.496 148.277C161.541 157.286 159.996 170.007 158.382 179.842C148.421 194.681 138.979 226.206 136.991 233.077C131.092 229.729 123.976 226.171 116.786 223.68C101.559 218.408 90.8567 217.108 85.8242 216.804L100.1 164.745L101.27 76.8458C101.315 75.7048 101.754 74.6086 102.506 73.7466L124.275 48.8981C125.162 47.8866 126.353 47.189 127.669 46.91L150.439 42.2711C152.447 41.9772 153.14 42.316 153.967 43.0335C155.163 44.0749 156.164 45.764 156.488 49.0077C156.613 50.2284 156.219 51.6485 155.108 52.1567C150.031 54.4737 146.513 56.4568 143.822 58.3253C143.21 58.7488 142.636 59.1723 142.098 59.5908C141.66 59.9297 141.241 60.2735 140.848 60.6023V60.6073C140.823 60.6273 140.798 60.6472 140.773 60.6671C137.549 63.4225 135.481 66.1481 131.969 69.6409C130.334 71.2702 128.386 73.064 125.865 75.1019C126.438 76.1881 126.762 77.3889 126.807 78.6147L127.529 97.3594C127.599 99.1034 127.066 100.817 126.029 102.223C126.029 102.223 129.507 105.955 133.01 113.448V113.458C134.31 116.244 135.616 119.557 136.742 123.389C138.875 120.155 140.713 117.255 142.138 114.963C142.592 114.236 143 113.573 143.364 112.975C144.674 110.838 145.407 109.582 145.407 109.582C149.533 106.044 154.709 103.075 159.488 100.768C159.488 100.768 159.488 100.768 159.493 100.768C161.939 101.829 166.399 104.245 170.784 109.089L180.918 101.032C181.048 101.276 181.162 101.53 181.272 101.794L180.176 108.102C179.872 109.846 179.139 111.485 178.038 112.875L163.275 131.58L161.825 133.419C161.825 133.419 161.635 133.942 161.252 134.799C161.013 135.332 160.699 135.995 160.31 136.742C160.036 137.266 159.727 137.829 159.378 138.422Z" fill="#267CAB"/>
<path d="M325.766 91.8585L326.18 71.9677L317.799 61.5888L312.463 54.9868L307.351 54.653L305.861 54.5583C301.65 53.9255 298.536 53.0137 296.249 51.9574C294.899 51.3345 293.843 50.6619 293.02 49.9643H293.015C289.851 47.2986 290.18 44.3189 290.977 42.6497C292.039 40.4075 310.101 40.4424 317.719 40.557C319.887 40.5869 321.995 41.2745 323.768 42.5152L343.315 56.2375C344.372 56.9799 345.194 58.0063 345.682 59.1972C349.982 69.7704 352.643 100.633 353.44 111.047C353.61 113.249 353.51 115.461 353.146 117.644C350.067 136.239 350.201 153.32 350.839 164.276C351.288 171.93 353.709 179.334 357.88 185.767L376.086 213.874C358.737 214.746 346.25 219.604 338.746 223.595C334.337 225.937 330.36 229.021 326.942 232.659L299.936 191.562C295.507 184.815 292.761 177.107 291.934 169.08L291.386 163.783L290.858 158.656C290.295 153.165 290.419 147.629 291.232 142.173L293.035 130.085L293.175 129.139L293.319 128.172L296.095 109.562C292.751 103.628 286.533 92.4963 285.093 89.3323C283.499 85.8195 283.768 80.8767 286.279 77.8074L298.556 88.9038C298.556 88.9038 304.077 88.6497 309.184 84.9874C309.648 84.6536 310.106 84.2948 310.559 83.9012L316.897 88.4304C317.694 89.0034 318.238 89.8654 318.412 90.8321C318.801 92.9646 319.304 96.1336 320.131 100.175V100.185C320.589 102.452 321.152 104.993 321.845 107.783C325.258 105.67 325.567 101.331 325.567 101.331L325.766 91.8585Z" fill="#267CAB"/>
<path d="M293.32 128.172L293.175 129.139L293.036 130.085L292.179 130.13L268.401 131.321L195.659 134.973L173.487 136.085L164.209 136.548L160.312 136.742C160.701 135.995 161.015 135.332 161.254 134.799L163.94 134.665L170.502 134.336L194.728 133.12L269.727 129.358L293.32 128.172Z" fill="#02BAF1"/>
<path d="M317.8 61.5889L320.132 100.175C319.305 96.1337 318.802 92.9647 318.413 90.8322C318.239 89.8655 317.696 89.0035 316.898 88.4305L310.56 83.9013L309.056 82.825L307.352 54.6531L312.464 54.9869L317.8 61.5889Z" fill="#02BAF1"/>
<path d="M296.247 51.9579L142.123 60.5928L140.853 60.6626L140.848 60.6078V60.6028C141.241 60.274 141.66 59.9301 142.098 59.5913C142.636 59.1728 143.209 58.7493 143.822 58.3257L293.013 49.9648H293.018C293.84 50.6624 294.897 51.3351 296.247 51.9579Z" fill="#02BAF1"/>
<path d="M140.853 60.6621L142.138 114.963C140.713 117.255 138.875 120.155 136.742 123.389C135.616 119.557 134.311 116.244 133.01 113.458V113.448L131.969 69.6409C135.482 66.148 137.549 63.4225 140.773 60.6671L140.853 60.6621ZM138.72 95.6105C138.72 94.7535 138.028 94.0559 137.171 94.0559C136.314 94.0559 135.616 94.7535 135.616 95.6105C135.616 96.4675 136.314 97.1601 137.171 97.1601C138.028 97.1601 138.72 96.4675 138.72 95.6105Z" fill="#02BAF1"/>
<path d="M225.294 17.0593L224.766 19.7898C224.905 20.0141 225.08 20.2233 225.259 20.3927C225.458 20.5771 225.677 20.7664 225.917 20.9508L226.425 18.3349C225.932 17.9263 225.543 17.4928 225.294 17.0593Z" fill="#B8EEFF"/>
<path d="M228.178 19.4658L227.68 22.0518C228.298 22.3707 228.97 22.6597 229.688 22.8989L230.191 20.2929C229.463 20.0587 228.786 19.7797 228.178 19.4658Z" fill="#B8EEFF"/>
<path d="M231.476 20.652L230.973 23.2629C231.013 23.2729 231.057 23.2828 231.097 23.2928C234.077 23.9505 236.847 23.7512 238.486 22.9091C238.905 22.6949 239.194 22.2963 239.294 21.8379L239.737 19.7501L239.941 18.7935C239.702 19.8747 238.477 20.6221 236.733 20.916C235.308 21.1602 233.534 21.1104 231.675 20.6968C231.605 20.6819 231.541 20.6669 231.476 20.652Z" fill="#B8EEFF"/>
<path d="M224.411 18.6385C224.351 18.9524 224.511 19.3908 224.76 19.7894L225.288 17.0589C225.004 16.5806 224.884 16.0923 224.944 15.6289L224.81 16.3963L224.411 18.6385Z" fill="#003C4E"/>
<path d="M230.191 20.2932L229.688 22.8992C230.106 23.0387 230.535 23.1583 230.973 23.2629L231.476 20.652C231.033 20.5473 230.604 20.4277 230.191 20.2932Z" fill="#003C4E"/>
<path d="M226.426 18.335L225.918 20.9509C226.426 21.3395 227.019 21.7182 227.682 22.057L228.18 19.471C227.747 19.2518 227.348 19.0126 226.989 18.7635C226.785 18.624 226.601 18.4795 226.426 18.335Z" fill="#003C4E"/>
<path d="M224.946 15.629C224.882 16.0974 225.006 16.5807 225.29 17.0591C225.544 17.4925 225.928 17.926 226.421 18.3346C226.596 18.4791 226.785 18.6236 226.984 18.7631C226.282 18.0855 225.938 17.358 226.087 16.6804C226.441 15.061 229.501 14.3535 232.904 15.1059C236.312 15.8582 238.783 17.7815 238.43 19.4009C238.28 20.0835 237.657 20.6017 236.73 20.9156C238.474 20.6167 239.7 19.8743 239.939 18.793C240.373 16.8299 237.373 14.498 233.243 13.5812C229.107 12.6693 225.405 13.5214 224.971 15.4895L224.946 15.629Z" fill="#02BAF1"/>
<path d="M226.089 16.6758C225.94 17.3534 226.283 18.0859 226.986 18.7585C227.345 19.0077 227.743 19.2468 228.177 19.4661C228.785 19.78 229.462 20.054 230.19 20.2932C230.603 20.4277 231.032 20.5473 231.475 20.652C231.54 20.6669 231.605 20.6818 231.67 20.6968C233.528 21.1054 235.302 21.1602 236.727 20.916C237.654 20.6021 238.272 20.0839 238.426 19.4013C238.78 17.7819 236.309 15.8586 232.9 15.1062C229.502 14.3489 226.443 15.0564 226.089 16.6758Z" fill="#003C4E"/>
<path d="M256.471 45.7947L261.907 55.461V55.471C261.667 56.4974 261.294 57.5139 260.845 58.3958C260.342 59.3624 259.769 60.359 259.106 61.3704L253.895 52.1027C255.205 49.9153 256.087 47.7778 256.471 45.7947Z" fill="#B8EEFF"/>
<path d="M248.828 58.6846L253.97 67.8576C252.082 69.8656 249.949 71.8388 247.602 73.6824L242.41 64.4395C244.812 62.596 246.959 60.6627 248.828 58.6846Z" fill="#B8EEFF"/>
<path d="M238.093 67.4641L243.285 76.7219C243.145 76.8165 243.001 76.9063 242.861 76.991C232.642 83.3538 222.118 86.1989 214.968 85.1426C213.145 84.8785 211.555 83.7425 210.608 82.1281L206.298 74.7787V74.7687L204.32 71.3954C206.587 75.1872 212.078 76.4229 218.929 75.2869H218.939C224.54 74.3601 231.052 71.8588 237.425 67.8876C237.654 67.7531 237.874 67.6086 238.093 67.4641Z" fill="#B8EEFF"/>
<path d="M261.74 50.648C262.358 51.7741 262.328 53.6326 261.904 55.4662L256.468 45.7998C256.902 43.6125 256.742 41.6144 255.91 39.9253L257.395 42.6658L261.74 50.648Z" fill="#003C4E"/>
<path d="M242.413 64.4395L247.605 73.6823C246.234 74.7486 244.794 75.77 243.29 76.7267L238.098 67.4689C239.607 66.5023 241.052 65.4908 242.413 64.4395Z" fill="#003C4E"/>
<path d="M253.898 52.1079L259.11 61.3756C257.72 63.5132 255.996 65.7106 253.978 67.8631L248.836 58.69C250.166 57.2899 251.342 55.8698 252.349 54.4597C252.922 53.6675 253.435 52.8802 253.898 52.1079Z" fill="#003C4E"/>
<path d="M255.91 39.9201C256.737 41.6093 256.896 43.6123 256.468 45.7947C256.084 47.7728 255.207 49.9154 253.897 52.1027C253.438 52.88 252.925 53.6673 252.342 54.4545C254.091 50.9766 254.435 47.7579 253.015 45.3811C249.627 39.6959 237.399 40.9914 225.72 48.2711C214.035 55.5507 207.319 66.0642 210.702 71.7494C212.127 74.1361 215.097 75.292 218.928 75.292C212.082 76.4281 206.586 75.1874 204.319 71.4006C200.209 64.5096 208.355 51.7589 222.521 42.9247C236.697 34.0954 251.515 32.5259 255.631 39.4219L255.91 39.9201Z" fill="#02BAF1"/>
<path d="M253.018 45.3808C254.438 47.7575 254.094 50.9763 252.345 54.4542C251.334 55.8643 250.158 57.2844 248.832 58.6845C246.969 60.6576 244.816 62.5959 242.415 64.4345C241.054 65.4858 239.614 66.4973 238.1 67.4639C237.88 67.6084 237.661 67.7529 237.432 67.8875C231.059 71.8636 224.547 74.3649 218.946 75.2867H218.936C215.105 75.2917 212.14 74.1307 210.71 71.744C207.322 66.0588 214.038 55.5454 225.728 48.2657C237.402 40.9911 249.63 39.6956 253.018 45.3808Z" fill="#003C4E"/>
<path d="M276.464 26.1127L268.497 25.6593C267.754 25.0863 267.156 24.5033 266.758 23.9602L274.78 24.5083C275.487 25.0414 276.06 25.5945 276.464 26.1127Z" fill="#003C4E"/>
<path d="M276.464 26.113C277.052 26.8653 277.282 27.543 277.027 28.0064C276.449 29.0727 273.574 28.6342 270.605 27.0248C269.818 26.6012 269.105 26.1329 268.492 25.6545L276.464 26.113Z" fill="#02BAF1"/>
<path d="M274.783 24.5033L266.761 23.9552C266.238 23.2527 266.044 22.6199 266.288 22.1764C266.866 21.1101 269.741 21.5536 272.711 23.163C273.473 23.5815 274.176 24.0399 274.783 24.5033Z" fill="#02BAF1"/>
<path d="M277.028 28.0116L275.768 30.3385C275.19 31.4048 272.315 30.9663 269.35 29.3569C266.38 27.7475 264.442 25.5801 265.02 24.5088L266.281 22.1819C266.041 22.6253 266.236 23.2581 266.754 23.9607C267.153 24.5038 267.75 25.0917 268.493 25.6598C269.106 26.1331 269.823 26.6015 270.605 27.03C273.575 28.6344 276.45 29.0779 277.028 28.0116Z" fill="#003C4E"/>
<path d="M182.059 37.5577L189.587 32.301C189.971 31.2945 190.2 30.3578 190.26 29.5854L182.731 34.9667V34.9717C182.373 35.9234 182.143 36.8103 182.059 37.5577Z" fill="#003C4E"/>
<path d="M182.057 37.5577C181.932 38.6489 182.117 39.4511 182.65 39.7551C183.861 40.4477 186.412 38.2852 188.345 34.9169C188.858 34.025 189.277 33.1381 189.586 32.301L182.057 37.5577Z" fill="#02BAF1"/>
<path d="M182.734 34.9671L190.263 29.5858C190.348 28.5843 190.159 27.8469 189.655 27.5579C188.444 26.8653 185.898 29.0327 183.96 32.396C183.457 33.273 183.048 34.1449 182.734 34.9671Z" fill="#02BAF1"/>
<path d="M182.648 39.7555L185.289 41.2703C186.5 41.9628 189.051 39.8004 190.984 36.4321C192.923 33.0638 193.511 29.7703 192.3 29.0727L189.659 27.553C190.162 27.842 190.352 28.5744 190.267 29.5809C190.207 30.3532 189.973 31.285 189.594 32.2965C189.28 33.1336 188.862 34.0205 188.354 34.9124C186.41 38.2856 183.859 40.4481 182.648 39.7555Z" fill="#003C4E"/>
<path d="M211.338 183.41C208.472 183.41 205.473 183.868 202.913 184.613C193.438 187.937 186.809 197.719 186.809 207.786C186.809 217.567 193.285 227.349 202.913 230.673C206.829 232.335 211.643 232.335 215.846 232.335C223.813 232.335 228.78 223.757 235.714 224.216C242.63 223.757 247.597 232.335 255.582 232.335C259.804 232.335 264.618 232.335 268.515 230.673C277.991 227.368 284.62 217.587 284.62 207.805C284.62 197.566 278.144 187.785 268.515 184.633C265.955 183.888 262.956 183.429 260.091 183.429H255.582H215.846H212.694C212.694 183.41 211.338 183.41 211.338 183.41Z" fill="#02BAF1"/>
<path d="M211.338 179.36C208.472 179.36 205.473 179.819 202.913 180.564C193.438 183.869 186.809 193.65 186.809 203.736C186.809 213.518 193.285 223.299 202.913 226.604C206.829 228.266 211.643 228.266 215.846 228.266C223.813 228.266 228.78 219.688 235.714 220.147C242.63 219.688 247.597 228.266 255.582 228.266C259.804 228.266 264.618 228.266 268.515 226.604C277.991 223.299 284.62 213.518 284.62 203.736C284.62 193.497 278.144 183.716 268.515 180.564C265.955 179.819 262.956 179.36 260.091 179.36H255.582H215.846H212.694H211.338Z" fill="#002E3D"/>
<path d="M211.335 219.994C220.314 219.994 227.593 212.715 227.593 203.737C227.593 194.758 220.314 187.479 211.335 187.479C202.357 187.479 195.078 194.758 195.078 203.737C195.078 212.715 202.357 219.994 211.335 219.994Z" fill="#1D5E82"/>
<path d="M211.337 191.549C209.082 191.549 207.268 193.211 207.268 195.618V199.687H203.218C200.963 199.687 199.148 201.349 199.148 203.756C199.148 205.857 200.963 207.825 203.218 207.825H207.134V211.894C207.134 213.995 208.949 215.963 211.203 215.963C213.457 215.963 215.272 213.862 215.272 211.894V207.825H219.341C221.595 207.825 223.41 205.724 223.41 203.756C223.41 201.349 221.595 199.687 219.341 199.687H215.272V195.618C215.406 193.192 213.438 191.549 211.337 191.549Z" fill="#02BAF1"/>
<path d="M260.089 219.994C269.068 219.994 276.347 212.715 276.347 203.737C276.347 194.758 269.068 187.479 260.089 187.479C251.111 187.479 243.832 194.758 243.832 203.737C243.832 212.715 251.111 219.994 260.089 219.994Z" fill="#1D5E82"/>
<path d="M251.971 207.806C254.219 207.806 256.041 205.984 256.041 203.737C256.041 201.49 254.219 199.668 251.971 199.668C249.724 199.668 247.902 201.49 247.902 203.737C247.902 205.984 249.724 207.806 251.971 207.806Z" fill="#54F297"/>
<path d="M260.089 216.078C262.336 216.078 264.158 214.256 264.158 212.009C264.158 209.761 262.336 207.94 260.089 207.94C257.841 207.94 256.02 209.761 256.02 212.009C256.02 214.256 257.841 216.078 260.089 216.078Z" fill="#E2B93B"/>
<path d="M260.089 199.667C262.336 199.667 264.158 197.845 264.158 195.598C264.158 193.351 262.336 191.529 260.089 191.529C257.841 191.529 256.02 193.351 256.02 195.598C256.02 197.845 257.841 199.667 260.089 199.667Z" fill="#2F80ED"/>
<path d="M268.362 207.806C270.609 207.806 272.431 205.984 272.431 203.737C272.431 201.49 270.609 199.668 268.362 199.668C266.115 199.668 264.293 201.49 264.293 203.737C264.293 205.984 266.115 207.806 268.362 207.806Z" fill="#EB5757"/>
<path d="M233.613 203.737C232.562 203.737 231.512 204.634 231.512 205.838C231.512 207.042 232.41 207.939 233.613 207.939H237.682C238.733 207.939 239.784 207.042 239.784 205.838C239.784 204.634 238.886 203.737 237.682 203.737H233.613Z" fill="#0A0A0B"/>
<defs>
<linearGradient id="paint0_linear_1750_116283" x1="17.3582" y1="136.988" x2="17.3582" y2="168.572" gradientUnits="userSpaceOnUse">
<stop stop-color="#FED349"/>
<stop offset="1" stop-color="#ECB713"/>
</linearGradient>
</defs>
</svg>
