<svg width="296" height="199" viewBox="0 0 296 199" fill="none" xmlns="http://www.w3.org/2000/svg">
<path d="M144.692 165.738C182.129 165.738 212.477 135.39 212.477 97.9527C212.477 60.5158 182.129 30.1672 144.692 30.1672C107.255 30.1672 76.9062 60.5158 76.9062 97.9527C76.9062 135.39 107.255 165.738 144.692 165.738Z" stroke="#1D5E82" stroke-width="2" stroke-miterlimit="10" stroke-dasharray="7.03 7.03"/>
<path d="M144.693 195.392C118.667 195.392 94.196 185.257 75.7941 166.852C57.3889 148.447 47.2539 123.979 47.2539 97.953C47.2539 71.9268 57.3889 47.4557 75.7941 29.0539C94.1993 10.6487 118.667 0.513672 144.693 0.513672C170.719 0.513672 195.19 10.6487 213.592 29.0539C231.997 47.459 242.132 71.9268 242.132 97.953C242.132 123.979 231.997 148.45 213.592 166.852C195.19 185.257 170.719 195.392 144.693 195.392Z" stroke="#1D5E82" stroke-width="0.5" stroke-miterlimit="10" stroke-dasharray="6.99 6.99"/>
<path d="M144.694 180.565C122.629 180.565 101.881 171.972 86.2796 156.368C70.6751 140.763 62.082 120.019 62.082 97.9529C62.082 75.8872 70.6751 55.1393 86.2796 39.5381C101.884 23.9336 122.629 15.3406 144.694 15.3406C166.76 15.3406 187.508 23.9336 203.109 39.5381C218.714 55.1426 227.307 75.8872 227.307 97.9529C227.307 120.019 218.714 140.767 203.109 156.368C187.508 171.972 166.76 180.565 144.694 180.565Z" stroke="#1D5E82" stroke-miterlimit="10" stroke-dasharray="6.97 6.97"/>
<path d="M144.692 158.935C178.372 158.935 205.674 131.632 205.674 97.9532C205.674 64.274 178.372 36.9717 144.692 36.9717C111.013 36.9717 83.7109 64.274 83.7109 97.9532C83.7109 131.632 111.013 158.935 144.692 158.935Z" fill="#003C4E"/>
<path d="M144.695 149.05C172.915 149.05 195.791 126.173 195.791 97.9529C195.791 69.7328 172.915 46.856 144.695 46.856C116.475 46.856 93.5977 69.7328 93.5977 97.9529C93.5977 126.173 116.475 149.05 144.695 149.05Z" fill="#1D5E82"/>
<path d="M163.865 46.5759L144.692 110.52L125.516 46.5693C125.904 47.0833 126.313 47.5776 126.741 48.0553C126.955 48.2959 127.18 48.5331 127.4 48.767C130.152 51.594 133.595 53.7554 137.45 54.968C137.753 55.0602 138.056 55.1492 138.369 55.2315C140.385 55.7851 142.507 56.075 144.695 56.075C152.514 56.075 159.466 52.3485 163.865 46.5759Z" fill="url(#paint0_linear_1750_116503)"/>
<path d="M168.789 31.9864C168.789 45.2944 157.998 56.0785 144.697 56.0785C142.509 56.0785 140.387 55.7853 138.371 55.235C138.061 55.1526 137.755 55.0637 137.452 54.9681C133.597 53.7556 130.153 51.5942 127.402 48.7672C127.181 48.5332 126.957 48.2993 126.743 48.0588C122.928 43.7919 120.602 38.161 120.602 31.9864C120.602 18.685 131.392 7.89429 144.7 7.89429C157.998 7.89429 168.789 18.685 168.789 31.9864Z" fill="#003C4E"/>
<path d="M144.696 53.4916C142.772 53.4916 140.874 53.2379 139.052 52.7404C138.759 52.6613 138.489 52.5822 138.222 52.4999C134.858 51.4422 131.761 49.5312 129.27 46.9777C129.062 46.7602 128.865 46.5493 128.673 46.3352C125.135 42.3813 123.188 37.2841 123.188 31.986C123.188 20.1277 132.838 10.4771 144.7 10.4771C156.558 10.4771 166.209 20.1244 166.209 31.986C166.202 43.8442 156.555 53.4916 144.696 53.4916Z" fill="#02BAF1"/>
<path d="M139.169 52.0389C139.169 53.1921 138.882 54.2761 138.371 55.2349C138.061 55.1525 137.755 55.0636 137.452 54.968C136.43 56.744 134.516 57.94 132.315 57.94C129.057 57.94 126.414 55.2975 126.414 52.0389C126.414 50.8297 126.776 49.7061 127.403 48.7671C127.182 48.5331 126.958 48.2992 126.744 48.0587C127.986 46.3223 130.022 45.1855 132.315 45.1855C136.101 45.1855 139.169 48.2597 139.169 52.0389Z" fill="#003C4E"/>
<path d="M138.222 52.0389C138.222 53.1032 137.942 54.1048 137.448 54.9681C136.427 56.744 134.512 57.9401 132.311 57.9401C129.053 57.9401 126.41 55.2976 126.41 52.0389C126.41 50.8297 126.773 49.7062 127.399 48.7671C128.456 47.1823 130.265 46.1345 132.311 46.1345C135.58 46.1345 138.222 48.7737 138.222 52.0389Z" fill="#02BAF1"/>
<path d="M100.197 65.8445C100.197 72.7604 94.5888 78.365 87.6762 78.365C86.5394 78.365 85.4356 78.2134 84.3879 77.9268C84.2264 77.884 84.0683 77.8378 83.9101 77.7884C81.9068 77.1591 80.1177 76.0355 78.6877 74.566C78.5724 74.4441 78.4571 74.3222 78.3451 74.197C76.3616 71.9795 75.1523 69.0537 75.1523 65.8445C75.1523 58.9318 80.7602 53.324 87.6762 53.324C94.5888 53.324 100.197 58.9318 100.197 65.8445Z" fill="#1D5E82"/>
<path d="M5.24132 83.5317H0.5V88.2731H5.24132V83.5317Z" fill="#02BAF1"/>
<path d="M5.24132 93.2087H0.5V97.9501H5.24132V93.2087Z" fill="#02BAF1"/>
<path d="M5.24132 102.889H0.5V107.63H5.24132V102.889Z" fill="#02BAF1"/>
<path d="M5.24132 112.566H0.5V117.307H5.24132V112.566Z" fill="#02BAF1"/>
<path d="M5.24132 122.243H0.5V126.984H5.24132V122.243Z" fill="#02BAF1"/>
<path d="M5.24132 131.92H0.5V136.661H5.24132V131.92Z" fill="#02BAF1"/>
<path d="M5.24132 141.597H0.5V146.338H5.24132V141.597Z" fill="#02BAF1"/>
<path d="M5.24132 151.274H0.5V156.015H5.24132V151.274Z" fill="#02BAF1"/>
<path d="M26.0109 83.5317H21.2695V88.2731H26.0109V83.5317Z" fill="#02BAF1"/>
<path d="M26.0109 93.2087H21.2695V97.9501H26.0109V93.2087Z" fill="#02BAF1"/>
<path d="M26.0109 102.889H21.2695V107.63H26.0109V102.889Z" fill="#02BAF1"/>
<path d="M26.0109 112.566H21.2695V117.307H26.0109V112.566Z" fill="#02BAF1"/>
<path d="M26.0109 122.243H21.2695V126.984H26.0109V122.243Z" fill="#02BAF1"/>
<path d="M26.0109 131.92H21.2695V136.661H26.0109V131.92Z" fill="#02BAF1"/>
<path d="M26.0109 141.597H21.2695V146.338H26.0109V141.597Z" fill="#02BAF1"/>
<path d="M26.0109 151.274H21.2695V156.015H26.0109V151.274Z" fill="#02BAF1"/>
<path d="M15.6241 88.3652H10.8828V93.1066H15.6241V88.3652Z" fill="#02BAF1"/>
<path d="M15.6241 98.0425H10.8828V102.784H15.6241V98.0425Z" fill="#02BAF1"/>
<path d="M15.6241 107.719H10.8828V112.461H15.6241V107.719Z" fill="#02BAF1"/>
<path d="M15.6241 117.396H10.8828V122.137H15.6241V117.396Z" fill="#02BAF1"/>
<path d="M15.6241 127.073H10.8828V131.815H15.6241V127.073Z" fill="#02BAF1"/>
<path d="M15.6241 136.754H10.8828V141.495H15.6241V136.754Z" fill="#02BAF1"/>
<path d="M15.6241 146.431H10.8828V151.172H15.6241V146.431Z" fill="#02BAF1"/>
<path d="M15.6241 156.108H10.8828V160.849H15.6241V156.108Z" fill="#02BAF1"/>
<path d="M290.76 83.5317H260.984V88.2731H290.76V83.5317Z" fill="#02BAF1"/>
<path d="M295.502 93.2087H265.727V97.9534H295.502V93.2087Z" fill="#02BAF1"/>
<path d="M290.76 102.889H260.984V107.63H290.76V102.889Z" fill="#02BAF1"/>
<path d="M95.264 69.2281C94.8027 69.1458 94.4633 68.9942 94.2129 68.7833C94.0778 68.6746 93.9691 68.5428 93.8867 68.4044C95.4386 67.1095 95.5012 65.1392 94.9444 63.3929C94.9246 63.3336 94.9048 63.2743 94.8851 63.2183C95.0366 63.215 95.2146 63.215 95.409 63.2249C95.5243 63.2348 95.6462 63.2446 95.7681 63.2578C95.9394 63.2809 96.1173 63.3138 96.2953 63.3567C96.4501 63.3962 96.6083 63.4456 96.7598 63.5049C97.3101 63.7224 97.8175 64.0914 98.1173 64.7109C98.6939 65.9003 98.1404 69.7289 95.264 69.2281Z" fill="#003C4E"/>
<path d="M96.7611 63.505C96.6095 63.4457 96.4513 63.3963 96.2965 63.3567C96.1186 63.3139 95.9406 63.2809 95.7693 63.2579C95.2487 61.0701 93.4069 58.5693 87.6771 58.5693C81.9473 58.5693 80.1055 61.0701 79.5849 63.2579C79.4136 63.2809 79.2356 63.3139 79.0577 63.3567C78.8996 63.3963 78.7447 63.4457 78.5898 63.505C78.86 61.3567 80.9292 57.5808 87.6771 57.5808C94.4184 57.5808 96.4711 61.4523 96.7611 63.505Z" fill="#003C4E"/>
<path d="M81.4659 68.4044C81.3835 68.5461 81.2748 68.6746 81.1397 68.78C81.0705 68.8426 80.9914 68.8953 80.9057 68.9448C80.8102 69.0041 80.6982 69.0535 80.5796 69.0996C80.4346 69.1524 80.2698 69.1952 80.0886 69.2281C77.2122 69.7289 76.6587 65.9003 77.2353 64.7109C77.5318 64.0914 78.0425 63.7224 78.5894 63.5049C78.7443 63.4456 78.8992 63.3962 79.0573 63.3567C79.2352 63.3138 79.4132 63.2809 79.5845 63.2578C79.7064 63.2446 79.8283 63.2348 79.9436 63.2249C80.138 63.215 80.316 63.215 80.4675 63.2183C80.4478 63.2743 80.428 63.3336 80.4082 63.3929C79.8514 65.1392 79.914 67.1095 81.4659 68.4044Z" fill="#003C4E"/>
<path d="M92.4682 69.2285C92.4583 69.3998 92.4385 69.5844 92.4056 69.7821C92.1618 71.3076 91.1964 73.4756 87.6775 73.4756C84.1585 73.4756 83.1931 71.3076 82.9493 69.7821C82.9164 69.5844 82.8966 69.3998 82.8867 69.2285C83.951 69.6503 85.371 69.8842 87.2261 69.8513C87.5259 69.8447 87.829 69.8447 88.1289 69.8513C89.9839 69.8842 91.404 69.6503 92.4682 69.2285Z" fill="#003C4E"/>
<path d="M81.4634 68.4044C81.3811 68.5461 81.2723 68.6746 81.1372 68.78C80.867 68.5527 80.6298 68.299 80.4255 68.0189C79.5227 66.7833 79.3481 65.0898 79.9346 63.2413C79.9379 63.2348 79.9379 63.2315 79.9412 63.2249C80.1356 63.215 80.3135 63.215 80.4651 63.2183C80.4453 63.2743 80.4255 63.3336 80.4058 63.3929C79.8489 65.1392 79.9115 67.1095 81.4634 68.4044Z" fill="#002733"/>
<path d="M88.125 69.851C89.98 69.884 91.4001 69.65 92.4643 69.2283C92.4544 69.3996 92.4346 69.5841 92.4017 69.7818C91.3342 70.1574 90.0228 70.3485 88.4775 70.3485C88.3589 70.3485 88.237 70.3452 88.1151 70.3452C87.9668 70.3419 87.8218 70.3387 87.6736 70.3387C87.5253 70.3387 87.3803 70.3419 87.232 70.3452C87.1101 70.3452 86.9915 70.3485 86.8696 70.3485C85.3243 70.3485 84.013 70.1574 82.9454 69.7818C82.9125 69.5841 82.8927 69.3996 82.8828 69.2283C83.9471 69.65 85.3671 69.884 87.2222 69.851C87.522 69.8444 87.8251 69.8444 88.125 69.851Z" fill="#002733"/>
<path d="M94.9279 68.0189C94.7236 68.299 94.4864 68.5527 94.2129 68.7833C94.0778 68.6746 93.9691 68.5428 93.8867 68.4044C95.4386 67.1095 95.5012 65.1392 94.9444 63.3929C94.9246 63.3336 94.9048 63.2743 94.8851 63.2183C95.0366 63.215 95.2146 63.215 95.409 63.2249C95.4123 63.2315 95.4122 63.2348 95.4155 63.2413C96.002 65.0898 95.8307 66.7866 94.9279 68.0189Z" fill="#002733"/>
<path d="M87.2227 69.851C87.5226 69.8444 87.8224 69.8444 88.1222 69.851C95.0448 69.9795 95.885 66.3651 94.9426 63.3931C93.6906 59.4557 87.6741 59.5677 87.6741 59.5677C87.6741 59.5677 81.6577 59.4524 80.4056 63.3931C79.46 66.3618 80.3002 69.9795 87.2227 69.851Z" fill="#02BAF1"/>
<path d="M85.9902 68.5857L85.9737 68.6747C85.9573 68.7669 85.9573 68.8625 85.9704 68.9547C85.977 68.9943 85.9836 69.0338 85.9935 69.0701C86.01 69.136 86.0363 69.1953 86.0693 69.2579C86.1055 69.3337 86.1583 69.4028 86.2176 69.4654L86.2307 69.4786C86.3592 69.6104 86.5306 69.6928 86.7151 69.6928C87.2423 69.6895 87.809 69.4786 88.1582 69.3238C88.3955 69.215 88.5371 68.9646 88.5141 68.701C88.4844 68.3683 88.3625 68.0783 88.2472 67.8773C88.1319 67.6697 87.9045 67.5478 87.6739 67.5709C87.1302 67.617 86.5932 67.9201 86.29 68.1211C86.1286 68.2233 86.0232 68.3946 85.9902 68.5857Z" fill="#003C4E"/>
<path d="M86.0674 69.2548C85.2173 69.5777 83.5139 70.0884 81.9686 69.7325C81.4776 69.6205 81.0065 69.4195 80.5781 69.0999C80.6967 69.0538 80.8088 69.0044 80.9043 68.9451C82.5386 70.0324 84.9306 69.3405 85.9685 68.9517C85.9751 68.9945 85.9784 69.0307 85.9916 69.0703C86.0081 69.1362 86.0344 69.1955 86.0674 69.2548Z" fill="#002733"/>
<path d="M86.1851 66.3211C87.2209 65.2853 87.2209 63.6059 86.1851 62.5701C85.1493 61.5343 83.4699 61.5343 82.4341 62.5701C81.3983 63.6059 81.3983 65.2853 82.4341 66.3211C83.4699 67.3569 85.1493 67.3569 86.1851 66.3211Z" fill="#003C4E"/>
<path d="M84.3125 66.7703C85.7774 66.7703 86.9649 65.5828 86.9649 64.118C86.9649 62.6531 85.7774 61.4656 84.3125 61.4656C82.8477 61.4656 81.6602 62.6531 81.6602 64.118C81.6602 65.5828 82.8477 66.7703 84.3125 66.7703Z" fill="#B8EEFF"/>
<path d="M84.3096 65.1229C84.8646 65.1229 85.3146 64.673 85.3146 64.118C85.3146 63.563 84.8646 63.113 84.3096 63.113C83.7546 63.113 83.3047 63.563 83.3047 64.118C83.3047 64.673 83.7546 65.1229 84.3096 65.1229Z" fill="#1D5E82"/>
<path d="M92.9116 66.323C93.9475 65.2872 93.9475 63.6078 92.9116 62.572C91.8758 61.5362 90.1965 61.5362 89.1607 62.572C88.1248 63.6078 88.1249 65.2872 89.1607 66.323C90.1965 67.3588 91.8758 67.3588 92.9116 66.323Z" fill="#003C4E"/>
<path d="M91.0391 66.7703C92.504 66.7703 93.6915 65.5828 93.6915 64.118C93.6915 62.6531 92.504 61.4656 91.0391 61.4656C89.5742 61.4656 88.3867 62.6531 88.3867 64.118C88.3867 65.5828 89.5742 66.7703 91.0391 66.7703Z" fill="#B8EEFF"/>
<path d="M91.0401 65.1229C91.5951 65.1229 92.045 64.673 92.045 64.118C92.045 63.563 91.5951 63.113 91.0401 63.113C90.4851 63.113 90.0352 63.563 90.0352 64.118C90.0352 64.673 90.4851 65.1229 91.0401 65.1229Z" fill="#1D5E82"/>
<path d="M214.357 65.8445C214.357 72.7604 208.749 78.365 201.836 78.365C200.7 78.365 199.596 78.2134 198.548 77.9268C198.387 77.884 198.228 77.8378 198.07 77.7884C196.067 77.1591 194.278 76.0355 192.848 74.566C192.733 74.4441 192.617 74.3222 192.505 74.197C190.522 71.9795 189.312 69.0537 189.312 65.8445C189.312 58.9318 194.92 53.324 201.836 53.324C208.749 53.324 214.357 58.9318 214.357 65.8445Z" fill="#1D5E82"/>
<path d="M198.965 76.2661C198.965 76.8658 198.817 77.4292 198.55 77.9267C198.389 77.8839 198.23 77.8378 198.072 77.7883C197.542 78.7109 196.547 79.3336 195.403 79.3336C193.71 79.3336 192.336 77.9597 192.336 76.2661C192.336 75.6368 192.524 75.0536 192.85 74.5659C192.735 74.444 192.619 74.3221 192.507 74.1969C193.153 73.2941 194.211 72.7043 195.403 72.7043C197.371 72.7043 198.965 74.3024 198.965 76.2661Z" fill="#02BAF1"/>
<path d="M198.474 76.2658C198.474 76.8193 198.329 77.3399 198.072 77.788C197.542 78.7106 196.547 79.3333 195.403 79.3333C193.71 79.3333 192.336 77.9593 192.336 76.2658C192.336 75.6364 192.524 75.0532 192.85 74.5656C193.4 73.7419 194.339 73.1982 195.403 73.1982C197.1 73.1982 198.474 74.5689 198.474 76.2658Z" fill="#003C4E"/>
<path d="M209.42 69.2281C208.959 69.1458 208.62 68.9942 208.369 68.7833C208.234 68.6746 208.125 68.5428 208.043 68.4044C209.595 67.1095 209.657 65.1392 209.101 63.3929C209.081 63.3336 209.061 63.2743 209.041 63.2183C209.193 63.215 209.371 63.215 209.565 63.2249C209.681 63.2348 209.802 63.2446 209.924 63.2578C210.096 63.2809 210.274 63.3138 210.452 63.3567C210.606 63.3962 210.765 63.4456 210.916 63.5049C211.466 63.7224 211.974 64.0914 212.274 64.7109C212.85 65.9003 212.297 69.7289 209.42 69.2281Z" fill="#003C4E"/>
<path d="M210.917 63.5055C210.766 63.4462 210.608 63.3968 210.453 63.3572C210.275 63.3144 210.097 63.2814 209.926 63.2584C209.405 61.0706 207.563 58.5698 201.833 58.5698C196.104 58.5698 194.262 61.0706 193.741 63.2584C193.57 63.2814 193.392 63.3144 193.214 63.3572C193.056 63.3968 192.901 63.4462 192.746 63.5055C193.016 61.3572 195.085 57.5813 201.833 57.5813C208.575 57.5813 210.627 61.4528 210.917 63.5055Z" fill="#003C4E"/>
<path d="M195.622 68.4044C195.54 68.5461 195.431 68.6746 195.296 68.78C195.227 68.8426 195.148 68.8953 195.062 68.9448C194.966 69.0041 194.854 69.0535 194.736 69.0996C194.591 69.1524 194.426 69.1952 194.245 69.2281C191.368 69.7289 190.815 65.9003 191.392 64.7109C191.688 64.0914 192.199 63.7224 192.746 63.5049C192.901 63.4456 193.055 63.3962 193.214 63.3567C193.392 63.3138 193.569 63.2809 193.741 63.2578C193.863 63.2446 193.985 63.2348 194.1 63.2249C194.294 63.215 194.472 63.215 194.624 63.2183C194.604 63.2743 194.584 63.3336 194.564 63.3929C194.008 65.1392 194.07 67.1095 195.622 68.4044Z" fill="#003C4E"/>
<path d="M206.624 69.2283C206.615 69.3996 206.595 69.5841 206.562 69.7818C206.318 71.3074 205.353 73.4754 201.834 73.4754C198.315 73.4754 197.349 71.3074 197.106 69.7818C197.073 69.5841 197.053 69.3996 197.043 69.2283C198.107 69.65 199.527 69.884 201.382 69.851C201.682 69.8444 201.985 69.8444 202.285 69.851C204.14 69.884 205.56 69.65 206.624 69.2283Z" fill="#003C4E"/>
<path d="M195.624 68.4044C195.541 68.5461 195.432 68.6746 195.297 68.78C195.027 68.5527 194.79 68.299 194.586 68.0189C193.683 66.7833 193.508 65.0898 194.095 63.2413C194.098 63.2348 194.098 63.2315 194.101 63.2249C194.296 63.215 194.474 63.215 194.625 63.2183C194.605 63.2743 194.586 63.3336 194.566 63.3929C194.009 65.1392 194.072 67.1095 195.624 68.4044Z" fill="#002733"/>
<path d="M202.285 69.851C204.14 69.884 205.56 69.65 206.624 69.2283C206.615 69.3996 206.595 69.5841 206.562 69.7818C205.494 70.1574 204.183 70.3485 202.638 70.3485C202.519 70.3485 202.397 70.3452 202.275 70.3452C202.127 70.3419 201.982 70.3387 201.834 70.3387C201.685 70.3387 201.54 70.3419 201.392 70.3452C201.27 70.3452 201.152 70.3485 201.03 70.3485C199.484 70.3485 198.173 70.1574 197.106 69.7818C197.073 69.5841 197.053 69.3996 197.043 69.2283C198.107 69.65 199.527 69.884 201.382 69.851C201.682 69.8444 201.985 69.8444 202.285 69.851Z" fill="#002733"/>
<path d="M209.084 68.0189C208.88 68.299 208.643 68.5527 208.369 68.7833C208.234 68.6746 208.125 68.5428 208.043 68.4044C209.595 67.1095 209.657 65.1392 209.101 63.3929C209.081 63.3336 209.061 63.2743 209.041 63.2183C209.193 63.215 209.371 63.215 209.565 63.2249C209.568 63.2315 209.568 63.2348 209.572 63.2413C210.158 65.0898 209.987 66.7866 209.084 68.0189Z" fill="#002733"/>
<path d="M201.383 69.8508C201.683 69.8442 201.983 69.8442 202.282 69.8508C209.205 69.9793 210.045 66.3648 209.103 63.3928C207.851 59.4555 201.834 59.5675 201.834 59.5675C201.834 59.5675 195.818 59.4522 194.566 63.3928C193.62 66.3615 194.46 69.9793 201.383 69.8508Z" fill="#02BAF1"/>
<path d="M200.146 68.5855L200.13 68.6744C200.114 68.7667 200.114 68.8622 200.127 68.9545C200.133 68.994 200.137 69.0336 200.15 69.0698C200.166 69.1357 200.193 69.195 200.226 69.2576C200.262 69.3334 200.315 69.4026 200.374 69.4652L200.387 69.4784C200.516 69.6102 200.687 69.6926 200.871 69.6926C201.399 69.6893 201.965 69.4784 202.314 69.3235C202.552 69.2148 202.693 68.9644 202.67 68.7008C202.641 68.368 202.519 68.0781 202.403 67.8771C202.288 67.6695 202.061 67.5476 201.83 67.5707C201.286 67.6168 200.749 67.9199 200.446 68.1209C200.285 68.223 200.179 68.3944 200.146 68.5855Z" fill="#1D5E82"/>
<path d="M200.228 69.2545C199.377 69.5774 197.674 70.0881 196.129 69.7323C195.638 69.6203 195.167 69.4193 194.738 69.0997C194.857 69.0536 194.969 69.0041 195.064 68.9448C196.699 70.0321 199.091 69.3402 200.129 68.9514C200.135 68.9943 200.139 69.0305 200.152 69.07C200.168 69.1359 200.195 69.1952 200.228 69.2545Z" fill="#002733"/>
<path d="M207.076 60.8885C206.852 60.7469 206.618 60.6217 206.378 60.5063C205.758 61.0105 204.895 61.6892 203.841 62.4635C203.366 62.0154 202.727 61.7419 202.025 61.7419C200.559 61.7419 199.373 62.9314 199.373 64.3943C199.373 64.7304 199.439 65.0533 199.554 65.3498C198.17 66.1999 196.661 67.05 195.066 67.8275C195.218 68.0252 195.396 68.213 195.603 68.3877C197.132 67.6332 198.579 66.8127 199.916 65.9956C200.401 66.6348 201.165 67.0467 202.028 67.0467C203.495 67.0467 204.681 65.8572 204.681 64.3943C204.681 63.9001 204.542 63.4388 204.305 63.0401C205.495 62.167 206.444 61.4124 207.076 60.8885Z" fill="#1D5E82"/>
<path d="M206.887 60.7736C206.659 60.6418 206.422 60.5232 206.181 60.4177C205.595 60.8955 204.771 61.5479 203.76 62.2925C203.275 61.7818 202.593 61.4655 201.835 61.4655C200.369 61.4655 199.183 62.655 199.183 64.1179C199.183 64.51 199.272 64.8823 199.424 65.2151C198.046 66.0618 196.541 66.9053 194.949 67.673C195.084 67.8707 195.249 68.0585 195.437 68.2397C196.989 67.4819 198.458 66.6516 199.806 65.8246C200.293 66.4012 201.018 66.7702 201.835 66.7702C203.302 66.7702 204.488 65.5808 204.488 64.1179C204.488 63.6698 204.376 63.248 204.181 62.879C205.354 62.0157 206.287 61.2711 206.887 60.7736Z" fill="#003C4E"/>
<path d="M156.15 37.7925C155.439 37.648 154.922 37.4053 154.541 37.0703C154.337 36.8991 154.173 36.6887 154.052 36.4731C156.492 34.5259 156.657 31.4864 155.858 28.771C155.828 28.6798 155.799 28.5847 155.772 28.4985C156.006 28.4985 156.282 28.5061 156.58 28.5277C156.758 28.5463 156.944 28.5669 157.133 28.5925C157.397 28.634 157.669 28.6903 157.944 28.7642C158.18 28.8315 158.425 28.9136 158.657 29.0092C159.498 29.3636 160.269 29.9529 160.71 30.9159C161.561 32.7712 160.574 38.6617 156.15 37.7925Z" fill="#003C4E"/>
<path d="M158.661 29.0054C158.428 28.9098 158.188 28.8287 157.948 28.7604C157.676 28.6875 157.4 28.6302 157.137 28.5887C156.407 25.1929 153.651 21.2667 144.807 21.0691C135.958 20.8706 133.03 24.668 132.151 28.028C131.885 28.0567 131.61 28.1038 131.332 28.1625C131.089 28.2178 130.845 28.2898 130.605 28.3755C131.096 25.0694 134.424 19.3109 144.841 19.5427C155.248 19.7802 158.284 25.829 158.661 29.0054Z" fill="#003C4E"/>
<path d="M134.878 36.0411C134.745 36.2553 134.572 36.4503 134.359 36.6096C134.25 36.7053 134.125 36.7841 133.993 36.857C133.844 36.9461 133.668 37.0153 133.482 37.0863C133.258 37.1634 133 37.2235 132.718 37.2684C128.259 37.9423 127.539 32.0104 128.47 30.1958C128.948 29.2503 129.749 28.6992 130.604 28.383C130.843 28.2973 131.087 28.2253 131.331 28.17C131.609 28.1113 131.884 28.0642 132.149 28.0355C132.337 28.0192 132.527 28.0077 132.705 27.9971C133.006 27.9904 133.28 27.9931 133.514 28.0058C133.482 28.093 133.45 28.1841 133.417 28.2753C132.498 30.9423 132.523 33.9869 134.878 36.0411Z" fill="#003C4E"/>
<path d="M151.834 37.6929C151.813 37.9578 151.774 38.2428 151.719 38.5442C151.289 40.8928 149.723 44.2061 144.292 44.0825C138.861 43.959 137.444 40.5789 137.12 38.2157C137.078 37.9088 137.054 37.6237 137.042 37.3583C138.672 38.0448 140.856 38.455 143.719 38.4691C144.181 38.4681 144.648 38.4808 145.113 38.5013C147.974 38.6186 150.175 38.3095 151.834 37.6929Z" fill="#003C4E"/>
<path d="M134.878 36.0423C134.746 36.2566 134.573 36.4516 134.36 36.6108C133.948 36.2509 133.593 35.852 133.287 35.412C131.938 33.4732 131.724 30.8525 132.695 28.0206C132.702 28.01 132.7 28.0051 132.707 27.9945C133.008 27.9878 133.282 27.9905 133.516 28.0032C133.484 28.0904 133.451 28.1815 133.419 28.2726C132.499 30.9435 132.524 33.9882 134.878 36.0423Z" fill="#002733"/>
<path d="M145.112 38.5054C147.974 38.6189 150.175 38.3098 151.834 37.6932C151.813 37.958 151.774 38.2431 151.719 38.5444C150.059 39.0859 148.027 39.3365 145.64 39.2837C145.458 39.2806 145.269 39.2716 145.079 39.2664C144.849 39.2548 144.627 39.2452 144.399 39.2423C144.17 39.2394 143.946 39.2376 143.717 39.2386C143.531 39.2345 143.348 39.2353 143.157 39.2302C140.77 39.1774 138.752 38.8362 137.119 38.2198C137.077 37.9129 137.053 37.6278 137.041 37.3624C138.671 38.049 140.855 38.4592 143.718 38.4732C144.18 38.4722 144.647 38.4849 145.112 38.5054Z" fill="#002733"/>
<path d="M155.675 35.9125C155.349 36.3371 154.976 36.7199 154.546 37.0666C154.342 36.8954 154.178 36.685 154.057 36.4694C156.497 34.5222 156.662 31.4827 155.863 28.7673C155.833 28.6761 155.804 28.5811 155.777 28.4948C156.01 28.4948 156.287 28.5024 156.585 28.524C156.591 28.5338 156.59 28.5377 156.595 28.5514C157.434 31.4275 157.113 34.0421 155.675 35.9125Z" fill="#002733"/>
<path d="M143.717 38.4726C144.182 38.4765 144.646 38.4843 145.107 38.5037C155.794 38.9409 157.215 33.3873 155.859 28.7709C154.063 22.6463 144.767 22.6109 144.767 22.6109C144.767 22.6109 135.482 22.2246 133.41 28.2655C131.853 32.8173 133.021 38.4282 143.717 38.4726Z" fill="#1D5E82"/>
<path d="M141.853 36.4752L141.826 36.6093C141.796 36.7511 141.791 36.8954 141.81 37.0419C141.817 37.1064 141.826 37.167 141.84 37.2248C141.863 37.3266 141.904 37.4209 141.949 37.5162C142.005 37.6351 142.08 37.7427 142.17 37.8417L142.189 37.8635C142.383 38.0696 142.647 38.2027 142.929 38.2075C143.741 38.2211 144.626 37.9171 145.17 37.6884C145.541 37.5298 145.769 37.1456 145.741 36.7385C145.707 36.226 145.526 35.7695 145.359 35.4586C145.192 35.135 144.846 34.938 144.481 34.9612C143.639 35.0143 142.803 35.4644 142.327 35.7655C142.084 35.9252 141.911 36.1826 141.853 36.4752Z" fill="#003C4E"/>
<path d="M141.953 37.5131C140.629 37.9822 137.982 38.7129 135.609 38.1104C134.856 37.9212 134.132 37.5941 133.482 37.0868C133.666 37.0197 133.84 36.9456 133.993 36.8575C136.478 38.593 140.196 37.6083 141.813 37.0427C141.82 37.1072 141.825 37.1667 141.843 37.2255C141.865 37.3273 141.903 37.4206 141.953 37.5131Z" fill="#002733"/>
<path d="M147.435 33.0911C149.07 31.5277 149.128 28.9348 147.565 27.2996C146.001 25.6644 143.408 25.6063 141.773 27.1697C140.138 28.7331 140.08 31.326 141.643 32.9612C143.207 34.5963 145.8 34.6545 147.435 33.0911Z" fill="#1D5E82"/>
<path d="M143.551 33.5928C145.736 34.1783 147.982 32.8816 148.568 30.6964C149.153 28.5112 147.857 26.2651 145.671 25.6796C143.486 25.094 141.24 26.3908 140.655 28.576C140.069 30.7612 141.366 33.0073 143.551 33.5928Z" fill="#B8EEFF"/>
<path d="M144.211 31.135C145.039 31.3568 145.89 30.8656 146.112 30.0378C146.333 29.2101 145.842 28.3592 145.014 28.1374C144.187 27.9156 143.336 28.4069 143.114 29.2346C142.892 30.0624 143.383 30.9132 144.211 31.135Z" fill="#1D5E82"/>
<path d="M84.8012 76.2661C84.8012 76.8658 84.6529 77.4292 84.386 77.9267C84.2246 77.8839 84.0664 77.8378 83.9082 77.7883C83.3778 78.7109 82.3827 79.3336 81.2394 79.3336C79.5458 79.3336 78.1719 77.9597 78.1719 76.2661C78.1719 75.6368 78.3597 75.0536 78.6859 74.5659C78.5706 74.444 78.4552 74.3221 78.3432 74.1969C78.989 73.2941 80.0467 72.7043 81.2394 72.7043C83.2064 72.7043 84.8012 74.3024 84.8012 76.2661Z" fill="#02BAF1"/>
<path d="M84.3102 76.266C84.3102 76.8196 84.1652 77.3401 83.9082 77.7882C83.3778 78.7108 82.3827 79.3335 81.2394 79.3335C79.5458 79.3335 78.1719 77.9596 78.1719 76.266C78.1719 75.6367 78.3597 75.0535 78.6859 74.5658C79.2361 73.7421 80.1752 73.1985 81.2394 73.1985C82.9363 73.1985 84.3102 74.5692 84.3102 76.266Z" fill="#003C4E"/>
<path d="M170.99 16.5137L166.5 10.9767L168.285 9.60235L171.374 13.4102L183.099 4.51367L184.5 6.26244L170.99 16.5137Z" fill="#1D5E82"/>
<path d="M130.969 53.5437L129.5 51.6842L130.084 51.2226L131.095 52.5014L134.931 49.5137L135.389 50.101L130.969 53.5437Z" fill="white"/>
<path d="M194.248 77.5137L193.5 76.5908L193.797 76.3618L194.312 76.9964L196.267 75.5137L196.5 75.8051L194.248 77.5137Z" fill="white"/>
<path d="M80.2483 77.5137L79.5 76.5908L79.7975 76.3618L80.3124 76.9964L82.2666 75.5137L82.5 75.8051L80.2483 77.5137Z" fill="white"/>
<g filter="url(#filter0_d_1750_116503)">
<path d="M121.224 103.877L123.464 103.742C123.593 103.736 123.715 103.792 123.794 103.894L126.825 107.775L126.558 108.984L124.037 106.042C123.715 105.66 123.227 105.456 122.729 105.489L102.13 106.5C101.662 106.53 101.23 106.764 100.95 107.139L87.896 124.586C87.6753 124.882 87.5632 125.248 87.583 125.62L88.6407 146.763L86.2782 125.396C86.2189 124.849 86.3705 124.299 86.7 123.857L100.674 105.258C100.743 105.166 100.851 105.11 100.963 105.103L103.613 104.942L121.224 103.877Z" fill="#1D5E82"/>
<path d="M168.164 103.877L185.775 104.942L188.424 105.103C188.536 105.11 188.645 105.166 188.714 105.258L202.687 123.857C203.017 124.299 203.169 124.849 203.109 125.396L200.747 146.763L201.804 125.62C201.824 125.248 201.712 124.882 201.491 124.586L188.437 107.139C188.157 106.764 187.725 106.53 187.258 106.5L166.658 105.489C166.16 105.456 165.673 105.66 165.35 106.042L162.829 108.984L162.562 107.775L165.594 103.894C165.673 103.792 165.795 103.736 165.923 103.742L168.164 103.877Z" fill="#1D5E82"/>
<path d="M191.775 157.024C192.375 158.177 192.025 159.544 190.994 160.084C189.96 160.622 188.635 160.124 188.035 158.971C187.436 157.818 187.785 156.447 188.82 155.91C189.851 155.373 191.175 155.87 191.775 157.024Z" fill="#B8EEFF"/>
<path d="M185.888 149.636C187.565 152.859 186.586 156.688 183.7 158.193C180.813 159.696 177.113 158.302 175.433 155.083C173.756 151.861 174.734 148.029 177.621 146.526C180.507 145.02 184.207 146.414 185.888 149.636Z" fill="#B8EEFF"/>
<path d="M100.569 155.91C101.604 156.447 101.953 157.818 101.353 158.971C100.754 160.124 99.429 160.622 98.3945 160.084C97.3632 159.544 97.0139 158.177 97.6136 157.024C98.2132 155.87 99.5378 155.373 100.569 155.91Z" fill="#B8EEFF"/>
<path d="M111.762 146.526C114.649 148.029 115.627 151.861 113.95 155.083C112.27 158.302 108.569 159.696 105.683 158.193C102.797 156.688 101.818 152.859 103.495 149.636C105.176 146.414 108.876 145.02 111.762 146.526Z" fill="#B8EEFF"/>
<path d="M146.236 107.402C146.236 107.531 146.22 107.656 146.19 107.775H143.198C143.169 107.656 143.152 107.531 143.152 107.402C143.152 106.552 143.844 105.864 144.694 105.864C145.544 105.864 146.236 106.552 146.236 107.402Z" fill="#B8EEFF"/>
<path d="M185.714 100.289L185.75 103.179L168.142 102.118L168.109 99.4192C168.109 99.1919 168.297 99.0107 168.521 99.0239L185.345 99.9036C185.549 99.9135 185.714 100.085 185.714 100.289Z" fill="#B8EEFF"/>
<path d="M121.277 99.4192L121.245 102.118L103.637 103.179L103.673 100.289C103.673 100.085 103.838 99.9135 104.042 99.9036L120.866 99.0239C121.09 99.0107 121.277 99.1919 121.277 99.4192Z" fill="#B8EEFF"/>
<path d="M121.244 102.118L121.224 103.877L103.613 104.942L103.636 103.179L121.244 102.118Z" fill="#003C4E"/>
<path d="M185.752 103.179L185.775 104.942L168.164 103.877L168.145 102.118L185.752 103.179Z" fill="#003C4E"/>
<path d="M184.486 111.132C184.869 111.514 185.103 112.038 185.103 112.618C185.103 113.781 184.16 114.72 183.001 114.72H173.379C172.8 114.72 172.272 114.486 171.893 114.104C171.515 113.725 171.277 113.201 171.277 112.618C171.277 111.458 172.22 110.519 173.379 110.519H183.001C183.58 110.519 184.104 110.753 184.486 111.132Z" fill="#003C4E"/>
<path d="M187.588 132.24C187.634 134.279 186.134 135.969 184.24 136.012C182.345 136.055 180.774 134.434 180.728 132.395C180.681 130.355 182.181 128.665 184.075 128.622C185.97 128.579 187.541 130.2 187.588 132.24Z" fill="#003C4E"/>
<path d="M195.395 127.294C195.438 129.189 193.817 130.76 191.777 130.806C189.738 130.853 188.048 129.357 188.005 127.462C187.962 125.568 189.583 123.996 191.622 123.95C193.662 123.904 195.352 125.403 195.395 127.294Z" fill="#003C4E"/>
<path d="M187.588 122.424C187.634 124.463 186.134 126.154 184.24 126.196C182.345 126.239 180.774 124.618 180.728 122.579C180.681 120.539 182.181 118.849 184.075 118.806C185.97 118.763 187.541 120.384 187.588 122.424Z" fill="#003C4E"/>
<path d="M180.305 127.788C180.348 129.683 178.727 131.254 176.688 131.301C174.648 131.347 172.958 129.851 172.915 127.956C172.872 126.062 174.493 124.49 176.533 124.444C178.575 124.398 180.262 125.897 180.305 127.788Z" fill="#003C4E"/>
<path d="M109.65 110.519V114.72H104.454C103.294 114.72 102.352 113.781 102.352 112.618C102.352 112.038 102.585 111.514 102.968 111.132C103.35 110.753 103.874 110.519 104.454 110.519H109.65Z" fill="#003C4E"/>
<path d="M116.007 110.519C117.167 110.519 118.109 111.458 118.109 112.618C118.109 113.201 117.872 113.725 117.493 114.104C117.114 114.486 116.587 114.72 116.007 114.72H111.582V110.519H116.007Z" fill="#003C4E"/>
<path d="M109.121 133.762C109.359 134.2 109.039 134.737 108.542 134.737H102.202C101.715 134.737 101.395 134.22 101.612 133.781L104.403 128.157C104.512 127.933 104.743 127.791 104.993 127.791H105.494C105.738 127.791 105.958 127.923 106.074 128.137L109.121 133.762Z" fill="#003C4E"/>
<path d="M112.659 121.65C112.893 125.146 112.823 128.658 112.454 132.144L112.385 132.786C112.319 133.416 111.492 133.6 111.166 133.06L107.538 127.066C107.403 126.846 107.41 126.569 107.555 126.355L111.407 120.635C111.759 120.111 112.573 120.332 112.612 120.958L112.659 121.65Z" fill="#003C4E"/>
<path d="M108.238 118.773C108.729 118.773 109.049 119.287 108.832 119.725L106.041 125.353C105.929 125.577 105.701 125.719 105.451 125.719H104.947C104.706 125.719 104.482 125.587 104.367 125.373L101.323 119.748C101.085 119.307 101.402 118.773 101.902 118.773H108.238Z" fill="#003C4E"/>
<path d="M102.999 126.322C103.177 126.549 103.184 126.866 103.019 127.103L98.696 133.291C98.3467 133.788 97.5625 133.587 97.4966 132.981L97.411 132.144C97.0419 128.658 96.9727 125.146 97.2034 121.65L97.2627 120.773C97.3022 120.167 98.0699 119.933 98.4422 120.414L102.999 126.322Z" fill="#003C4E"/>
<path d="M201.49 124.585C201.711 124.882 201.823 125.248 201.803 125.62L200.746 146.763L199.638 156.763L167.395 129.772L162.828 108.984L165.349 106.042C165.672 105.66 166.159 105.455 166.657 105.488L187.256 106.5C187.724 106.529 188.156 106.763 188.436 107.139L201.49 124.585ZM191.777 130.806C193.816 130.76 195.437 129.188 195.395 127.294C195.352 125.403 193.662 123.903 191.622 123.949C189.582 123.996 187.961 125.567 188.004 127.462C188.047 129.356 189.737 130.852 191.777 130.806ZM184.238 136.012C186.133 135.969 187.632 134.279 187.586 132.239C187.54 130.2 185.968 128.579 184.073 128.622C182.179 128.664 180.68 130.355 180.726 132.394C180.772 134.434 182.344 136.055 184.238 136.012ZM184.238 126.197C186.133 126.154 187.632 124.463 187.586 122.424C187.54 120.384 185.968 118.763 184.073 118.806C182.179 118.849 180.68 120.539 180.726 122.579C180.772 124.618 182.344 126.239 184.238 126.197ZM185.101 112.618C185.101 112.039 184.868 111.515 184.485 111.132C184.103 110.754 183.579 110.52 182.999 110.52H173.378C172.219 110.52 171.276 111.459 171.276 112.618C171.276 113.202 171.513 113.725 171.892 114.104C172.271 114.487 172.798 114.721 173.378 114.721H182.999C184.159 114.721 185.101 113.781 185.101 112.618ZM176.69 131.3C178.729 131.254 180.35 129.683 180.307 127.788C180.265 125.897 178.578 124.398 176.535 124.444C174.495 124.49 172.874 126.062 172.917 127.956C172.96 129.851 174.65 131.346 176.69 131.3Z" fill="#B8EEFF"/>
<path d="M126.559 108.984L121.993 129.772L89.749 156.763L88.6419 146.763L87.5843 125.62C87.5645 125.248 87.6765 124.882 87.8973 124.585L100.952 107.139C101.232 106.763 101.663 106.529 102.131 106.5L122.731 105.488C123.228 105.455 123.716 105.66 124.039 106.042L126.559 108.984ZM118.111 112.618C118.111 111.459 117.169 110.52 116.009 110.52H111.584V114.721H116.009C116.589 114.721 117.116 114.487 117.495 114.104C117.874 113.725 118.111 113.202 118.111 112.618ZM112.457 132.144C112.826 128.658 112.895 125.146 112.662 121.65L112.615 120.958C112.576 120.332 111.762 120.111 111.409 120.635L107.558 126.355C107.413 126.569 107.406 126.846 107.541 127.066L111.169 133.06C111.495 133.6 112.322 133.416 112.388 132.786L112.457 132.144ZM109.65 114.721V110.52H104.454C103.874 110.52 103.35 110.754 102.968 111.132C102.586 111.515 102.352 112.039 102.352 112.618C102.352 113.781 103.294 114.721 104.454 114.721H109.65ZM108.543 134.737C109.04 134.737 109.36 134.2 109.123 133.762L106.075 128.137C105.96 127.923 105.739 127.791 105.495 127.791H104.994C104.744 127.791 104.513 127.933 104.405 128.157L101.614 133.781C101.396 134.22 101.716 134.737 102.204 134.737H108.543ZM108.833 119.725C109.05 119.287 108.731 118.773 108.24 118.773H101.904C101.403 118.773 101.087 119.307 101.324 119.749L104.368 125.373C104.484 125.587 104.708 125.719 104.948 125.719H105.452C105.703 125.719 105.93 125.577 106.042 125.353L108.833 119.725ZM103.021 127.103C103.185 126.865 103.179 126.549 103.001 126.322L98.4442 120.414C98.0718 119.933 97.3041 120.167 97.2646 120.773L97.2053 121.65C96.9746 125.146 97.0438 128.658 97.4129 132.144L97.4985 132.981C97.5644 133.587 98.3486 133.788 98.6979 133.29L103.021 127.103Z" fill="#B8EEFF"/>
<path d="M162.829 108.984L167.396 129.772H163.995L160.667 110.075C160.598 109.663 160.239 109.36 159.821 109.36H129.564C129.145 109.36 128.786 109.663 128.717 110.075L125.392 129.772H121.992L126.559 108.984L126.826 107.775H143.198H146.19H162.562L162.829 108.984Z" fill="#1D5E82"/>
<path d="M160.666 110.075L163.993 129.772H125.391L128.715 110.075C128.784 109.663 129.143 109.36 129.562 109.36H159.819C160.237 109.36 160.596 109.663 160.666 110.075Z" fill="#B8EEFF"/>
<path d="M199.637 156.763L198.823 164.137C198.724 165.01 198.111 165.738 197.271 165.982L180.457 170.845C179.373 171.158 178.23 170.588 177.831 169.534L167.762 143.073C167.541 142.49 166.981 142.101 166.355 142.101H123.028C122.402 142.101 121.841 142.49 121.621 143.073L111.552 169.534C111.153 170.588 110.01 171.158 108.926 170.845L92.1118 165.982C91.2716 165.738 90.6588 165.01 90.5599 164.137L89.7461 156.763L121.99 129.771H125.39H163.993H167.393L199.637 156.763ZM190.991 160.084C192.022 159.544 192.372 158.177 191.772 157.023C191.172 155.87 189.848 155.373 188.816 155.91C187.782 156.447 187.432 157.817 188.032 158.971C188.632 160.124 189.956 160.621 190.991 160.084ZM183.699 158.193C186.586 156.687 187.564 152.859 185.887 149.636C184.207 146.414 180.507 145.02 177.62 146.526C174.734 148.028 173.755 151.86 175.433 155.083C177.113 158.302 180.813 159.696 183.699 158.193ZM113.95 155.083C115.627 151.86 114.649 148.028 111.762 146.526C108.876 145.02 105.176 146.414 103.496 149.636C101.819 152.859 102.797 156.687 105.683 158.193C108.57 159.696 112.27 158.302 113.95 155.083ZM101.351 158.971C101.95 157.817 101.601 156.447 100.566 155.91C99.5352 155.373 98.2106 155.87 97.611 157.023C97.0113 158.177 97.3606 159.544 98.3918 160.084C99.4264 160.621 100.751 160.124 101.351 158.971Z" fill="#1D5E82"/>
</g>
<defs>
<filter id="filter0_d_1750_116503" x="62.2656" y="79.0232" width="164.855" height="119.908" filterUnits="userSpaceOnUse" color-interpolation-filters="sRGB">
<feFlood flood-opacity="0" result="BackgroundImageFix"/>
<feColorMatrix in="SourceAlpha" type="matrix" values="0 0 0 0 0 0 0 0 0 0 0 0 0 0 0 0 0 0 127 0" result="hardAlpha"/>
<feOffset dy="4"/>
<feGaussianBlur stdDeviation="12"/>
<feComposite in2="hardAlpha" operator="out"/>
<feColorMatrix type="matrix" values="0 0 0 0 0 0 0 0 0 0 0 0 0 0 0 0 0 0 0.16 0"/>
<feBlend mode="normal" in2="BackgroundImageFix" result="effect1_dropShadow_1750_116503"/>
<feBlend mode="normal" in="SourceGraphic" in2="effect1_dropShadow_1750_116503" result="shape"/>
</filter>
<linearGradient id="paint0_linear_1750_116503" x1="144.69" y1="110.52" x2="144.69" y2="46.5693" gradientUnits="userSpaceOnUse">
<stop stop-color="#02BAF1"/>
<stop offset="0.336" stop-color="#02BAF1" stop-opacity="0.544"/>
<stop offset="0.7" stop-color="#02BAF1" stop-opacity="0.05"/>
</linearGradient>
</defs>
</svg>
