<svg width="294" height="209" viewBox="0 0 294 209" fill="none" xmlns="http://www.w3.org/2000/svg">
<g filter="url(#filter0_d_1745_207780)">
<g filter="url(#filter1_d_1745_207780)">
<path d="M265.515 52.9291L249.63 170.432L104.618 174.611L23.5117 147.46L60.371 4.70361L187.59 5.27037L265.515 52.9291Z" stroke="#02BAF1" stroke-miterlimit="10" stroke-dasharray="7 7" shape-rendering="crispEdges"/>
</g>
<path d="M122.185 33.1461L125.625 33.9558C125.821 34.002 125.979 34.1447 126.053 34.3336L128.871 41.5551L127.923 43.2593L125.447 37.6841C125.131 36.9631 124.491 36.4349 123.724 36.2576L92.1929 28.4809C91.4719 28.3151 90.7162 28.4731 90.1263 28.9127L62.5589 49.3357C62.0924 49.6827 61.757 50.1839 61.6182 50.7545L53.668 83.1259L59.7521 49.8292C59.9101 48.9771 60.3882 48.2176 61.0822 47.6971L90.5581 25.9516C90.7046 25.8436 90.8936 25.8089 91.0671 25.8475L95.1347 26.7998L122.185 33.1461Z" fill="#1D5E82"/>
<path d="M192.989 54.3362L219.072 63.8942L222.993 65.3324C223.159 65.394 223.298 65.5251 223.359 65.6986L236.04 100.063C236.337 100.877 236.318 101.775 235.982 102.573L222.773 133.738L233.916 102.323C234.112 101.771 234.109 101.166 233.912 100.622L222.098 68.413C221.844 67.719 221.3 67.1715 220.606 66.917L189.989 56.0905C189.253 55.8168 188.428 55.9055 187.765 56.3334L182.633 59.6338L182.775 57.6906L189.099 53.2027C189.264 53.0832 189.473 53.0562 189.665 53.1217L192.989 54.3362Z" fill="#1D5E82"/>
<path d="M204.61 145.166C204.995 147.175 203.85 149.079 202.05 149.43C200.245 149.773 198.472 148.424 198.09 146.415C197.705 144.406 198.854 142.494 200.654 142.151C202.455 141.808 204.228 143.153 204.61 145.166Z" fill="#B8EEFF"/>
<path d="M199.066 131.367C200.142 136.984 196.938 142.317 191.902 143.284C186.871 144.248 181.916 140.474 180.837 134.86C179.761 129.242 182.969 123.903 188 122.942C193.036 121.975 197.986 125.745 199.066 131.367Z" fill="#B8EEFF"/>
<path d="M67.5352 102.307C68.8538 103.584 68.7613 105.808 67.3347 107.277C65.9081 108.746 63.6873 108.897 62.3687 107.62C61.0578 106.34 61.1465 104.119 62.5731 102.65C63.9996 101.182 66.2243 101.031 67.5352 102.307Z" fill="#B8EEFF"/>
<path d="M88.6584 93.2043C92.3328 96.7745 92.0783 102.997 88.0955 107.1C84.1089 111.198 77.8975 111.63 74.2232 108.06C70.5488 104.486 70.8033 98.2666 74.7861 94.1643C78.7766 90.062 84.9841 89.6301 88.6584 93.2043Z" fill="#B8EEFF"/>
<path d="M158.32 49.7558C158.263 49.9485 158.182 50.1298 158.081 50.2956L153.57 48.9461C153.578 48.7533 153.613 48.5567 153.671 48.3639C154.056 47.08 155.409 46.3551 156.689 46.7407C157.97 47.1224 158.702 48.4719 158.32 49.7558Z" fill="#B8EEFF"/>
<path d="M221.082 56.85L219.833 61.2261L193.754 51.6758L194.922 47.5889C195.026 47.2458 195.389 47.0568 195.72 47.1802L220.701 56.102C221.005 56.21 221.175 56.5416 221.082 56.85Z" fill="#B8EEFF"/>
<path d="M124.276 26.4451L123.008 30.5011L95.9688 24.151L97.3298 19.8096C97.4223 19.5012 97.7462 19.3161 98.0623 19.3932L123.837 25.6624C124.176 25.7433 124.38 26.1019 124.276 26.4451Z" fill="#B8EEFF"/>
<path d="M123.009 30.501L122.184 33.1459L95.1406 26.7997L95.9696 24.1509L123.009 30.501Z" fill="#002733"/>
<path d="M219.835 61.2261L219.075 63.8941L192.988 54.3361L193.756 51.6758L219.835 61.2261Z" fill="#002733"/>
<path d="M214.334 72.6503C214.738 73.3983 214.854 74.2966 214.592 75.1719C214.068 76.9261 212.221 77.917 210.47 77.3927L195.958 73.0475C195.083 72.7853 194.393 72.1954 193.995 71.4474C193.594 70.7033 193.475 69.8088 193.737 68.9258C194.261 67.1754 196.104 66.1845 197.855 66.7089L212.367 71.0541C213.242 71.3163 213.929 71.9062 214.334 72.6503Z" fill="#002733"/>
<path d="M209.483 105.889C208.631 108.985 205.608 110.859 202.732 110.069C199.856 109.278 198.217 106.124 199.069 103.024C199.921 99.9284 202.944 98.0545 205.82 98.8449C208.696 99.6353 210.335 102.793 209.483 105.889Z" fill="#002733"/>
<path d="M223.494 101.956C222.704 104.833 219.55 106.471 216.45 105.619C213.354 104.767 211.48 101.748 212.271 98.872C213.061 95.9958 216.215 94.3571 219.315 95.2092C222.415 96.0613 224.285 99.0841 223.494 101.956Z" fill="#002733"/>
<path d="M213.917 91.0839C213.065 94.1799 210.042 96.0538 207.165 95.2634C204.289 94.473 202.651 91.3191 203.503 88.2192C204.355 85.1232 207.378 83.2494 210.254 84.0398C213.126 84.8302 214.765 87.9879 213.917 91.0839Z" fill="#002733"/>
<path d="M200.514 95.8879C199.724 98.7641 196.57 100.403 193.47 99.5507C190.37 98.6986 188.5 95.6797 189.29 92.8034C190.081 89.9272 193.235 88.2885 196.335 89.1406C199.434 89.9927 201.304 93.0155 200.514 95.8879Z" fill="#002733"/>
<path d="M101.725 37.9384L99.8281 44.2769L91.9897 41.9328C90.2392 41.4084 89.2445 39.5654 89.7689 37.8112C90.031 36.9359 90.6209 36.2535 91.3689 35.8487C92.1169 35.4515 93.0114 35.332 93.8866 35.5942L101.725 37.9384Z" fill="#002733"/>
<path d="M111.317 40.8109C113.067 41.3352 114.062 43.1782 113.542 44.9248C113.28 45.8038 112.686 46.4863 111.942 46.8873C111.198 47.2921 110.295 47.4077 109.42 47.1456L102.746 45.1484L104.643 38.8098L111.317 40.8109Z" fill="#002733"/>
<path d="M90.4354 72.7581C90.5934 73.5254 89.8725 74.1924 89.1206 73.9688L79.5588 71.1079C78.8224 70.8882 78.5756 69.9628 79.1 69.3999L85.8472 62.1746C86.1133 61.8854 86.5258 61.7775 86.9037 61.8893L87.6593 62.1167C88.0256 62.2285 88.2994 62.5254 88.3765 62.8994L90.4354 72.7581Z" fill="#002733"/>
<path d="M101.245 56.0868C100.019 61.4653 98.3299 66.732 96.1978 71.8252L95.8045 72.7621C95.4228 73.6798 94.0888 73.5872 93.842 72.6233L91.0776 61.9434C90.9735 61.5501 91.1084 61.1337 91.4246 60.8754L99.8182 53.9855C100.585 53.3532 101.715 54.0549 101.491 55.0188L101.245 56.0868Z" fill="#002733"/>
<path d="M95.8714 49.7519C96.6117 49.9717 96.8623 50.8932 96.3379 51.4561L89.5868 58.6853C89.3169 58.9745 88.9082 59.0824 88.5304 58.9706L87.7708 58.7431C87.4084 58.6352 87.1308 58.3345 87.0537 57.9605L85.0025 48.1018C84.8445 47.3268 85.5616 46.6675 86.3173 46.8911L95.8714 49.7519Z" fill="#002733"/>
<path d="M84.5612 58.7741C84.727 59.1982 84.5959 59.6763 84.2373 59.9616L74.9223 67.345C74.1704 67.9388 73.0793 67.2795 73.2528 66.3349L73.4995 65.0356C74.5174 59.6108 75.998 54.2824 77.9257 49.112L78.4115 47.8166C78.7431 46.9182 80.0078 46.9144 80.3548 47.8088L84.5612 58.7741Z" fill="#002733"/>
<path d="M233.91 100.622C234.111 101.17 234.115 101.771 233.914 102.323L222.772 133.738L216.587 148.324L180.137 93.05L182.635 59.6337L187.767 56.3334C188.426 55.9016 189.255 55.8129 189.992 56.0905L220.609 66.9169C221.303 67.1714 221.846 67.7189 222.101 68.4129L233.91 100.622ZM216.452 105.619C219.548 106.471 222.706 104.833 223.497 101.956C224.287 99.084 222.413 96.0612 219.317 95.2092C216.221 94.3571 213.063 95.9957 212.273 98.872C211.479 101.748 213.352 104.767 216.452 105.619ZM202.73 110.069C205.607 110.859 208.633 108.985 209.482 105.889C210.334 102.793 208.695 99.6354 205.819 98.845C202.942 98.0546 199.916 99.9284 199.068 103.024C198.212 106.124 199.85 109.278 202.73 110.069ZM207.16 95.2631C210.037 96.0535 213.063 94.1797 213.912 91.0837C214.764 87.9877 213.125 84.8299 210.249 84.0395C207.373 83.2491 204.346 85.123 203.498 88.219C202.646 91.3189 204.284 94.4727 207.16 95.2631ZM214.594 75.1717C214.856 74.2965 214.74 73.402 214.336 72.6502C213.931 71.9061 213.245 71.3161 212.369 71.054L197.857 66.7087C196.107 66.1844 194.264 67.1753 193.739 68.9257C193.477 69.8048 193.597 70.7031 193.997 71.4472C194.395 72.1952 195.085 72.7851 195.96 73.0473L210.472 77.3925C212.223 77.9169 214.07 76.926 214.594 75.1717ZM193.469 99.5544C196.565 100.406 199.723 98.7679 200.513 95.8916C201.304 93.0192 199.434 89.9964 196.334 89.1443C193.238 88.2923 190.08 89.9309 189.29 92.8071C188.499 95.6834 190.373 98.7023 193.469 99.5544Z" fill="#B8EEFF"/>
<path d="M127.924 43.2554L111.65 72.5501L50.8281 98.7063L53.6735 83.1221L61.6237 50.7507C61.7625 50.18 62.098 49.6788 62.5645 49.3318L90.1319 28.9088C90.7256 28.4693 91.4813 28.3112 92.1985 28.477L123.729 36.2537C124.497 36.4272 125.137 36.9554 125.453 37.6802L127.924 43.2554ZM113.543 44.9249C114.067 43.1744 113.069 41.3353 111.318 40.811L104.644 38.8138L102.747 45.1523L109.421 47.1495C110.297 47.4117 111.199 47.296 111.943 46.8912C112.683 46.4864 113.277 45.804 113.543 44.9249ZM96.1967 71.8252C98.3288 66.732 100.018 61.4653 101.244 56.0868L101.487 55.0226C101.71 54.0587 100.58 53.3609 99.8132 53.9893L91.4196 60.8792C91.1035 61.1376 90.9685 61.5501 91.0726 61.9472L93.8371 72.6272C94.0838 73.5911 95.4179 73.6836 95.7996 72.766L96.1967 71.8252ZM99.8286 44.2733L101.726 37.9347L93.8872 35.5905C93.012 35.3283 92.1175 35.444 91.3695 35.845C90.6215 36.2498 90.0316 36.9323 89.7694 37.8075C89.2451 39.5618 90.2437 41.4047 91.9903 41.9291L99.8286 44.2733ZM89.1217 73.9689C89.8735 74.1925 90.5984 73.5294 90.4365 72.7583L88.3776 62.8996C88.3005 62.5256 88.0267 62.2248 87.6604 62.1169L86.9048 61.8894C86.5269 61.7776 86.1144 61.8856 85.8483 62.1747L79.1011 69.4001C78.5767 69.963 78.8235 70.8883 79.5599 71.1081L89.1217 73.9689ZM96.3355 51.4562C96.8598 50.8933 96.6131 49.9718 95.869 49.752L86.311 46.8912C85.5553 46.6637 84.8382 47.3269 84.9962 48.1019L87.0474 57.9606C87.1245 58.3346 87.4021 58.6353 87.7646 58.7433L88.5241 58.9707C88.9019 59.0826 89.3106 58.9746 89.5805 58.6854L96.3355 51.4562ZM84.2406 59.9578C84.5953 59.6725 84.7302 59.1944 84.5644 58.7702L80.358 47.8011C80.0148 46.9066 78.7502 46.9143 78.4148 47.8088L77.929 49.1043C76.0012 54.2746 74.5206 59.603 73.5028 65.0278L73.256 66.3272C73.0825 67.2718 74.1736 67.9272 74.9255 67.3373L84.2406 59.9578Z" fill="#B8EEFF"/>
<path d="M182.634 59.6337L180.135 93.05L175.007 91.5155L178.882 60.3007C178.963 59.6492 178.558 59.0284 177.926 58.8395L132.287 45.1792C131.655 44.9903 130.976 45.2871 130.687 45.877L116.78 74.0883L111.652 72.5538L127.927 43.2591L128.875 41.5549L153.57 48.9461L158.081 50.2955L182.776 57.6867L182.634 59.6337Z" fill="#1D5E82"/>
<path d="M178.883 60.3009L175.008 91.5157L116.777 74.0846L130.684 45.8734C130.974 45.2835 131.652 44.9866 132.284 45.1755L177.923 58.8358C178.559 59.0286 178.964 59.6493 178.883 60.3009Z" fill="#B8EEFF"/>
<path d="M216.591 148.324L212.034 159.081C211.49 160.353 210.237 161.174 208.861 161.163L181.301 160.908C179.523 160.893 178.058 159.516 177.931 157.743L174.689 113.28C174.619 112.301 173.948 111.461 173.004 111.179L107.648 91.6159C106.703 91.3344 105.681 91.666 105.088 92.4487L77.9521 127.816C76.8764 129.227 74.8946 129.57 73.3987 128.61L50.2305 113.681C49.0738 112.933 48.4762 111.561 48.723 110.196L50.8243 98.7063L111.65 72.55L116.778 74.0846L175.009 91.5156L180.136 93.0501L216.591 148.324ZM202.048 149.43C203.848 149.079 204.993 147.175 204.608 145.166C204.222 143.157 202.449 141.808 200.652 142.151C198.848 142.494 197.702 144.403 198.088 146.415C198.474 148.424 200.247 149.773 202.048 149.43ZM191.904 143.284C196.939 142.317 200.143 136.984 199.067 131.367C197.988 125.749 193.037 121.975 188.002 122.942C182.97 123.906 179.762 129.242 180.838 134.86C181.918 140.474 186.872 144.248 191.904 143.284ZM88.0961 107.1C92.0789 102.998 92.3334 96.7746 88.659 93.2044C84.9847 89.6303 78.7733 90.0621 74.7867 94.1644C70.8039 98.2667 70.5494 104.486 74.2238 108.06C77.8981 111.63 84.1095 111.198 88.0961 107.1ZM67.3338 107.277C68.7604 105.808 68.8529 103.584 67.5343 102.307C66.2196 101.031 63.9988 101.185 62.5722 102.654C61.1456 104.123 61.057 106.344 62.3679 107.624C63.6865 108.897 65.9111 108.746 67.3338 107.277Z" fill="#1D5E82"/>
<path d="M273.733 47.3847L266.269 49.6055L258.473 46.9683L266.685 44.7783L273.733 47.3847Z" fill="#B8C1F1"/>
<path d="M273.732 47.3848L266.102 63.8597L266.267 49.6056L273.732 47.3848Z" fill="#02BAF1"/>
<path d="M266.269 49.6055L266.103 63.8595L258.473 46.9683L266.269 49.6055Z" fill="#002733"/>
<path d="M265.512 29.865L273.061 45.2372L266.267 47.377L265.512 29.865Z" fill="#95A0E1"/>
<path d="M265.513 29.865L266.269 47.377L258.473 44.8979L265.513 29.865Z" fill="#F3F6FF"/>
<path d="M261.686 164.988L264.203 169.626V169.63C264.076 170.112 263.883 170.59 263.656 171.002C263.402 171.453 263.112 171.92 262.781 172.39L260.367 167.945C261.026 166.923 261.478 165.921 261.686 164.988Z" fill="#6498FF"/>
<path d="M257.837 171.002L260.22 175.401C259.283 176.331 258.227 177.241 257.07 178.085L254.664 173.651C255.848 172.807 256.912 171.916 257.837 171.002Z" fill="#6498FF"/>
<path d="M252.538 175.035L254.944 179.477C254.875 179.519 254.806 179.562 254.736 179.6C249.716 182.496 244.588 183.722 241.141 183.14C240.262 182.993 239.507 182.438 239.067 181.663L237.066 178.135V178.131L236.148 176.512C237.201 178.332 239.846 178.979 243.173 178.521H243.177C245.899 178.147 249.08 177.036 252.211 175.228C252.323 175.166 252.431 175.101 252.538 175.035Z" fill="#6498FF"/>
<path d="M264.179 167.343C264.465 167.883 264.43 168.762 264.203 169.626L261.685 164.988C261.92 163.958 261.866 163.01 261.484 162.2L262.171 163.515L264.179 167.343Z" fill="#002733"/>
<path d="M254.663 173.651L257.069 178.085C256.395 178.575 255.685 179.041 254.945 179.477L252.539 175.035C253.283 174.596 253.993 174.133 254.663 173.651Z" fill="#002733"/>
<path d="M260.365 167.945L262.779 172.39C262.081 173.385 261.221 174.407 260.219 175.401L257.836 171.002C258.495 170.355 259.081 169.695 259.586 169.04C259.876 168.674 260.134 168.307 260.365 167.945Z" fill="#002733"/>
<path d="M261.483 162.2C261.865 163.01 261.919 163.958 261.684 164.988C261.476 165.921 261.025 166.923 260.365 167.945C260.134 168.307 259.876 168.674 259.587 169.04C260.473 167.413 260.678 165.894 260.018 164.752C258.445 162.023 252.512 162.497 246.774 165.809C241.034 169.121 237.66 174.021 239.233 176.751C239.896 177.896 241.319 178.478 243.173 178.521C239.846 178.979 237.201 178.332 236.148 176.512C234.24 173.204 238.331 167.262 245.29 163.241C252.253 159.224 259.444 158.649 261.356 161.961L261.483 162.2Z" fill="#1D5E82"/>
<path d="M260.019 164.752C260.679 165.894 260.474 167.413 259.587 169.04C259.082 169.695 258.496 170.355 257.837 171.002C256.912 171.916 255.848 172.807 254.664 173.651C253.993 174.133 253.284 174.596 252.54 175.035C252.432 175.101 252.324 175.166 252.212 175.228C249.081 177.036 245.9 178.147 243.178 178.521H243.174C241.32 178.478 239.897 177.896 239.234 176.751C237.661 174.021 241.034 169.121 246.775 165.809C252.513 162.497 258.446 162.023 260.019 164.752Z" fill="#02BAF1"/>
<path d="M178.994 4.93091L178.246 8.18116V8.18502C178.404 8.45876 178.605 8.71708 178.813 8.92914C179.044 9.16047 179.299 9.39566 179.58 9.627L180.297 6.51171C179.727 5.99892 179.279 5.46683 178.994 4.93091Z" fill="#6498FF"/>
<path d="M182.358 7.94214L181.652 11.0227C182.381 11.4314 183.179 11.8054 184.024 12.1216L184.737 9.014C183.877 8.7017 183.079 8.34312 182.358 7.94214Z" fill="#6498FF"/>
<path d="M186.264 9.49993L185.551 12.6114C185.601 12.6268 185.651 12.6384 185.697 12.6499C189.244 13.5598 192.576 13.4365 194.573 12.4996C195.082 12.2605 195.448 11.794 195.587 11.2504L196.208 8.7635V8.75964L196.493 7.61841C196.161 8.90617 194.662 9.74669 192.556 10.032H192.552C190.833 10.2672 188.709 10.1284 186.495 9.55775C186.418 9.54233 186.341 9.51921 186.264 9.49993Z" fill="#6498FF"/>
<path d="M177.876 6.78949C177.795 7.16734 177.964 7.69555 178.25 8.18135L178.998 4.9311C178.682 4.34505 178.55 3.75901 178.647 3.19995L178.45 4.11758L177.876 6.78949Z" fill="#002733"/>
<path d="M184.741 9.01807L184.027 12.1257C184.521 12.3107 185.034 12.4727 185.558 12.6115L186.271 9.50001C185.739 9.35736 185.23 9.19542 184.741 9.01807Z" fill="#002733"/>
<path d="M180.299 6.50806L179.582 9.62337C180.176 10.1092 180.874 10.5872 181.652 11.0229L182.358 7.94232C181.845 7.66086 181.379 7.35629 180.958 7.04399C180.719 6.87049 180.5 6.68927 180.299 6.50806Z" fill="#002733"/>
<path d="M178.644 3.20375C178.548 3.76281 178.679 4.34885 178.995 4.9349C179.281 5.46697 179.724 6.0029 180.298 6.51184C180.499 6.69305 180.719 6.87425 180.958 7.04775C180.14 6.20723 179.759 5.31661 179.967 4.51079C180.46 2.58301 184.154 1.86585 188.21 2.90686C192.266 3.94787 195.15 6.36147 194.657 8.28925C194.448 9.09893 193.681 9.69267 192.559 10.0358C194.664 9.75051 196.164 8.91001 196.496 7.62225C197.097 5.28577 193.6 2.36322 188.68 1.09473C183.761 -0.169894 179.284 0.697626 178.683 3.03796L178.644 3.20375Z" fill="#1D5E82"/>
<path d="M179.97 4.50701C179.762 5.31282 180.144 6.20347 180.961 7.04398C181.381 7.35628 181.848 7.66086 182.361 7.94231C183.078 8.34329 183.876 8.70188 184.743 9.01803C185.233 9.19925 185.742 9.35732 186.27 9.49998C186.347 9.52311 186.424 9.54238 186.501 9.56166C188.715 10.1323 190.839 10.2672 192.559 10.0359H192.562C193.684 9.6966 194.452 9.099 194.66 8.28932C195.153 6.36154 192.269 3.94794 188.213 2.90693C184.157 1.86207 180.464 2.57922 179.97 4.50701Z" fill="#02BAF1"/>
<path d="M129.634 59.7574V59.7612L127.56 64.1681L131.593 65.3479H131.597L133.02 65.7644L136.779 66.867L141.078 68.124L143.773 68.9105L147.436 69.9824L162.075 74.2659L167.415 75.8313L168.217 76.0664L171.506 77.0265L172.551 69.6932V69.6893L172.57 69.5582L173.515 62.9459L169.956 61.8394C169.285 60.4514 168.591 59.1559 167.882 57.9452L176.962 60.7675L174.07 81.0093L123.211 66.1306L129.226 53.334C128.952 55.4546 129.176 57.6985 129.634 59.7574Z" fill="#E5F9FF"/>
<path d="M158.291 54.7067L155.018 57.9068C154.489 57.2745 153.946 56.6653 153.383 56.0831L156.548 52.9871C157.142 53.5346 157.724 54.1052 158.291 54.7067Z" fill="#02BAF1"/>
<path d="M168.216 76.0666L167.414 75.8314L162.074 74.266C161.758 69.3502 159.804 64.6194 157.043 60.5826L160.474 57.2244C164.423 62.1942 167.395 68.5482 168.216 76.0666Z" fill="#02BAF1"/>
<path d="M167.883 57.9453C168.593 59.1559 169.287 60.4514 169.957 61.8394C170.038 62.0013 170.115 62.1633 170.193 62.3252C171.365 64.9239 172.109 67.376 172.572 69.5583L172.552 69.6894V69.6932L171.507 77.0265L168.219 76.0665C167.397 68.5481 164.425 62.1941 160.477 57.2243L164.201 52.5552C165.462 54.1321 166.692 55.9211 167.879 57.9453H167.883Z" fill="#1D5E82"/>
<path d="M162.083 50.1106L158.29 54.7065C157.723 54.105 157.141 53.5344 156.547 52.9869L160.314 48.3679C160.904 48.9077 161.497 49.4899 162.083 50.1106Z" fill="#1D5E82"/>
<path d="M134.559 45.777C133.819 46.1202 133.171 46.5211 132.605 46.9722C132.605 46.9722 132.605 46.9722 132.601 46.9722L132.535 46.953L137.092 42.8661C138.411 41.6862 140.104 41.0154 141.873 40.9768C144.742 40.9151 149.365 41.3778 154.416 44.123L150.606 48.5569C144.634 45.0252 138.5 43.9495 134.559 45.777Z" fill="#1D5E82"/>
<path d="M164.2 52.5553L160.475 57.2244C159.777 56.3415 159.045 55.501 158.289 54.7067L162.083 50.1108C162.796 50.8627 163.502 51.6762 164.2 52.5553Z" fill="#002733"/>
<path d="M160.314 48.368L156.547 52.987C154.646 51.2366 152.637 49.7522 150.605 48.557L154.415 44.123C156.343 45.1718 158.332 46.5521 160.314 48.368Z" fill="#002733"/>
<path d="M160.475 57.2242L157.044 60.5824C156.407 59.6494 155.729 58.7549 155.016 57.9067L158.289 54.7065C159.045 55.5008 159.777 56.3413 160.475 57.2242Z" fill="#1D5E82"/>
<path d="M136.779 66.8669L133.02 65.7642L135.156 63.6707C135.699 64.8813 136.274 65.9763 136.779 66.8669Z" fill="#1D5E82"/>
<path d="M156.548 52.9869L153.382 56.083C151.59 54.2169 149.65 52.6245 147.711 51.3907L150.606 48.5569C152.638 49.7521 154.647 51.2365 156.548 52.9869Z" fill="#1D5E82"/>
<path d="M157.044 60.5825L147.436 69.9824L143.773 68.9105L155.016 57.9067C155.73 58.755 156.408 59.6495 157.044 60.5825Z" fill="#02BAF1"/>
<path d="M153.382 56.0831L141.078 68.1241L136.779 66.8672C136.274 65.9765 135.7 64.8815 135.156 63.6709L147.71 51.3909C149.649 52.6247 151.589 54.217 153.382 56.0831Z" fill="#02BAF1"/>
<path d="M147.71 51.3907L135.156 63.6707C133.089 59.0787 131.451 52.8172 135.78 49.621C138.599 47.5389 143.168 48.4874 147.71 51.3907Z" fill="#1D5E82"/>
<path d="M162.077 74.266L147.438 69.9824L157.046 60.5825C159.806 64.6193 161.761 69.3501 162.077 74.266Z" fill="#1D5E82"/>
<path d="M155.016 57.9067L143.773 68.9105L141.078 68.124L153.381 56.083C153.944 56.6652 154.488 57.2744 155.016 57.9067Z" fill="#1D5E82"/>
<path d="M132.602 46.9722C133.169 46.5211 133.817 46.1201 134.557 45.7769C138.497 43.9494 144.632 45.0251 150.604 48.5568L147.708 51.3907C143.166 48.4874 138.598 47.5389 135.779 49.621C131.449 52.8172 133.088 59.0787 135.154 63.6707L133.019 65.7643L131.596 65.3478H131.592C131.125 64.4109 130.597 63.2003 130.177 61.8354C129.976 61.1761 129.788 60.4821 129.633 59.7611V59.7573C129.175 57.6984 128.951 55.4544 129.225 53.3339C129.506 51.1593 130.316 49.1197 131.947 47.5428C132.151 47.3423 132.367 47.1534 132.602 46.9722Z" fill="#02BAF1"/>
<path d="M131.592 65.348L127.559 64.1682L129.633 59.7612C129.787 60.4822 129.976 61.1762 130.177 61.8355C130.597 63.2004 131.125 64.4111 131.592 65.348Z" fill="#002733"/>
<path d="M173.516 62.9459L172.571 69.5582C172.108 67.3759 171.364 64.9238 170.192 62.3251C170.115 62.1632 170.038 62.0013 169.957 61.8394L173.516 62.9459Z" fill="#002733"/>
<path d="M271.823 86.5586L277.371 86.5586L277.371 81.0104L271.823 81.0104L271.823 86.5586Z" fill="#00C7FC"/>
<path d="M271.823 97.8828L277.371 97.8828L277.371 92.3346L271.823 92.3346L271.823 97.8828Z" fill="#00C7FC"/>
<path d="M271.823 109.207L277.371 109.207L277.371 103.659L271.823 103.659L271.823 109.207Z" fill="#00C7FC"/>
<path d="M271.823 120.532L277.371 120.532L277.371 114.984L271.823 114.984L271.823 120.532Z" fill="#00C7FC"/>
<path d="M283.971 92.2129L289.52 92.2129L289.52 86.6647L283.971 86.6647L283.971 92.2129Z" fill="#00C7FC"/>
<path d="M283.971 103.537L289.52 103.537L289.52 97.9892L283.971 97.9892L283.971 103.537Z" fill="#00C7FC"/>
<path d="M283.971 114.862L289.52 114.862L289.52 109.314L283.971 109.314L283.971 114.862Z" fill="#00C7FC"/>
<path d="M283.971 126.186L289.52 126.186L289.52 120.638L283.971 120.638L283.971 126.186Z" fill="#00C7FC"/>
<path d="M21.8999 81.3447H4.47656V86.8929H21.8999V81.3447Z" fill="#5DDAFF"/>
<path d="M16.3517 92.6685H4.47656V98.2205H16.3517V92.6685Z" fill="#5DDAFF"/>
<path d="M21.8999 103.992H4.47656V109.544H21.8999V103.992Z" fill="#5DDAFF"/>
<path d="M71.612 7.16328C71.9128 8.906 68.2268 11.0034 63.3804 11.8478C58.5301 12.6922 54.3506 11.9635 54.046 10.2208L53.3867 6.4153C53.514 7.13629 54.3082 7.68763 55.5381 8.01921C56.4866 8.27753 57.6973 8.40863 59.0621 8.39321L59.066 8.38935C60.1957 8.37779 61.4333 8.26596 62.7172 8.04234C67.475 7.21725 71.1108 5.18536 70.9643 3.46191L71.612 7.16328Z" fill="#002733"/>
<path d="M68.5863 1.70391L59.063 8.38949L59.0592 8.39335C57.6943 8.40877 56.4836 8.27767 55.5352 8.01935L65.2049 1.38775H65.2088C66.5004 1.36462 67.6571 1.47643 68.5863 1.70391Z" fill="#02BAF1"/>
<path d="M65.206 1.3877L55.5362 8.01929C54.3063 7.68771 53.512 7.13637 53.3848 6.41538C53.0802 4.67266 56.7661 2.57908 61.6164 1.73471C62.8772 1.51494 64.0917 1.40312 65.206 1.3877Z" fill="#1D5E82"/>
<path d="M70.9454 3.36175L70.9608 3.462C71.1073 5.18544 67.4715 7.21733 62.7137 8.04243C61.4298 8.26605 60.1922 8.37787 59.0625 8.38944L68.5858 1.70386C69.9352 2.02773 70.8104 2.59835 70.9454 3.36175Z" fill="#1D5E82"/>
<path d="M31.6151 149.561L18.2363 148.32H18.2324C17.0179 147.314 16.0463 146.292 15.4102 145.355L28.8777 146.755L28.8815 146.758C30.0344 147.703 30.9674 148.667 31.6151 149.561Z" fill="#02BAF1"/>
<path d="M31.6132 149.561C32.5578 150.861 32.9048 152.013 32.4498 152.785C31.4127 154.543 26.6009 153.633 21.7043 150.749C20.4089 149.985 19.2329 149.156 18.2305 148.32H18.2343L31.6132 149.561Z" fill="#1D5E82"/>
<path d="M28.8761 146.755L15.4085 145.355C14.5719 144.14 14.2827 143.065 14.7145 142.336C15.7517 140.578 20.5634 141.492 25.46 144.376C26.7324 145.124 27.8852 145.933 28.8761 146.755Z" fill="#1D5E82"/>
<path d="M32.4512 152.785L30.188 156.625C29.1509 158.383 24.3391 157.473 19.4464 154.589C14.5459 151.705 11.4152 147.938 12.4524 146.176H12.4562L14.7156 142.336C14.2838 143.065 14.5729 144.141 15.4096 145.355C16.0458 146.292 17.0174 147.314 18.2319 148.32C19.2343 149.157 20.4103 149.986 21.7057 150.749C26.6023 153.633 31.4141 154.543 32.4512 152.785Z" fill="#002733"/>
<path d="M147.408 174.85C147.825 176.281 146.992 177.395 145.612 177.946L89.9333 200.378C89.2855 200.64 88.5452 200.517 88.0209 200.058L63.8156 178.817C62.9288 178.039 61.83 177.233 61.7297 176.057C61.5601 174.083 63.4146 173.589 63.4146 173.589C62.3582 173.963 62.0921 175.336 62.9288 176.076L88.4951 198.685C88.9115 199.055 89.5014 199.156 90.0181 198.951L115.415 188.711L122.274 185.946L124.622 184.998L127.032 184.03L146.298 176.261C147.335 175.841 147.543 174.461 146.672 173.755C147.057 174.04 147.285 174.43 147.408 174.85Z" fill="#002733"/>
<path d="M146.671 173.755C147.542 174.461 147.334 175.841 146.297 176.261L127.031 184.03L101.137 160.28L120.515 153.444C120.997 153.274 121.533 153.367 121.93 153.687L146.671 173.755Z" fill="#02BAF1"/>
<path d="M127.033 184.03L124.623 184.998L98.6367 161.163L101.139 160.28L127.033 184.03Z" fill="#1D5E82"/>
<path d="M124.622 184.998L122.274 185.946L96.1953 162.026L98.6359 161.163L124.622 184.998Z" fill="#02BAF1"/>
<path d="M122.274 185.946L115.415 188.711L89.0625 164.54L96.1953 162.026L122.274 185.946Z" fill="#1D5E82"/>
<path d="M83.4477 178.983L77.005 181.058C76.7775 181.131 76.712 181.42 76.8855 181.586L78.181 182.715L79.4224 183.803L80.8721 185.071H80.876L82.6033 186.583C82.692 186.664 82.8192 186.691 82.931 186.648L89.1231 184.269L94.7175 182.118C94.9411 182.037 94.9951 181.74 94.8139 181.586L93.6341 180.576L92.4581 179.562L91.2205 178.501L89.6397 177.144C89.5549 177.075 89.4431 177.052 89.339 177.086L83.4477 178.983ZM115.414 188.711L90.0176 198.951C89.5009 199.156 88.911 199.055 88.4946 198.685L62.9283 176.076C62.0916 175.336 62.3577 173.963 63.4141 173.589L89.0614 164.54L115.414 188.711Z" fill="#02BAF1"/>
<path d="M89.1221 184.269L82.93 186.648C82.8182 186.691 82.691 186.664 82.6023 186.583L80.875 185.071L84.9002 183.683C85.2973 183.548 85.6366 183.275 85.8487 182.912C86.1571 182.395 86.7085 182.068 87.31 182.045L89.0951 181.968C89.2532 181.964 89.4112 181.933 89.5655 181.887L93.6331 180.576L94.8129 181.586C94.9941 181.74 94.9402 182.037 94.7165 182.118L89.1221 184.269Z" fill="#FFDB43"/>
<path d="M92.4569 179.562L93.6328 180.576L89.5652 181.886C89.411 181.933 89.2529 181.964 89.0948 181.967L87.3097 182.044C86.7082 182.068 86.1569 182.395 85.8484 182.912C85.6364 183.274 85.2971 183.548 84.9 183.683L80.8747 185.071H80.8709L79.4212 183.803L78.1797 182.715L83.1611 181.385C83.3192 181.339 83.485 181.32 83.6508 181.323L84.9 181.358C85.4937 181.374 86.0566 181.077 86.3766 180.579C86.581 180.263 86.8779 180.024 87.2287 179.897L91.2192 178.501L92.4569 179.562Z" fill="#FFE266"/>
<path d="M83.4497 178.983L89.3411 177.086C89.4452 177.052 89.557 177.075 89.6418 177.144L91.2226 178.501L87.2321 179.897C86.8812 180.024 86.5843 180.263 86.38 180.579C86.06 181.077 85.4971 181.374 84.9033 181.358L83.6541 181.324C83.4883 181.32 83.3225 181.339 83.1644 181.385L78.183 182.715L76.8876 181.586C76.7141 181.42 76.7796 181.131 77.0071 181.058L83.4497 178.983Z" fill="#FFDB43"/>
<path d="M94.8725 181.513L89.6983 177.071C89.5865 176.978 89.44 176.952 89.305 176.994L76.971 180.965C76.8322 181.011 76.732 181.123 76.6973 181.266C76.6664 181.409 76.7088 181.555 76.8207 181.659L80.8073 185.145L80.869 185.067L80.8729 185.075L80.8112 185.145L82.5346 186.652C82.6156 186.725 82.7158 186.764 82.8199 186.764C82.8662 186.764 82.9163 186.756 82.9626 186.737L94.7452 182.207C94.884 182.16 94.9843 182.041 95.0113 181.898C95.0344 181.752 94.9843 181.609 94.8725 181.513ZM76.9479 181.517C76.8901 181.463 76.8669 181.385 76.8862 181.308C76.9016 181.231 76.9595 181.173 77.0327 181.15L83.4214 179.091L84.7439 180.209L84.8672 180.063L83.6373 179.022L89.3667 177.179C89.4361 177.152 89.5132 177.167 89.5749 177.218L91.0285 178.467L87.1922 179.809C86.822 179.94 86.5097 180.19 86.2938 180.526C85.9931 180.996 85.4571 181.277 84.9019 181.262L83.6527 181.227C83.4677 181.223 83.2942 181.247 83.1361 181.293L78.2009 182.611L76.9479 181.517ZM79.6121 183.845L82.8315 182.878L82.7775 182.692L79.4424 183.695L78.3745 182.762L83.1862 181.478C83.3289 181.436 83.4831 181.412 83.645 181.42L84.8942 181.455C85.5188 181.47 86.1203 181.154 86.4557 180.634C86.6485 180.329 86.93 180.109 87.2577 179.99L91.1981 178.609L93.4382 180.537L89.5363 181.794C89.3744 181.844 89.2279 181.867 89.0891 181.871L87.304 181.948C86.6678 181.971 86.0895 182.315 85.7617 182.862C85.5651 183.205 85.2451 183.464 84.8672 183.591L80.8921 184.963L79.6121 183.845ZM94.6797 182.029L89.1392 184.158L87.9787 183.155L87.8553 183.302L88.9349 184.235L82.8932 186.56C82.8161 186.587 82.7274 186.567 82.6619 186.51L81.0618 185.11L84.9289 183.776C85.353 183.629 85.7078 183.34 85.9275 182.962C86.2244 182.469 86.7411 182.164 87.3117 182.141L89.0968 182.064C89.251 182.06 89.413 182.033 89.5942 181.979L93.6117 180.684L94.7491 181.659C94.8069 181.709 94.8339 181.786 94.8185 181.864C94.8069 181.941 94.7529 182.002 94.6797 182.029Z" fill="#002733"/>
</g>
<defs>
<filter id="filter0_d_1745_207780" x="0.476562" y="0.513672" width="293.043" height="208" filterUnits="userSpaceOnUse" color-interpolation-filters="sRGB">
<feFlood flood-opacity="0" result="BackgroundImageFix"/>
<feColorMatrix in="SourceAlpha" type="matrix" values="0 0 0 0 0 0 0 0 0 0 0 0 0 0 0 0 0 0 127 0" result="hardAlpha"/>
<feOffset dy="4"/>
<feGaussianBlur stdDeviation="2"/>
<feComposite in2="hardAlpha" operator="out"/>
<feColorMatrix type="matrix" values="0 0 0 0 0 0 0 0 0 0 0 0 0 0 0 0 0 0 0.25 0"/>
<feBlend mode="normal" in2="BackgroundImageFix" result="effect1_dropShadow_1745_207780"/>
<feBlend mode="normal" in="SourceGraphic" in2="effect1_dropShadow_1745_207780" result="shape"/>
</filter>
<filter id="filter1_d_1745_207780" x="18.9102" y="4.2019" width="251.145" height="178.912" filterUnits="userSpaceOnUse" color-interpolation-filters="sRGB">
<feFlood flood-opacity="0" result="BackgroundImageFix"/>
<feColorMatrix in="SourceAlpha" type="matrix" values="0 0 0 0 0 0 0 0 0 0 0 0 0 0 0 0 0 0 127 0" result="hardAlpha"/>
<feOffset dy="4"/>
<feGaussianBlur stdDeviation="2"/>
<feComposite in2="hardAlpha" operator="out"/>
<feColorMatrix type="matrix" values="0 0 0 0 0 0 0 0 0 0 0 0 0 0 0 0 0 0 0.3 0"/>
<feBlend mode="normal" in2="BackgroundImageFix" result="effect1_dropShadow_1745_207780"/>
<feBlend mode="normal" in="SourceGraphic" in2="effect1_dropShadow_1745_207780" result="shape"/>
</filter>
</defs>
</svg>
