<svg width="259" height="201" viewBox="0 0 259 201" fill="none" xmlns="http://www.w3.org/2000/svg">
<path d="M38.3091 167.972C20.3838 150.498 9.25 126.085 9.25 99.0741C9.25 46.7684 50.9891 4.21286 102.977 2.89429" stroke="#02BAF1" stroke-miterlimit="10"/>
<path d="M130.229 192.068C122.328 194.167 114.026 195.283 105.465 195.283C80.7297 195.283 58.1767 185.948 41.1328 170.613" stroke="#02BAF1" stroke-miterlimit="10"/>
<path d="M122.99 192.938C176.126 192.938 219.202 149.863 219.202 96.726C219.202 43.5894 176.126 0.513672 122.99 0.513672C69.8531 0.513672 26.7773 43.5894 26.7773 96.726C26.7773 149.863 69.8531 192.938 122.99 192.938Z" fill="#1D5E82"/>
<path d="M218.785 87.7055H171.988V43.6797H203.273" stroke="white" stroke-width="0.9" stroke-miterlimit="10"/>
<path d="M203.273 43.6797H257.613V87.7055H218.786" stroke="#02BAF1" stroke-width="0.9" stroke-miterlimit="10"/>
<path d="M100.417 154.758L85.2189 178.542C84.8469 177.307 84.5398 176.071 84.3086 174.854L99.9364 151.802C100.038 152.843 100.207 153.829 100.417 154.758Z" fill="#267CAB"/>
<path d="M155.226 59.8638L156.024 66.8793L139.714 92.9184C139.388 90.6822 139.034 88.5255 138.666 86.4664C138.641 86.3399 138.619 86.2135 138.594 86.0871V86.0835L155.226 59.8638Z" fill="#003C4E"/>
<path d="M155.226 59.8637L138.59 86.0834V86.087L136.578 89.2552C136.304 88.0848 136.022 86.9757 135.729 85.9426L151.729 60.7235L99.4594 30.7034L33.7838 139.596L81.1078 167.687L83.1164 168.879L93.1122 153.117L103.401 136.901L103.505 136.969C101.352 140.459 100.316 143.851 99.9652 146.965L93.8853 156.549L83.922 172.253L81.3499 170.729L30.3555 140.459L44.7731 116.555L56.7341 96.7187L58.5187 93.7637L67.9402 78.1431L76.3429 64.2132L84.5361 50.6265L98.5888 27.3293L155.226 59.8637Z" fill="#02BAF1"/>
<path d="M151.735 60.7271L135.735 85.9462C135.272 84.3097 134.796 82.8647 134.301 81.6834C133.101 78.8114 130.175 76.9907 127.072 77.1063C124.865 77.1858 122.881 77.6807 120.895 79.8663C118.76 82.2145 118.734 84.7107 119.435 89.7466C120.064 94.2586 121.039 102.029 121.653 108.149L103.41 136.908L93.1214 153.125L83.1256 168.886L81.117 167.694L33.793 139.603L99.4687 30.7107L151.735 60.7271Z" fill="#B8EEFF"/>
<path d="M100.416 154.761C100.207 153.829 100.04 152.843 99.9356 151.806C99.7911 150.292 99.7766 148.674 99.9681 146.973C100.319 143.859 101.355 140.466 103.508 136.977C105.076 134.43 107.244 131.832 110.166 129.249C111.033 128.48 111.857 127.732 112.63 127.01C112.634 127.01 112.637 127.006 112.637 127.002C114.342 125.409 115.827 123.917 117.12 122.516L117.124 122.512C119.338 120.095 120.986 117.928 122.196 115.912C122.2 115.161 122.174 114.348 122.116 113.474C122.088 113.08 122.059 112.654 122.023 112.213C121.968 111.559 121.911 110.858 121.838 110.118C121.781 109.485 121.715 108.828 121.647 108.152C121.029 102.029 120.057 94.2622 119.429 89.7502C118.728 84.7143 118.753 82.2217 120.888 79.8699C122.875 77.6807 124.858 77.1858 127.066 77.1099C130.172 76.9943 133.099 78.815 134.294 81.687C134.789 82.8683 135.27 84.3133 135.728 85.9498C136.021 86.983 136.303 88.092 136.577 89.2625C137.054 91.2927 137.502 93.4963 137.914 95.7903C137.983 96.184 138.055 96.5814 138.124 96.9824C139.663 105.902 140.656 115.854 140.631 121.584C140.605 126.927 139.2 132.176 137.051 137.067C127.185 159.53 128.619 168.232 130.487 183.864C132.513 200.842 110.408 200.507 110.408 200.507C97.508 200.835 88.5525 189.636 85.2109 178.55L100.416 154.761Z" fill="#003C4E"/>
<path d="M139.71 92.9185L137.919 95.7832C137.503 93.4892 137.055 91.2856 136.582 89.2553L138.594 86.0872C138.619 86.2136 138.641 86.34 138.666 86.4665C139.031 88.5256 139.389 90.6823 139.71 92.9185Z" fill="#001F29"/>
<path d="M122.112 113.467C122.17 114.341 122.195 115.154 122.192 115.905C120.981 117.921 119.33 120.092 117.12 122.505L117.116 122.509C115.823 123.914 114.342 125.402 112.633 126.995L122.018 112.202C122.054 112.646 122.083 113.073 122.112 113.467Z" fill="#001F29"/>
<path d="M122.021 112.206L112.636 126.999C112.636 127.003 112.632 127.006 112.629 127.006C111.852 127.732 111.032 128.48 110.165 129.246C107.242 131.829 105.075 134.426 103.507 136.973L103.402 136.905L121.646 108.145C121.714 108.824 121.776 109.482 121.837 110.11C121.909 110.851 121.971 111.552 122.021 112.206Z" fill="#02BAF1"/>
<path d="M93.8891 156.553L99.969 146.969C99.7775 148.67 99.792 150.289 99.9365 151.803L84.3087 174.854C84.1389 173.98 84.0125 173.113 83.9258 172.257L93.8891 156.553Z" fill="#2B8BC0"/>
<path d="M84.5358 50.6337L76.3426 64.2204C75.2082 63.8483 74.1281 63.469 73.1094 63.0861C74.3268 56.0272 77.1987 51.6777 79.6408 49.1489L84.5358 50.6337Z" fill="#00475C"/>
<path d="M84.3088 174.854L31.3131 143.331L30.3594 140.463L81.3538 170.732L83.9259 172.257C84.0126 173.113 84.1426 173.98 84.3088 174.854Z" fill="#003C4E"/>
<path d="M67.8039 45.5511L79.6385 49.1456C77.2001 51.6744 74.3245 56.0238 73.1071 63.0827C73.0493 63.061 72.9879 63.0394 72.9337 63.0177C72.175 62.7323 71.4453 62.4433 70.7481 62.1579H70.7445C65.9904 60.2144 62.6958 58.3322 60.8281 57.1437C59.5673 56.3417 58.8846 54.8895 59.0471 53.4048C59.5204 49.1492 61.9444 47.0034 63.8265 45.9593C65.0475 45.2874 66.4781 45.1502 67.8039 45.5511Z" fill="#003C4E"/>
<path d="M76.3437 64.2169L67.941 78.1468C66.1673 78.2913 64.4369 78.4069 62.8148 78.4792C59.9573 78.6128 57.4358 78.6273 55.597 78.4792H55.5934C54.152 78.3636 53.1333 78.1505 52.6998 77.8145C52.6528 77.7784 52.6059 77.7422 52.5625 77.7061C58.9856 78.8585 61.6624 76.7741 64.9426 72.0417C68.0675 67.5296 71.0839 64.5963 72.9335 63.0176C72.9913 63.0393 73.0491 63.0609 73.1069 63.0826C74.1329 63.4655 75.2094 63.8448 76.3437 64.2169Z" fill="#00475C"/>
<path d="M70.7518 62.1577C71.449 62.4431 72.1787 62.7321 72.9373 63.0175C71.0841 64.5998 68.0713 67.5295 64.9464 72.0416C61.6663 76.774 58.9894 78.8584 52.5663 77.706C47.1692 73.3782 51.2225 66.9624 51.2225 66.9624C52.8228 63.581 64.3973 62.5406 70.7518 62.1577Z" fill="#003C4E"/>
<path d="M67.9407 78.1467L58.5192 93.7673C57.6305 93.9587 56.7743 94.0671 55.9688 94.0707C57.2548 92.3584 58.3458 90.2956 59.1586 87.8102C60.8132 82.7455 62.0233 79.9783 62.8109 78.4791C64.4365 78.4068 66.1669 78.2912 67.9407 78.1467Z" fill="#00475C"/>
<path d="M62.8127 78.4829C62.0215 79.9821 60.815 82.7493 59.1604 87.8141C58.3476 90.2995 57.2566 92.3622 55.9706 94.0746C53.8175 94.0854 52.0185 93.3701 50.8516 91.5928C46.7225 85.2997 51.7945 80.7805 55.5949 78.4829H55.5985C57.4373 78.631 59.9552 78.6166 62.8127 78.4829Z" fill="#003C4E"/>
<path d="M56.7389 96.7261L44.7779 116.562C44.5069 116.393 44.2504 116.216 44.0156 116.024L54.3511 98.4745C55.2072 97.8243 56.0164 97.2391 56.7389 96.7261Z" fill="#00475C"/>
<path d="M54.3499 98.4709L44.0145 116.021C42.7681 114.998 42.042 113.6 42.4069 111.61C43.1583 107.567 49.5055 102.116 54.3499 98.4709Z" fill="#003C4E"/>
<path d="M17.896 94.4501C17.9213 94.6126 17.9358 94.7716 17.9358 94.9269C17.9358 96.3286 16.9207 97.5641 15.4937 97.7989L12.3869 98.3119L12.5387 99.1319L13.1889 102.661C13.2106 102.781 13.2287 102.9 13.2431 103.015V103.019C13.3984 104.356 12.9794 105.508 11.0033 105.84L10.6312 105.909C7.99049 106.415 7.73039 105.201 7.45584 103.72L6.6358 99.262L3.78191 99.7316C1.31455 100.313 0.689585 98.9151 0.429483 97.3292C0.169381 95.7397 1.2423 94.2369 2.83181 93.9768L4.71755 93.6661L5.57733 93.5217L4.88734 89.7827C4.61278 88.3015 5.59539 86.8782 7.07653 86.6037L7.44862 86.535C8.92975 86.2605 10.3495 87.2431 10.624 88.7242L11.3321 92.5716L14.5472 92.0441C16.1331 91.7804 17.6359 92.857 17.896 94.4501Z" fill="#5DDAFF"/>
<path d="M17.8958 94.4502C18.9796 98.4276 15.7861 98.5974 14.7854 98.7599L12.5384 99.132L12.3867 98.312L15.4935 97.799C16.9204 97.5642 17.9356 96.3251 17.9356 94.9271C17.9356 94.7681 17.9211 94.6091 17.8958 94.4502Z" fill="#1D5E82"/>
<path d="M13.2433 103.015C13.9514 106.31 11.2203 106.624 10.2955 106.798L9.92341 106.866C7.727 107.3 7.02255 106.158 6.748 104.677L5.92796 100.219L3.07407 100.689C1.17749 100.942 0.426088 99.7786 0.4297 97.3257C0.689802 98.9116 1.31477 100.31 3.78212 99.728L6.63601 99.2584L7.45606 103.716C7.73061 105.197 7.9871 106.411 10.6315 105.905L11.0036 105.837C12.9796 105.508 13.3987 104.352 13.2433 103.015Z" fill="#1D5E82"/>
<path d="M4.88607 89.7828L5.57606 93.5218L4.71629 93.6663L4.17802 90.7474C3.99378 89.7612 3.39771 87.1493 7.07165 86.6074C5.59051 86.8784 4.61152 88.3017 4.88607 89.7828Z" fill="#1D5E82"/>
<path d="M122.175 112.195C122.121 111.541 122.063 110.84 121.991 110.1C121.933 109.467 121.868 108.81 121.799 108.131C121.181 102 120.217 94.2912 119.581 89.7214C118.884 84.7144 118.927 82.2507 121.001 79.9676C123.056 77.7025 125.133 77.3268 127.07 77.2582L127.059 76.9475C125.054 77.0198 122.905 77.4063 120.773 79.758C118.616 82.1315 118.562 84.653 119.274 89.7611C119.91 94.3274 120.874 102.033 121.492 108.16C121.561 108.839 121.622 109.493 121.684 110.125C121.756 110.866 121.814 111.563 121.868 112.217C121.9 112.657 121.933 113.08 121.962 113.474C122.016 114.297 122.045 115.099 122.041 115.862C120.802 117.917 119.155 120.059 117.005 122.404C115.698 123.824 114.195 125.33 112.533 126.883L112.482 126.93C111.724 127.638 110.911 128.379 110.066 129.127C107.291 131.58 105.041 134.192 103.379 136.89C101.406 140.084 100.207 143.469 99.8133 146.951C99.6363 148.551 99.6254 150.188 99.7808 151.817C99.8783 152.796 100.041 153.797 100.265 154.79L100.568 154.722C100.348 153.743 100.189 152.753 100.091 151.788C99.9361 150.181 99.947 148.566 100.12 146.987C100.507 143.552 101.692 140.21 103.639 137.053C105.286 134.379 107.515 131.793 110.268 129.358C111.117 128.607 111.933 127.866 112.696 127.154L112.793 127.151V127.064C114.44 125.521 115.936 124.026 117.237 122.61C119.245 120.421 120.813 118.405 122.027 116.465C122.001 117.469 121.933 118.419 121.806 119.29C121.64 120.471 121.376 121.537 121.026 122.458L121.315 122.57C121.676 121.627 121.944 120.54 122.113 119.333C122.265 118.286 122.341 117.13 122.348 115.901C122.352 115.121 122.323 114.297 122.269 113.448C122.24 113.062 122.211 112.636 122.175 112.195Z" fill="#001F29"/>
<path d="M100.786 155.632C100.71 155.339 100.634 155.039 100.565 154.729L100.262 154.797C100.33 155.112 100.406 155.415 100.486 155.711C100.789 156.857 101.168 157.984 101.62 159.06C102.653 161.542 103.726 163.038 103.737 163.052L103.99 162.871C103.979 162.857 102.928 161.387 101.909 158.941C101.465 157.875 101.085 156.759 100.786 155.632Z" fill="#001F29"/>
<path d="M105.5 89C114.06 89 121 82.0604 121 73.5C121 64.9396 114.06 58 105.5 58C96.9396 58 90 64.9396 90 73.5C90 82.0604 96.9396 89 105.5 89Z" fill="#1D5E82"/>
<path d="M124.142 64.9999L121.406 68.79L122.291 69.4286L125.027 65.6384L124.142 64.9999Z" fill="#02BAF1"/>
<path d="M121.639 65.4152L121 66.2998L124.79 69.0359L125.429 68.1513L121.639 65.4152Z" fill="#02BAF1"/>
<path d="M89.7704 135.196C99.1709 128.121 101.669 115.58 95.3505 107.184C89.0318 98.7875 76.2888 97.7161 66.8883 104.791C57.4878 111.865 54.9895 124.407 61.3082 132.803C67.6269 141.199 80.3699 142.27 89.7704 135.196Z" fill="#1D5E82"/>
<path d="M67.7702 126.853L64.6562 117.605L66.9032 116.85L69.255 123.84L93.3903 115.539L94.1597 117.775L67.7702 126.853Z" fill="#54F297"/>
<path d="M109.743 82.387C109.384 81.9551 109.19 81.5577 109.123 81.171C109.083 80.9689 109.086 80.7623 109.117 80.5734C111.534 80.5828 113.108 78.8295 113.943 76.8036C113.969 76.7342 113.998 76.6629 114.024 76.5979C114.165 76.711 114.328 76.8498 114.497 77.0074C114.596 77.1051 114.698 77.2077 114.799 77.3147C114.938 77.4676 115.075 77.6335 115.205 77.8118C115.315 77.9669 115.422 78.1349 115.516 78.3053C115.852 78.9273 116.03 79.6564 115.829 80.4513C115.443 81.9833 111.989 85.0574 109.743 82.387Z" fill="#02BAF1"/>
<path d="M115.519 78.3032C115.426 78.1328 115.32 77.9673 115.209 77.8097C115.08 77.6339 114.941 77.4655 114.802 77.3126C116.01 74.9102 116.252 71.205 111.013 66.795C105.772 62.3825 102.163 63.2528 100.003 64.8529C99.8287 64.7413 99.6402 64.6364 99.444 64.5369C99.2702 64.4521 99.0881 64.3771 98.9021 64.3127C100.802 62.5564 105.603 60.6976 111.774 65.891C117.936 71.083 116.833 76.2046 115.519 78.3032Z" fill="#02BAF1"/>
<path d="M97.7599 71.0091C97.5762 71.0741 97.3773 71.1078 97.1713 71.1004C97.0593 71.1053 96.9455 71.0922 96.8306 71.0721C96.6976 71.0537 96.5575 71.0098 96.4112 70.9626C96.2383 70.9002 96.0539 70.8115 95.8616 70.7015C92.8452 68.9449 95.2885 65.0174 96.7307 64.3748C97.4778 64.0363 98.2283 64.0925 98.8972 64.3164C99.0832 64.3809 99.2653 64.4558 99.4392 64.5407C99.6353 64.6401 99.8239 64.745 99.9981 64.8566C100.119 64.9377 100.239 65.0231 100.352 65.1029C100.537 65.2451 100.701 65.3796 100.836 65.5007C100.774 65.538 100.71 65.577 100.646 65.6161C98.7984 66.7792 97.3363 68.6278 97.7599 71.0091Z" fill="#02BAF1"/>
<path d="M107.188 80.232C107.047 80.3816 106.885 80.5346 106.705 80.6893C105.306 81.8976 102.754 83.1364 99.5383 80.4271C96.3222 77.7178 97.1075 74.9917 98.0586 73.4091C98.1817 73.2033 98.3059 73.0199 98.4274 72.8539C99.0778 74.0591 100.196 75.3656 101.916 76.7633C102.195 76.9869 102.471 77.2211 102.741 77.4589C104.41 78.9176 105.888 79.799 107.188 80.232Z" fill="#02BAF1"/>
<path d="M97.7601 71.0103C97.5763 71.0753 97.3774 71.1091 97.1715 71.1017C97.098 70.685 97.0774 70.2722 97.1059 69.858C97.2327 68.0341 98.3754 66.3498 100.335 65.1126C100.344 65.1096 100.345 65.1053 100.354 65.1023C100.539 65.2445 100.703 65.379 100.838 65.5001C100.777 65.5374 100.713 65.5764 100.649 65.6155C98.7985 66.7805 97.3364 68.629 97.7601 71.0103Z" fill="#001F29"/>
<path d="M102.735 77.461C104.406 78.9179 105.884 79.7992 107.184 80.2322C107.043 80.3818 106.881 80.5349 106.701 80.6896C105.437 80.2109 104.09 79.3766 102.676 78.1866C102.567 78.0964 102.458 77.9992 102.346 77.9039C102.213 77.7853 102.083 77.6718 101.947 77.5594C101.811 77.447 101.676 77.3371 101.538 77.2265C101.427 77.1337 101.316 77.0453 101.204 76.95C99.79 75.76 98.7379 74.575 98.0521 73.4111C98.1753 73.2054 98.2995 73.022 98.4209 72.856C99.0714 74.0612 100.189 75.3677 101.91 76.7654C102.189 76.989 102.464 77.2232 102.735 77.461Z" fill="#001F29"/>
<path d="M110.367 81.0211C109.965 81.119 109.554 81.1689 109.126 81.1695C109.086 80.9673 109.09 80.7607 109.121 80.5719C111.538 80.5812 113.112 78.8279 113.947 76.802C113.973 76.7326 114.002 76.6614 114.028 76.5964C114.168 76.7094 114.331 76.8483 114.501 77.0059C114.499 77.0146 114.497 77.0164 114.493 77.0269C113.604 79.1692 112.142 80.5902 110.367 81.0211Z" fill="#001F29"/>
<path d="M101.912 76.765C102.19 76.993 102.466 77.2228 102.735 77.4581C108.969 82.9062 112.521 80.2458 113.942 76.8035C115.83 72.2377 110.24 67.7066 110.24 67.7066C110.24 67.7066 104.827 62.969 100.646 65.6076C97.4987 67.598 95.4814 71.5493 101.912 76.765Z" fill="#02BAF1"/>
<path d="M101.754 74.6549L101.672 74.7224C101.585 74.7936 101.512 74.878 101.452 74.9756C101.426 75.0182 101.402 75.059 101.382 75.1005C101.346 75.1729 101.325 75.2498 101.306 75.3293C101.282 75.4279 101.275 75.5293 101.282 75.6327L101.283 75.6551C101.3 75.8738 101.395 76.0821 101.562 76.2217C102.045 76.6238 102.726 76.8697 103.166 76.9956C103.466 77.0801 103.79 76.9588 103.971 76.6996C104.199 76.3743 104.311 76.0109 104.362 75.7426C104.418 75.4663 104.304 75.1793 104.073 75.0166C103.54 74.64 102.817 74.5057 102.384 74.4564C102.16 74.435 101.93 74.5064 101.754 74.6549Z" fill="#003C4E"/>
<path d="M101.311 75.3296C100.284 74.9702 98.3331 74.1268 97.194 72.6121C96.8319 72.1329 96.554 71.5844 96.4076 70.9628C96.5514 71.0118 96.6922 71.0515 96.827 71.0723C97.4843 73.325 100.205 74.5348 101.454 74.9778C101.428 75.0204 101.402 75.0587 101.384 75.1027C101.348 75.1751 101.325 75.2495 101.311 75.3296Z" fill="#001F29"/>
<path d="M106.764 75.3231C108.509 75.1733 109.802 73.6374 109.652 71.8927C109.502 70.1479 107.966 68.8549 106.222 69.0047C104.477 69.1545 103.184 70.6903 103.334 72.4351C103.483 74.1798 105.019 75.4728 106.764 75.3231Z" fill="#003C4E"/>
<path d="M104.18 73.7413C105.214 75.1546 107.198 75.4621 108.611 74.428C110.025 73.394 110.332 71.41 109.298 69.9967C108.264 68.5834 106.28 68.276 104.867 69.3101C103.454 70.3441 103.146 72.3281 104.18 73.7413Z" fill="#B8EEFF"/>
<path d="M105.771 72.5785C106.162 73.1138 106.914 73.2303 107.449 72.8386C107.984 72.4469 108.101 71.6954 107.709 71.16C107.318 70.6247 106.566 70.5082 106.031 70.8999C105.495 71.2916 105.379 72.0431 105.771 72.5785Z" fill="#003C4E"/>
<path d="M184.975 164.184C186.5 166.074 186.204 168.843 184.313 170.367C183.554 170.976 182.659 171.294 181.754 171.337C180.402 171.401 179.04 170.841 178.129 169.705L176.514 167.701C174.989 165.81 175.285 163.042 177.176 161.517C177.936 160.909 178.83 160.591 179.729 160.548C181.081 160.483 182.444 161.043 183.36 162.18L184.975 164.184Z" fill="#5DDAFF"/>
<path d="M193.581 187.447C191.771 187.533 189.951 186.784 188.733 185.271L175.305 168.616C174.319 167.394 173.867 165.864 174.034 164.302C174.201 162.74 174.966 161.339 176.189 160.354L176.248 160.305C177.47 159.32 179.006 158.867 180.562 159.034C182.124 159.201 183.525 159.966 184.505 161.189L197.933 177.843C199.964 180.359 199.571 184.064 197.05 186.1L196.991 186.149C195.983 186.968 194.782 187.388 193.581 187.447ZM179.668 159.411C178.515 159.465 177.411 159.88 176.496 160.618L176.436 160.666C175.294 161.587 174.583 162.891 174.427 164.345C174.271 165.799 174.691 167.227 175.612 168.363L189.04 185.018C190.931 187.366 194.384 187.738 196.737 185.842L196.797 185.793C199.145 183.897 199.517 180.445 197.621 178.096L184.193 161.442C183.277 160.305 181.968 159.589 180.514 159.433C180.234 159.406 179.954 159.395 179.668 159.411Z" fill="#02BAF1"/>
<path d="M193.524 186.117C192.064 186.187 190.647 185.546 189.732 184.409L188.116 182.406C186.527 180.434 186.839 177.531 188.811 175.942C189.576 175.328 190.497 174.978 191.482 174.929C192.942 174.859 194.359 175.5 195.274 176.637L196.896 178.646C198.485 180.617 198.172 183.515 196.201 185.109C195.431 185.718 194.504 186.068 193.524 186.117ZM191.493 175.328C190.594 175.371 189.753 175.689 189.059 176.254C187.259 177.709 186.974 180.359 188.423 182.158L190.039 184.161C190.874 185.201 192.172 185.783 193.502 185.718C194.396 185.675 195.242 185.357 195.942 184.792C197.741 183.337 198.027 180.693 196.578 178.894L194.957 176.885C194.122 175.845 192.829 175.263 191.493 175.328Z" fill="#02BAF1"/>
<path d="M37.577 175.826C36.4969 177.061 34.6184 177.188 33.3793 176.104C32.1438 175.024 32.0173 173.149 33.0975 171.91C34.1776 170.675 36.0562 170.548 37.2916 171.628C38.5307 172.708 38.6572 174.591 37.577 175.826Z" fill="#5DDAFF"/>
<path d="M39.0154 168.073C37.9353 169.309 36.0567 169.435 34.8213 168.355C33.5858 167.275 33.4593 165.393 34.5359 164.157C35.616 162.922 37.4981 162.795 38.7336 163.876C39.9691 164.956 40.0955 166.834 39.0154 168.073Z" fill="#5DDAFF"/>
<path d="M46.2059 165.953C45.1258 167.188 43.2473 167.315 42.0082 166.231C40.7727 165.151 40.6463 163.272 41.7264 162.037C42.8065 160.801 44.6887 160.675 45.9241 161.751C47.1596 162.835 47.2861 164.714 46.2059 165.953Z" fill="#5DDAFF"/>
<path d="M45.2176 173.496C44.1375 174.731 42.259 174.858 41.0199 173.774C39.7844 172.694 39.658 170.815 40.7381 169.58C41.8183 168.344 43.7004 168.218 44.9359 169.294C46.175 170.378 46.2978 172.26 45.2176 173.496Z" fill="#5DDAFF"/>
<path d="M35.3369 176.975C34.5855 176.975 33.8666 176.704 33.2922 176.205C32.6672 175.66 32.2915 174.901 32.2373 174.074C32.1832 173.247 32.4505 172.445 32.9996 171.82C33.5451 171.195 34.3037 170.819 35.131 170.765C35.9619 170.711 36.7602 170.978 37.3852 171.523C38.0102 172.069 38.3859 172.827 38.4401 173.658C38.4942 174.486 38.2269 175.288 37.6814 175.913C37.1359 176.538 36.3773 176.913 35.55 176.967C35.4742 176.975 35.4055 176.975 35.3369 176.975ZM35.3405 171.028C35.2755 171.028 35.2105 171.032 35.1454 171.036C34.3904 171.086 33.6968 171.429 33.1983 171.997C32.6997 172.567 32.4541 173.297 32.5047 174.056C32.5553 174.811 32.8984 175.501 33.4692 175.999C34.04 176.498 34.7697 176.747 35.5284 176.696C36.2834 176.646 36.977 176.303 37.4755 175.732C37.974 175.161 38.2197 174.431 38.1691 173.676C38.1185 172.921 37.7753 172.228 37.2046 171.729C36.6844 171.274 36.0269 171.028 35.3405 171.028Z" fill="#003C4E"/>
<path d="M36.7742 169.222C36.0481 169.222 35.3184 168.969 34.7295 168.456C33.4399 167.329 33.3062 165.36 34.4333 164.071C35.564 162.781 37.5329 162.647 38.8225 163.778C40.1122 164.905 40.2422 166.874 39.1151 168.164C38.501 168.865 37.6376 169.222 36.7742 169.222ZM36.7778 163.276C35.9867 163.276 35.1992 163.605 34.6392 164.244C33.6096 165.422 33.7325 167.217 34.9102 168.25C36.0878 169.28 37.8833 169.157 38.9128 167.983C39.9424 166.805 39.8232 165.006 38.6455 163.977C38.1072 163.507 37.4389 163.276 36.7778 163.276Z" fill="#003C4E"/>
<path d="M43.9619 167.102C43.2105 167.102 42.4916 166.834 41.9172 166.332C41.2922 165.787 40.9165 165.028 40.8623 164.201C40.8082 163.373 41.0755 162.571 41.6246 161.946C42.1701 161.322 42.9287 160.946 43.7596 160.892C44.5905 160.837 45.3888 161.105 46.0138 161.65C46.6388 162.196 47.0145 162.954 47.0687 163.785C47.1228 164.616 46.8519 165.415 46.3064 166.039C45.7609 166.664 45.0023 167.04 44.175 167.094C44.1028 167.102 44.0341 167.102 43.9619 167.102ZM43.9727 161.155C43.9077 161.155 43.8427 161.159 43.7777 161.163C43.0226 161.213 42.329 161.556 41.8305 162.127C41.332 162.698 41.0863 163.428 41.1369 164.183C41.1875 164.938 41.5307 165.631 42.1014 166.13C42.6722 166.628 43.4019 166.874 44.1606 166.827C44.9156 166.776 45.6092 166.433 46.1077 165.866C47.1373 164.688 47.0181 162.889 45.8404 161.86C45.313 161.401 44.6591 161.155 43.9727 161.155Z" fill="#003C4E"/>
<path d="M42.978 174.645C42.2519 174.645 41.5221 174.392 40.9297 173.875C40.3047 173.33 39.9326 172.571 39.8748 171.744C39.817 170.916 40.088 170.114 40.6371 169.489C41.1826 168.865 41.9412 168.489 42.7721 168.435C43.5994 168.38 44.4013 168.648 45.0263 169.193C46.316 170.32 46.4496 172.293 45.3189 173.582C44.7084 174.287 43.845 174.645 42.978 174.645ZM42.9852 168.698C42.9202 168.698 42.8552 168.702 42.7901 168.706C42.0351 168.756 41.3415 169.099 40.843 169.67C40.3445 170.241 40.0988 170.971 40.1494 171.726C40.2 172.481 40.5432 173.174 41.1139 173.673C42.2916 174.702 44.0907 174.583 45.1202 173.405C46.1498 172.228 46.0306 170.429 44.8529 169.399C44.3255 168.944 43.6716 168.698 42.9852 168.698Z" fill="#003C4E"/>
<path d="M181.383 13.7607C179.967 17.0553 178.269 20.2199 176.311 23.2255L175.95 23.7782C175.596 24.3201 174.757 24.1034 174.711 23.4603L174.198 16.3111C174.176 16.0474 174.313 15.7982 174.544 15.6717L180.715 12.2543C181.278 11.94 181.918 12.5216 181.661 13.1104L181.383 13.7607Z" fill="#02BAF1"/>
<path d="M172.524 23.1461C172.535 23.6555 171.996 23.995 171.541 23.7638L165.765 20.8124C165.32 20.5848 165.27 19.9671 165.671 19.6672L170.833 15.8416C171.035 15.6898 171.314 15.6682 171.541 15.7838L171.996 16.0186C172.217 16.1306 172.358 16.3546 172.365 16.6038L172.524 23.1461Z" fill="#02BAF1"/>
<path d="M178.697 9.08247C179.145 9.31006 179.196 9.9278 178.795 10.2276L173.632 14.0533C173.426 14.205 173.152 14.2267 172.924 14.1111L172.465 13.8763C172.245 13.7643 172.104 13.5403 172.097 13.291L171.942 6.74877C171.931 6.23579 172.469 5.89621 172.924 6.13102L178.697 9.08247Z" fill="#02BAF1"/>
<path d="M170.409 13.5187C170.467 13.8077 170.322 14.1003 170.062 14.2376L163.242 17.8609C162.693 18.1499 162.071 17.6044 162.292 17.0192L162.602 16.2172C163.888 12.8684 165.46 9.63881 167.299 6.56094L167.761 5.79147C168.079 5.25682 168.888 5.40133 169.004 6.01185L170.409 13.5187Z" fill="#02BAF1"/>
<path d="M175.003 24.1393C174.751 24.0092 174.584 23.7636 174.566 23.471L174.053 16.3218C174.028 16.0039 174.194 15.6968 174.476 15.5415L180.646 12.124C180.96 11.9506 181.336 11.994 181.6 12.236C181.864 12.4744 181.943 12.8429 181.802 13.1681L181.524 13.8183C180.112 17.1057 178.403 20.2992 176.441 23.3048L176.08 23.8575C175.885 24.1573 175.534 24.2946 175.184 24.2043C175.115 24.1899 175.058 24.1682 175.003 24.1393ZM181.282 12.3697C181.148 12.301 180.971 12.2794 180.791 12.3805L174.62 15.798C174.44 15.8991 174.335 16.0942 174.35 16.3001L174.863 23.4493C174.881 23.7274 175.076 23.8756 175.256 23.9225C175.433 23.9695 175.679 23.9334 175.831 23.6985L176.192 23.1458C178.143 20.1547 179.848 16.9756 181.253 13.7027L181.531 13.0524C181.643 12.7996 181.538 12.5756 181.401 12.4528C181.365 12.4202 181.325 12.3913 181.282 12.3697Z" fill="#003C4E"/>
<path d="M171.474 23.8975L165.698 20.946C165.445 20.816 165.278 20.5667 165.253 20.2813C165.228 19.9959 165.354 19.7214 165.582 19.5516L170.744 15.7259C170.99 15.5417 171.329 15.5128 171.608 15.6537L172.063 15.8885C172.33 16.0258 172.504 16.3003 172.511 16.6002L172.67 23.1424C172.677 23.4351 172.532 23.7024 172.283 23.8577C172.034 24.0131 171.73 24.0275 171.474 23.8975ZM171.474 15.9174C171.297 15.8271 171.08 15.8451 170.921 15.9607L165.759 19.7864C165.611 19.8948 165.531 20.0718 165.546 20.256C165.56 20.4403 165.669 20.5992 165.831 20.6823L171.608 23.6337C171.774 23.7168 171.969 23.7096 172.128 23.6085C172.287 23.5073 172.381 23.3375 172.377 23.1497L172.218 16.6074C172.215 16.4123 172.103 16.2389 171.929 16.1486L171.474 15.9174Z" fill="#003C4E"/>
<path d="M172.855 14.2412L172.397 14.0064C172.129 13.8691 171.956 13.5945 171.949 13.2947L171.793 6.75242C171.786 6.45981 171.931 6.18887 172.18 6.03353C172.425 5.87819 172.729 5.86734 172.989 5.99739L178.762 8.94884C179.018 9.07889 179.184 9.32814 179.21 9.61353C179.231 9.89892 179.109 10.1699 178.881 10.3397L173.719 14.1653C173.466 14.3568 173.137 14.3857 172.855 14.2412ZM172.859 6.26112C172.693 6.17442 172.498 6.18526 172.339 6.2828C172.18 6.38395 172.086 6.55734 172.089 6.74519L172.245 13.2875C172.248 13.4825 172.36 13.6559 172.534 13.7463L172.993 13.9811C173.17 14.0714 173.383 14.0533 173.545 13.9341L178.708 10.1084C178.856 10.0001 178.935 9.82307 178.917 9.64244C178.903 9.4582 178.794 9.29925 178.628 9.21255L172.859 6.26112Z" fill="#003C4E"/>
<path d="M162.558 18.0017C162.496 17.9692 162.439 17.9295 162.384 17.8825C162.124 17.6513 162.038 17.2973 162.16 16.9722L162.471 16.1702C163.757 12.825 165.343 9.56649 167.178 6.49223L167.641 5.72278C167.818 5.42655 168.15 5.27483 168.49 5.33624C168.829 5.39765 169.089 5.65414 169.154 5.99372L170.556 13.4969C170.625 13.8509 170.455 14.2014 170.137 14.3748L163.316 17.9981C163.071 18.121 162.793 18.121 162.558 18.0017ZM168.591 5.6722C168.54 5.64691 168.486 5.62884 168.439 5.62162C168.266 5.58911 168.031 5.63968 167.893 5.87088L167.431 6.64035C165.603 9.70377 164.024 12.9442 162.746 16.275L162.435 17.0769C162.337 17.3298 162.446 17.543 162.579 17.6622C162.713 17.7814 162.941 17.8609 163.176 17.7344L169.992 14.1111C170.198 14.0027 170.307 13.7751 170.263 13.5475L168.862 6.04428C168.829 5.85281 168.714 5.73361 168.591 5.6722Z" fill="#003C4E"/>
<path d="M227.174 65.055H224.865L226.498 63.4221L225.646 62.5696L224.013 64.2024V61.894H222.813V64.2024L221.18 62.5696L220.328 63.4221L221.961 65.055H219.652V66.258H221.961L220.328 67.8908L221.18 68.7398L222.813 67.1069V69.4153H224.013V67.1069L225.646 68.7398L226.498 67.8908L224.865 66.258H227.174V65.055Z" fill="#5DDAFF"/>
<path d="M239.826 65.055H237.514L239.147 63.4221L238.298 62.5696L236.665 64.2024V61.894H235.462V64.2024L233.829 62.5696L232.98 63.4221L234.613 65.055H232.301V66.258H234.613L232.98 67.8908L233.829 68.7398L235.462 67.1069V69.4153H236.665V67.1069L238.298 68.7398L239.147 67.8908L237.514 66.258H239.826V65.055Z" fill="#5DDAFF"/>
<path d="M252.072 65.055H249.764L251.397 63.4221L250.548 62.5696L248.915 64.2024V61.894H247.712V64.2024L246.079 62.5696L245.226 63.4221L246.859 65.055H244.551V66.258H246.859L245.226 67.8908L246.079 68.7398L247.712 67.1069V69.4153H248.915V67.1069L250.548 68.7398L251.397 67.8908L249.764 66.258H252.072V65.055Z" fill="#5DDAFF"/>
<path d="M183.478 65.055H181.17L182.803 63.4221L181.95 62.5696L180.317 64.2024V61.894H179.114V64.2024L177.482 62.5696L176.633 63.4221L178.265 65.055H175.957V66.258H178.265L176.633 67.8908L177.482 68.7398L179.114 67.1069V69.4153H180.317V67.1069L181.95 68.7398L182.803 67.8908L181.17 66.258H183.478V65.055Z" fill="white"/>
<path d="M196.13 65.055H193.818L195.451 63.4221L194.602 62.5696L192.969 64.2024V61.894H191.766V64.2024L190.134 62.5696L189.285 63.4221L190.917 65.055H188.605V66.258H190.917L189.285 67.8908L190.134 68.7398L191.766 67.1069V69.4153H192.969V67.1069L194.602 68.7398L195.451 67.8908L193.818 66.258H196.13V65.055Z" fill="white"/>
<path d="M208.377 65.055H206.068L207.701 63.4221L206.849 62.5696L205.216 64.2024V61.894H204.013V64.2024L202.384 62.5696L201.531 63.4221L203.164 65.055H200.855V66.258H203.164L201.531 67.8908L202.384 68.7398L204.013 67.1069V69.4153H205.216V67.1069L206.849 68.7398L207.701 67.8908L206.068 66.258H208.377V65.055Z" fill="white"/>
<path d="M158.59 119.666C158.59 113.21 163.821 107.979 170.276 107.979C176.732 107.979 181.963 113.21 181.963 119.666" stroke="#5DDAFF" stroke-width="2" stroke-miterlimit="10"/>
<path d="M161.34 119.666C161.34 114.731 165.343 110.728 170.277 110.728C175.212 110.728 179.215 114.731 179.215 119.666" stroke="#5DDAFF" stroke-miterlimit="10"/>
<path d="M183.014 126.894C183.014 133.931 177.31 139.636 170.273 139.636C163.235 139.636 157.531 133.931 157.531 126.894V122.118H183.014V126.894Z" stroke="#5DDAFF" stroke-width="2" stroke-miterlimit="10"/>
<path d="M165.965 131.955L168.931 134.722L176.329 127.624" stroke="#5DDAFF" stroke-width="2" stroke-miterlimit="10"/>
<path d="M157.535 125.023H183.018" stroke="#5DDAFF" stroke-miterlimit="10"/>
</svg>
