<svg width="40" height="40" viewBox="0 0 40 40" fill="none" xmlns="http://www.w3.org/2000/svg">
<path d="M16.7933 18.3333C17.7933 18.3333 18.6033 19.0833 18.585 20C18.585 20.9166 17.795 21.6666 16.7933 21.6666C15.81 21.6666 15 20.9166 15 20C15 19.0833 15.7917 18.3333 16.7933 18.3333ZM23.2067 18.3333C24.2083 18.3333 25 19.0833 25 20C25 20.9166 24.2083 21.6666 23.2067 21.6666C22.2233 21.6666 21.415 20.9166 21.415 20C21.415 19.0833 22.205 18.3333 23.2067 18.3333ZM31.485 3.33331C33.4233 3.33331 35 4.94331 35 6.93831V38.3333L31.315 35.0083L29.24 33.0483L27.045 30.965L27.955 34.2033H8.515C6.57667 34.2033 5 32.5933 5 30.5983V6.93831C5 4.94331 6.57667 3.33331 8.515 3.33331H31.4833H31.485ZM24.8683 26.1883C28.6567 26.0666 30.115 23.5283 30.115 23.5283C30.115 17.8933 27.645 13.325 27.645 13.325C25.1783 11.4366 22.8283 11.4883 22.8283 11.4883L22.5883 11.7683C25.5033 12.6783 26.8567 13.9916 26.8567 13.9916C25.2651 13.095 23.5111 12.5239 21.6967 12.3116C20.5457 12.1817 19.3832 12.1928 18.235 12.345C18.1317 12.345 18.045 12.3633 17.9433 12.38C17.3433 12.4333 15.885 12.66 14.0517 13.4833C13.4183 13.78 13.04 13.9916 13.04 13.9916C13.04 13.9916 14.4633 12.6083 17.5483 11.6983L17.3767 11.4883C17.3767 11.4883 15.0283 11.4366 12.56 13.3266C12.56 13.3266 10.0917 17.8933 10.0917 23.5283C10.0917 23.5283 11.5317 26.065 15.32 26.1883C15.32 26.1883 15.9533 25.4016 16.47 24.7366C14.2917 24.07 13.47 22.67 13.47 22.67C13.47 22.67 13.64 22.7933 13.9483 22.9683C13.965 22.985 13.9817 23.0033 14.0167 23.02C14.0683 23.0566 14.12 23.0733 14.1717 23.1083C14.6 23.3533 15.0283 23.545 15.4217 23.7033C16.125 23.9833 16.965 24.2633 17.9433 24.4566C19.4089 24.7439 20.9157 24.7496 22.3833 24.4733C23.2382 24.3207 24.0722 24.0685 24.8683 23.7216C25.4683 23.4933 26.1367 23.16 26.84 22.6883C26.84 22.6883 25.9833 24.1233 23.7367 24.7716C24.2517 25.4366 24.87 26.1883 24.87 26.1883H24.8683Z" fill="#02BAF1"/>
</svg>
