<svg width="30" height="30" viewBox="0 0 30 30" fill="none" xmlns="http://www.w3.org/2000/svg">
<path d="M20.67 30V18.39H24.5583L25.14 13.8767H20.67V10.9967C20.67 9.69 21.0333 8.79833 22.9067 8.79833H25.2967V4.76167C24.1397 4.63891 22.9768 4.57937 21.8133 4.58333C18.3683 4.58333 16.01 6.68667 16.01 10.55V13.8767H12.1133V18.39H16.01V30H1.66667C1.22464 30 0.800716 29.8244 0.488155 29.5118C0.175595 29.1993 0 28.7754 0 28.3333V1.66667C0 1.22464 0.175595 0.800716 0.488155 0.488155C0.800716 0.175595 1.22464 0 1.66667 0H28.3333C28.7754 0 29.1993 0.175595 29.5118 0.488155C29.8244 0.800716 30 1.22464 30 1.66667V28.3333C30 28.7754 29.8244 29.1993 29.5118 29.5118C29.1993 29.8244 28.7754 30 28.3333 30H20.67Z" fill="#02BAF1"/>
</svg>
