<svg width="34" height="34" viewBox="0 0 34 34" fill="none" xmlns="http://www.w3.org/2000/svg">
<path d="M16.9987 0.333313C21.527 0.333313 22.092 0.34998 23.8687 0.433313C25.6437 0.516646 26.852 0.79498 27.9154 1.20831C29.0154 1.63165 29.942 2.20498 30.8687 3.12998C31.7162 3.96314 32.372 4.97096 32.7904 6.08331C33.202 7.14498 33.482 8.35498 33.5654 10.13C33.6437 11.9066 33.6654 12.4716 33.6654 17C33.6654 21.5283 33.6487 22.0933 33.5654 23.87C33.482 25.645 33.202 26.8533 32.7904 27.9166C32.3732 29.0296 31.7172 30.0377 30.8687 30.87C30.0353 31.7172 29.0275 32.3729 27.9154 32.7916C26.8537 33.2033 25.6437 33.4833 23.8687 33.5666C22.092 33.645 21.527 33.6666 16.9987 33.6666C12.4704 33.6666 11.9054 33.65 10.1287 33.5666C8.3537 33.4833 7.14536 33.2033 6.08203 32.7916C4.96924 32.3741 3.96124 31.7182 3.1287 30.87C2.28104 30.037 1.62525 29.0291 1.20703 27.9166C0.793698 26.855 0.515364 25.645 0.432031 23.87C0.353698 22.0933 0.332031 21.5283 0.332031 17C0.332031 12.4716 0.348698 11.9066 0.432031 10.13C0.515364 8.35331 0.793698 7.14665 1.20703 6.08331C1.62409 4.97028 2.28004 3.96218 3.1287 3.12998C3.96148 2.28203 4.96941 1.6262 6.08203 1.20831C7.14536 0.79498 8.35203 0.516646 10.1287 0.433313C11.9054 0.35498 12.4704 0.333313 16.9987 0.333313ZM16.9987 8.66665C14.7886 8.66665 12.6689 9.54462 11.1061 11.1074C9.54334 12.6702 8.66536 14.7898 8.66536 17C8.66536 19.2101 9.54334 21.3297 11.1061 22.8925C12.6689 24.4553 14.7886 25.3333 16.9987 25.3333C19.2088 25.3333 21.3285 24.4553 22.8913 22.8925C24.4541 21.3297 25.332 19.2101 25.332 17C25.332 14.7898 24.4541 12.6702 22.8913 11.1074C21.3285 9.54462 19.2088 8.66665 16.9987 8.66665V8.66665ZM27.832 8.24998C27.832 7.69745 27.6125 7.16754 27.2218 6.77684C26.8311 6.38614 26.3012 6.16665 25.7487 6.16665C25.1962 6.16665 24.6663 6.38614 24.2756 6.77684C23.8849 7.16754 23.6654 7.69745 23.6654 8.24998C23.6654 8.80251 23.8849 9.33242 24.2756 9.72312C24.6663 10.1138 25.1962 10.3333 25.7487 10.3333C26.3012 10.3333 26.8311 10.1138 27.2218 9.72312C27.6125 9.33242 27.832 8.80251 27.832 8.24998ZM16.9987 12C18.3248 12 19.5966 12.5268 20.5342 13.4644C21.4719 14.4021 21.9987 15.6739 21.9987 17C21.9987 18.3261 21.4719 19.5978 20.5342 20.5355C19.5966 21.4732 18.3248 22 16.9987 22C15.6726 22 14.4008 21.4732 13.4632 20.5355C12.5255 19.5978 11.9987 18.3261 11.9987 17C11.9987 15.6739 12.5255 14.4021 13.4632 13.4644C14.4008 12.5268 15.6726 12 16.9987 12V12Z" fill="#02BAF1"/>
</svg>
