<svg width="164" height="32" viewBox="0 0 164 32" fill="none" xmlns="http://www.w3.org/2000/svg">
<path d="M98.1812 4.06514C100.555 4.06514 102.449 4.88165 103.862 6.51465C105.275 8.14766 105.981 10.603 105.981 13.8806C105.981 16.0463 105.657 17.8646 105.009 19.3355C104.36 20.8064 103.445 21.9182 102.264 22.671C101.094 23.4238 99.7099 23.8002 98.1117 23.8002C97.1041 23.8002 96.2181 23.667 95.4537 23.4006C94.6893 23.1343 94.035 22.7752 93.4906 22.3235C92.9463 21.8719 92.4946 21.3796 92.1356 20.8469H91.9271C91.9618 21.2986 92.0024 21.8429 92.0487 22.4799C92.1066 23.1169 92.1356 23.6728 92.1356 24.1476V31.9652H89.2344V4.41259H91.6144L91.9966 7.22692H92.1356C92.5062 6.64784 92.9579 6.12088 93.4906 5.64603C94.0234 5.15961 94.6719 4.77741 95.4363 4.49945C96.2123 4.20991 97.1272 4.06514 98.1812 4.06514ZM97.6774 6.49728C96.3571 6.49728 95.2916 6.75208 94.4808 7.26167C93.6817 7.77126 93.0968 8.53564 92.7262 9.55483C92.3556 10.5624 92.1587 11.8306 92.1356 13.3594V13.9153C92.1356 15.5251 92.3093 16.886 92.6567 17.9978C93.0158 19.1097 93.6006 19.9551 94.4114 20.5342C95.2336 21.1133 96.3339 21.4028 97.7121 21.4028C98.8934 21.4028 99.8779 21.0843 100.665 20.4473C101.453 19.8103 102.038 18.9243 102.42 17.7893C102.814 16.6428 103.011 15.3283 103.011 13.8458C103.011 11.599 102.571 9.81541 101.69 8.49511C100.822 7.16322 99.4841 6.49728 97.6774 6.49728Z" fill="white"/>
<path d="M124.59 13.8979C124.59 15.4614 124.387 16.857 123.982 18.0847C123.577 19.3123 122.992 20.3489 122.227 21.1943C121.463 22.0398 120.536 22.6884 119.448 23.1401C118.371 23.5802 117.149 23.8002 115.782 23.8002C114.508 23.8002 113.338 23.5802 112.273 23.1401C111.219 22.6884 110.304 22.0398 109.528 21.1943C108.764 20.3489 108.167 19.3123 107.739 18.0847C107.322 16.857 107.113 15.4614 107.113 13.8979C107.113 11.8132 107.467 10.0413 108.173 8.58197C108.88 7.11111 109.887 5.99348 111.196 5.2291C112.516 4.45313 114.085 4.06514 115.904 4.06514C117.641 4.06514 119.158 4.45313 120.455 5.2291C121.764 6.00506 122.777 7.12848 123.496 8.59934C124.225 10.0586 124.59 11.8248 124.59 13.8979ZM110.101 13.8979C110.101 15.4267 110.304 16.7528 110.709 17.8762C111.115 18.9996 111.74 19.8682 112.586 20.4821C113.431 21.0959 114.52 21.4028 115.852 21.4028C117.172 21.4028 118.255 21.0959 119.1 20.4821C119.957 19.8682 120.589 18.9996 120.994 17.8762C121.399 16.7528 121.602 15.4267 121.602 13.8979C121.602 12.3807 121.399 11.072 120.994 9.97176C120.589 8.85993 119.963 8.00289 119.118 7.40065C118.272 6.7984 117.178 6.49728 115.834 6.49728C113.854 6.49728 112.4 7.15164 111.474 8.46036C110.559 9.76909 110.101 11.5816 110.101 13.8979Z" fill="white"/>
<path d="M135.381 4.06514C135.763 4.06514 136.163 4.08831 136.58 4.13463C136.997 4.16938 137.367 4.2215 137.692 4.29099L137.327 6.96634C137.014 6.88527 136.667 6.82157 136.284 6.77524C135.902 6.72891 135.543 6.70575 135.207 6.70575C134.443 6.70575 133.719 6.8621 133.036 7.17481C132.364 7.47593 131.773 7.91603 131.264 8.49511C130.754 9.06261 130.355 9.75171 130.065 10.5624C129.776 11.3616 129.631 12.2533 129.631 13.2378V23.4528H126.73V4.41259H129.127L129.44 7.92182H129.561C129.955 7.21534 130.43 6.57256 130.986 5.99348C131.542 5.40282 132.185 4.93376 132.914 4.58632C133.655 4.23887 134.478 4.06514 135.381 4.06514Z" fill="white"/>
<path d="M144.591 21.4376C145.066 21.4376 145.552 21.397 146.05 21.3159C146.549 21.2349 146.954 21.1364 147.267 21.0206V23.2617C146.931 23.4122 146.462 23.5396 145.859 23.6439C145.269 23.7481 144.69 23.8002 144.122 23.8002C143.115 23.8002 142.2 23.6265 141.377 23.279C140.555 22.92 139.895 22.3178 139.397 21.4723C138.91 20.6268 138.667 19.4571 138.667 17.9631V6.67101H135.957V5.26384L138.685 4.13463L139.831 0H141.568V4.41259H147.145V6.67101H141.568V17.8762C141.568 19.0691 141.841 19.9609 142.385 20.5516C142.941 21.1422 143.676 21.4376 144.591 21.4376Z" fill="white"/>
<path d="M155.608 4.06514C157.23 4.06514 158.619 4.42417 159.777 5.14223C160.936 5.86029 161.822 6.86789 162.435 8.16503C163.049 9.45059 163.356 10.9562 163.356 12.6819V14.4712H150.205C150.24 16.7065 150.796 18.409 151.873 19.5787C152.95 20.7484 154.467 21.3333 156.425 21.3333C157.629 21.3333 158.695 21.2233 159.621 21.0032C160.548 20.7832 161.509 20.4589 162.505 20.0304V22.5668C161.544 22.9953 160.588 23.308 159.638 23.5049C158.7 23.7018 157.589 23.8002 156.303 23.8002C154.473 23.8002 152.875 23.4296 151.508 22.6884C150.153 21.9356 149.099 20.8353 148.346 19.3876C147.594 17.9399 147.217 16.1679 147.217 14.0717C147.217 12.0217 147.559 10.2497 148.242 8.7557C148.937 7.25009 149.91 6.09193 151.161 5.28121C152.423 4.4705 153.906 4.06514 155.608 4.06514ZM155.573 6.42779C154.033 6.42779 152.805 6.93159 151.89 7.93919C150.975 8.94679 150.431 10.354 150.257 12.1607H160.333C160.322 11.0257 160.142 10.0297 159.795 9.17263C159.459 8.30401 158.944 7.63228 158.249 7.15743C157.554 6.67101 156.662 6.42779 155.573 6.42779Z" fill="white"/>
<path d="M8.82488 32C6.11478 32 4.04168 31.5252 2.60556 30.5755C1.18102 29.6374 0.46875 28.3171 0.46875 26.6146C0.46875 25.4448 0.833571 24.4662 1.56321 23.6786C2.29285 22.8911 3.36415 22.3294 4.77711 21.9935C4.23277 21.7619 3.75793 21.3855 3.35257 20.8643C2.94721 20.3315 2.74454 19.7698 2.74454 19.1792C2.74454 18.4379 2.9588 17.8241 3.38732 17.3377C3.81583 16.8397 4.43545 16.3533 5.24616 15.8784C4.22698 15.4383 3.41627 14.7318 2.81403 13.759C2.22336 12.7861 1.92803 11.6395 1.92803 10.3192C1.92803 8.90628 2.23495 7.70758 2.84877 6.72315C3.47418 5.72713 4.37754 4.96853 5.55887 4.44736C6.75177 3.92619 8.19947 3.6656 9.90197 3.6656C10.261 3.6656 10.6779 3.68877 11.1528 3.73509C11.6276 3.78142 12.0619 3.83354 12.4557 3.89145C12.8611 3.94935 13.1332 3.99568 13.2722 4.03042H20.0475V6.72315L17.0073 7.50491C17.2852 7.93343 17.4937 8.3909 17.6327 8.87733C17.7717 9.36375 17.8412 9.87914 17.8412 10.4235C17.8412 12.5082 17.1115 14.1354 15.6522 15.3051C14.2045 16.4633 12.1893 17.0424 9.60664 17.0424C8.99281 17.0076 8.41373 16.9613 7.8694 16.9034C7.60302 17.1118 7.40034 17.3319 7.26136 17.5635C7.12238 17.7952 7.05289 18.0384 7.05289 18.2932C7.05289 18.548 7.15713 18.7622 7.3656 18.936C7.58565 19.0981 7.90993 19.2255 8.33845 19.3181C8.77855 19.3992 9.32289 19.4398 9.97146 19.4398H13.2722C15.4032 19.4398 17.0247 19.8972 18.1365 20.8122C19.2599 21.7271 19.8216 23.0706 19.8216 24.8426C19.8216 27.1126 18.8719 28.873 16.9725 30.1238C15.0847 31.3746 12.3689 32 8.82488 32ZM9.05072 28.5429C10.3131 28.5429 11.396 28.4213 12.2994 28.1781C13.2143 27.9464 13.915 27.6106 14.4014 27.1705C14.8879 26.742 15.1311 26.2266 15.1311 25.6243C15.1311 25.1379 14.9863 24.7499 14.6968 24.4604C14.4188 24.1824 13.9903 23.9855 13.4112 23.8697C12.8437 23.7539 12.1141 23.696 11.2223 23.696H8.47743C7.82886 23.696 7.24399 23.8002 6.72282 24.0087C6.21323 24.2172 5.80787 24.5067 5.50675 24.8773C5.20563 25.2595 5.05507 25.6996 5.05507 26.1976C5.05507 26.9273 5.40251 27.5005 6.09741 27.9175C6.80389 28.3344 7.78833 28.5429 9.05072 28.5429ZM9.90197 13.8111C10.898 13.8111 11.6276 13.5042 12.0909 12.8904C12.5542 12.2765 12.7858 11.4427 12.7858 10.3887C12.7858 9.21898 12.5426 8.34457 12.0561 7.76549C11.5813 7.17483 10.8632 6.8795 9.90197 6.8795C8.92912 6.8795 8.19947 7.17483 7.71305 7.76549C7.22662 8.34457 6.9834 9.21898 6.9834 10.3887C6.9834 11.4427 7.22083 12.2765 7.69567 12.8904C8.1821 13.5042 8.91753 13.8111 9.90197 13.8111Z" fill="white"/>
<path d="M28.3716 3.63086C30.9775 3.63086 32.9753 4.19836 34.3651 5.33336C35.7549 6.46835 36.4498 8.19401 36.4498 10.5103V23.4528H32.7495L31.7245 20.8122H31.5855C31.0296 21.5071 30.4621 22.0746 29.883 22.5147C29.3039 22.9548 28.638 23.2791 27.8852 23.4875C27.1324 23.696 26.2174 23.8002 25.1404 23.8002C23.9938 23.8002 22.963 23.5802 22.0481 23.1401C21.1447 22.7 20.4324 22.0282 19.9113 21.1249C19.3901 20.2099 19.1295 19.0518 19.1295 17.6504C19.1295 15.5889 19.8533 14.0717 21.3011 13.0988C22.7488 12.1144 24.9203 11.5701 27.8157 11.4658L31.186 11.3616V10.5103C31.186 9.49115 30.9196 8.74414 30.3868 8.26929C29.8541 7.79445 29.1128 7.55702 28.1632 7.55702C27.225 7.55702 26.3043 7.69021 25.4009 7.95659C24.4976 8.22297 23.5942 8.55883 22.6908 8.96419L20.9362 5.38547C21.967 4.84114 23.1194 4.41262 24.3933 4.09991C25.6789 3.78721 27.005 3.63086 28.3716 3.63086ZM31.186 14.4539L29.136 14.5234C27.4219 14.5697 26.229 14.8766 25.5573 15.4441C24.8971 16.0116 24.5671 16.7586 24.5671 17.6851C24.5671 18.4959 24.8045 19.0749 25.2793 19.4224C25.7542 19.7582 26.3738 19.9262 27.1382 19.9262C28.2732 19.9262 29.2287 19.5903 30.0046 18.9186C30.7922 18.2468 31.186 17.2914 31.186 16.0521V14.4539Z" fill="white"/>
<path d="M61.8858 3.6656C64.0863 3.6656 65.7483 4.2331 66.8717 5.3681C68.0067 6.49152 68.5742 8.29825 68.5742 10.7883V23.4528H63.2582V12.1086C63.2582 10.7188 63.0208 9.67067 62.5459 8.96419C62.0711 8.25771 61.3357 7.90447 60.3396 7.90447C58.9383 7.90447 57.9422 8.40827 57.3516 9.41587C56.7609 10.4119 56.4656 11.8422 56.4656 13.7069V23.4528H51.167V12.1086C51.167 11.1821 51.0628 10.4061 50.8543 9.78069C50.6458 9.15529 50.3273 8.68623 49.8988 8.37353C49.4703 8.06082 48.9202 7.90447 48.2484 7.90447C47.264 7.90447 46.488 8.15348 45.9205 8.65149C45.3646 9.13791 44.9651 9.86176 44.7218 10.823C44.4902 11.7727 44.3744 12.9367 44.3744 14.3149V23.4528H39.0758V4.03042H43.1236L43.8358 6.51468H44.1312C44.525 5.84295 45.0172 5.29861 45.6078 4.88167C46.2101 4.46474 46.8702 4.15782 47.5883 3.96094C48.3063 3.76405 49.036 3.6656 49.7772 3.6656C51.2018 3.6656 52.4062 3.89724 53.3907 4.3605C54.3867 4.82376 55.1511 5.54182 55.6838 6.51468H56.1529C56.732 5.51866 57.5485 4.79481 58.6024 4.34313C59.6679 3.89145 60.7624 3.6656 61.8858 3.6656Z" fill="white"/>
<path d="M79.1915 3.6656C80.9866 3.6656 82.5328 4.01305 83.8299 4.70795C85.1271 5.39126 86.1289 6.38728 86.8354 7.696C87.5418 9.00472 87.8951 10.603 87.8951 12.4908V15.0619H75.3696C75.4275 16.5559 75.8734 17.7315 76.7072 18.5885C77.5527 19.434 78.7224 19.8567 80.2165 19.8567C81.4557 19.8567 82.5907 19.7293 83.6215 19.4745C84.6522 19.2197 85.7119 18.8375 86.8006 18.3279V22.4278C85.8393 22.9027 84.8317 23.2501 83.7778 23.4701C82.7355 23.6902 81.4673 23.8002 79.9732 23.8002C78.0275 23.8002 76.3019 23.4412 74.7963 22.7231C73.3022 22.0051 72.1267 20.9106 71.2697 19.4398C70.4242 17.9689 70.0015 16.1158 70.0015 13.8806C70.0015 11.6106 70.3837 9.72278 71.1481 8.21718C71.924 6.69999 73.0011 5.56499 74.3793 4.81218C75.7575 4.0478 77.3616 3.6656 79.1915 3.6656ZM79.2262 7.43542C78.1955 7.43542 77.3384 7.76549 76.6551 8.42564C75.9834 9.0858 75.5954 10.1223 75.4912 11.5353H82.9266C82.915 10.7478 82.7702 10.0471 82.4922 9.43324C82.2259 8.81942 81.8205 8.33299 81.2762 7.97396C80.7434 7.61493 80.0601 7.43542 79.2262 7.43542Z" fill="white"/>
</svg>
