<svg width="28" height="24" viewBox="0 0 28 24" fill="none" xmlns="http://www.w3.org/2000/svg">
<path d="M21.6067 9.1772L21.6099 9.17456C22.2484 8.65581 22.3497 7.70571 21.8347 7.06447C21.3243 6.39866 20.3647 6.30775 19.7278 6.82368C19.7272 6.82415 19.7266 6.82463 19.726 6.82511L15.5559 10.1558L15.555 10.1566C15.153 10.4792 14.5864 10.6565 13.9946 10.6565C13.4029 10.6565 12.8363 10.4792 12.4343 10.1566L12.4333 10.1558L8.26143 6.82362C7.60977 6.29583 6.67137 6.42838 6.15991 7.05787L6.15984 7.05782L6.15396 7.06535C5.65446 7.7047 5.75263 8.65453 6.39267 9.17456L6.39593 9.17718L10.5673 12.509C11.5357 13.2977 12.7846 13.6732 14.0013 13.6732C15.2209 13.6732 16.4548 13.2961 17.4339 12.5101C17.434 12.51 17.4342 12.5098 17.4344 12.5097L21.6067 9.17718L21.6067 9.1772ZM7.33464 1.1665H20.668C22.5913 1.1665 24.1177 1.64741 25.1611 2.61623C26.1977 3.57882 26.8346 5.09514 26.8346 7.33317V16.6665C26.8346 18.9045 26.1977 20.4209 25.1611 21.3834C24.1177 22.3523 22.5913 22.8332 20.668 22.8332H7.33464C5.41128 22.8332 3.88487 22.3523 2.84153 21.3834C1.80489 20.4209 1.16797 18.9045 1.16797 16.6665V7.33317C1.16797 5.09514 1.80489 3.57882 2.84153 2.61623C3.88487 1.64741 5.41128 1.1665 7.33464 1.1665Z" fill="white" stroke="white"/>
</svg>
