<svg width="30" height="34" viewBox="0 0 30 34" fill="none" xmlns="http://www.w3.org/2000/svg">
<path fill-rule="evenodd" clip-rule="evenodd" d="M1.5 0.166687C0.671573 0.166687 0 0.83826 0 1.66669V25.323C0 26.1514 0.671572 26.823 1.5 26.823H8.35921V31.8723C8.35921 32.9117 9.61588 33.4322 10.3508 32.6973L16.2251 26.823H23.963C24.3608 26.823 24.7423 26.665 25.0236 26.3837L29.5607 21.8466C29.842 21.5653 30 21.1838 30 20.786V1.66669C30 0.838259 29.3284 0.166687 28.5 0.166687H1.5ZM13.6982 8.83337C13.6982 8.14302 13.1386 7.58337 12.4482 7.58337C11.7579 7.58337 11.1982 8.14302 11.1982 8.83337V15.9535C11.1982 16.6438 11.7579 17.2035 12.4482 17.2035C13.1386 17.2035 13.6982 16.6438 13.6982 15.9535V8.83337ZM22.0574 8.83337C22.0574 8.14302 21.4978 7.58337 20.8074 7.58337C20.1171 7.58337 19.5574 8.14302 19.5574 8.83337V15.9535C19.5574 16.6438 20.1171 17.2035 20.8074 17.2035C21.4978 17.2035 22.0574 16.6438 22.0574 15.9535V8.83337Z" fill="#02BAF1"/>
</svg>
