<svg width="24" height="24" viewBox="0 0 24 24" fill="none" xmlns="http://www.w3.org/2000/svg">
<path d="M8.45643 2.08724L8.45675 2.08739L19.8701 7.79406C22.3576 9.03781 23.4337 10.5912 23.4337 12.0002C23.4337 13.4092 22.3576 14.9626 19.8701 16.2063L8.45675 21.913C6.56694 22.8579 4.99306 23.3538 3.76333 23.471C2.53146 23.5884 1.71402 23.3224 1.22747 22.8352C0.740869 22.3479 0.475918 21.53 0.594307 20.2987C0.712478 19.0696 1.20915 17.4974 2.15392 15.6111C2.15397 15.611 2.15402 15.6109 2.15408 15.6108L3.31371 13.3048L3.31374 13.3048L3.31598 13.3003C3.71736 12.4814 3.71736 11.5323 3.31598 10.7134L3.31599 10.7134L3.31423 10.7099L2.15423 8.38991L2.15408 8.3896C1.20926 6.50324 0.713407 4.93111 0.596219 3.70209C0.478831 2.47099 0.744746 1.65289 1.23224 1.1654C1.71973 0.677907 2.53783 0.411992 3.76893 0.52938C4.99795 0.646569 6.57008 1.14242 8.45643 2.08724ZM8.58702 13.5002H15.787C16.6098 13.5002 17.287 12.823 17.287 12.0002C17.287 11.1774 16.6098 10.5002 15.787 10.5002H8.58702C7.76421 10.5002 7.08702 11.1774 7.08702 12.0002C7.08702 12.823 7.76421 13.5002 8.58702 13.5002Z" fill="white" stroke="white"/>
</svg>
