<svg width="34" height="28" viewBox="0 0 34 28" fill="none" xmlns="http://www.w3.org/2000/svg">
<path d="M33.3486 4.37875C33.4452 4.24413 33.3026 4.07032 33.1481 4.1302C32.0502 4.55575 30.9028 4.84286 29.7324 4.98435C31.0356 4.20582 32.0412 3.02068 32.5988 1.61758C32.6556 1.47464 32.4996 1.347 32.3649 1.42136C31.1537 2.09025 29.8475 2.57191 28.4906 2.84931C28.4338 2.86092 28.3752 2.84158 28.3353 2.79951C27.3171 1.72505 25.9767 1.00966 24.5154 0.76244C23.0235 0.510032 21.49 0.759952 20.1554 1.473C18.8208 2.18605 17.7606 3.32191 17.1411 4.70241C16.5521 6.01501 16.3932 7.4782 16.6837 8.88341C16.7062 8.99244 16.6209 9.09538 16.5098 9.08848C13.8697 8.9245 11.2902 8.22229 8.93016 7.02412C6.57614 5.82901 4.49159 4.1664 2.80347 2.13885C2.72855 2.04886 2.58655 2.06051 2.53197 2.1641C2.00668 3.16087 1.73166 4.27186 1.7324 5.40102C1.73027 6.52499 2.0061 7.63205 2.53533 8.62363C3.06456 9.61521 3.83077 10.4605 4.76574 11.0844C3.7742 11.0574 2.80198 10.8122 1.91782 10.3678C1.80387 10.3105 1.66719 10.3921 1.67312 10.5195C1.74207 12.0015 2.28616 13.4894 3.22793 14.631C4.23013 15.8458 5.62116 16.6771 7.16574 16.9844C6.57116 17.1653 5.95386 17.2607 5.3324 17.2677C4.99417 17.2637 4.65659 17.2388 4.32163 17.193C4.19743 17.176 4.09602 17.294 4.13949 17.4115C4.60019 18.6574 5.41406 19.7444 6.48419 20.538C7.62828 21.3863 9.00836 21.8569 10.4324 21.8844C8.02774 23.7765 5.05888 24.8091 1.99907 24.8177C1.68466 24.8187 1.3704 24.8085 1.05687 24.7872C0.880192 24.7751 0.798934 25.0105 0.951227 25.1009C3.93251 26.8701 7.34005 27.8053 10.8157 27.801C13.3819 27.8277 15.9276 27.3427 18.3043 26.3745C20.6809 25.4063 22.8408 23.9742 24.6577 22.1618C26.4747 20.3495 27.9123 18.1933 28.8867 15.8192C29.861 13.4451 30.3525 10.9006 30.3324 8.33435V7.53464C30.3324 7.48202 30.3573 7.43253 30.3993 7.40083C31.5298 6.54726 32.5239 5.5282 33.3486 4.37875Z" fill="#02BAF1"/>
</svg>
