<svg width="34" height="26" viewBox="0 0 34 26" fill="none" xmlns="http://www.w3.org/2000/svg">
<path fill-rule="evenodd" clip-rule="evenodd" d="M8.64997 1.15085C14.2094 0.71591 19.7943 0.71591 25.3538 1.15086L29.0883 1.44302C31.1684 1.60576 32.8701 3.16476 33.214 5.22271C34.0743 10.3719 34.0743 15.6281 33.214 20.7773C32.8701 22.8352 31.1684 24.3942 29.0883 24.557L25.3538 24.8491C19.7943 25.2841 14.2094 25.2841 8.64997 24.8491L4.91547 24.557C2.83534 24.3942 1.13364 22.8352 0.78979 20.7773C-0.0705549 15.6281 -0.0705549 10.3719 0.78979 5.22271C1.13364 3.16476 2.83534 1.60576 4.91547 1.44302L8.64997 1.15085ZM13.6685 17.1169V8.88309C13.6685 8.49444 14.0925 8.25438 14.4257 8.45434L21.2873 12.5712C21.6109 12.7654 21.6109 13.2345 21.2873 13.4287L14.4257 17.5456C14.0925 17.7456 13.6685 17.5055 13.6685 17.1169Z" fill="#02BAF1"/>
</svg>
